<svg width="41" height="33" viewBox="0 0 41 33" fill="none" xmlns="http://www.w3.org/2000/svg">
<path d="M4.38188 4.90822C7.18788 1.86622 11.4339 0.324219 16.9999 0.324219H18.9999V5.96222L17.3919 6.28422C14.6519 6.83222 12.7459 7.91022 11.7259 9.49222C11.1937 10.3445 10.8918 11.3203 10.8499 12.3242H16.9999C17.5303 12.3242 18.039 12.5349 18.4141 12.91C18.7892 13.2851 18.9999 13.7938 18.9999 14.3242V28.3242C18.9999 30.5302 17.2059 32.3242 14.9999 32.3242H2.99988C2.46945 32.3242 1.96074 32.1135 1.58567 31.7384C1.21059 31.3634 0.99988 30.8547 0.99988 30.3242V20.3242L1.00588 14.4862C0.98788 14.2642 0.60788 9.00422 4.38188 4.90822ZM36.9999 32.3242H24.9999C24.4694 32.3242 23.9607 32.1135 23.5857 31.7384C23.2106 31.3634 22.9999 30.8547 22.9999 30.3242V20.3242L23.0059 14.4862C22.9879 14.2642 22.6079 9.00422 26.3819 4.90822C29.1879 1.86622 33.4339 0.324219 38.9999 0.324219H40.9999V5.96222L39.3919 6.28422C36.6519 6.83222 34.7459 7.91022 33.7259 9.49222C33.1937 10.3445 32.8918 11.3203 32.8499 12.3242H38.9999C39.5303 12.3242 40.039 12.5349 40.4141 12.91C40.7892 13.2851 40.9999 13.7938 40.9999 14.3242V28.3242C40.9999 30.5302 39.2059 32.3242 36.9999 32.3242Z" fill="#54585F"/>
</svg>
