<svg width="199" height="60" viewBox="0 0 199 60" fill="none" xmlns="http://www.w3.org/2000/svg">
<path opacity="0.3" d="M2.14407 54.2749C1.846 49.43 2.78893 44.9597 4.94877 40.9784C6.21345 38.3861 7.88081 35.6186 9.87065 32.7648C11.9602 29.6915 14.5584 26.8488 17.6465 24.2572C19.3228 22.869 21.2449 21.6124 23.4005 20.4955C25.5946 19.3093 28.1148 18.3244 30.9307 17.5526C33.778 16.7336 37.0104 16.2061 40.5602 15.981C44.109 15.7168 48.0019 15.805 52.132 16.2432L52.8227 16.3272C52.8382 16.4576 52.8078 16.5834 52.8086 16.7177C52.8933 21.8072 56.2465 27.7305 62.364 33.5966C65.5104 36.5682 69.4434 39.4335 73.9233 42.0181C78.6141 44.7264 83.8871 46.984 89.2388 48.5753C92.0611 49.4575 94.8756 50.1111 97.5763 50.5114C100.61 50.9732 103.398 51.0196 105.73 50.647C107.942 50.2409 109.678 49.4691 110.826 48.382C111.974 47.2949 112.507 45.917 112.391 44.3384C112.178 41.4779 110.022 38.1582 106.299 34.9564C102.911 32.0211 98.8055 29.2241 94.2175 26.7253C89.725 24.2542 84.9162 22.0431 79.961 20.1701C73.7746 17.839 67.475 16.007 61.3325 14.753C61.6172 14.1422 61.9938 13.5694 62.4596 13.0384C65.1509 9.878 69.5643 7.58672 75.3804 6.33029C80.7658 5.12881 86.9703 4.60005 93.783 4.76196C99.7153 4.8828 106.03 5.48899 112.587 6.56708C118.194 7.55823 123.915 8.83922 129.68 10.3945C138.693 12.779 147.752 15.6748 156.693 19.0301C162.697 21.2587 168.63 23.6939 174.439 26.3148C179.092 28.4311 182.414 30.0299 184.969 31.2957C187.2 32.3794 188.65 33.1177 189.789 33.67L188.027 33.3518C183.003 32.4447 178.48 31.6726 174.688 31.0745C167.12 29.8905 162.38 29.3279 162.577 29.8467C162.775 30.3654 167.53 31.681 175.246 33.4808C179.121 34.3932 183.688 35.4058 188.763 36.4843L190.687 36.8935C191.517 37.0746 192.333 37.2159 193.127 37.3159C193.634 37.375 194.123 37.4069 194.59 37.4114C195.185 37.4179 195.729 37.3684 196.206 37.2642C197.19 37.0497 197.823 36.5853 198.015 35.9387C198.147 35.0744 197.939 34.1032 197.402 33.076L196.49 30.7476C191.012 17.7537 185.226 7.01133 183.52 6.77918C181.813 6.54704 184.843 16.8843 190.307 29.8822L191.055 31.5986C189.982 30.9053 188.861 30.2338 187.7 29.5884C184.276 27.6393 180.718 25.7821 177.057 24.0326C171.052 21.1283 164.86 18.4476 158.559 16.0245C149.14 12.3618 139.561 9.2111 130.02 6.63755C123.739 4.93086 117.506 3.53286 111.403 2.46172C104.146 1.24616 97.1594 0.564933 90.6061 0.433915C83.0118 0.251588 76.1046 0.849234 70.1253 2.20602C63.4207 3.67803 58.3588 6.3562 55.312 10.0435C54.4231 11.1008 53.8034 12.281 53.4623 13.5661C52.5255 13.4472 51.5887 13.3283 50.687 13.2504C46.0838 12.8005 41.7522 12.7395 37.8089 13.0692C33.9738 13.3777 30.4909 14.0119 27.4308 14.9591C24.4777 15.839 21.8506 16.9483 19.5816 18.2733C17.403 19.4827 15.4723 20.8371 13.802 22.3278C10.7847 25.0559 8.30508 28.053 6.38329 31.2946C4.54118 34.2883 3.07205 37.1539 1.97592 39.8917C0.112055 44.0848 -0.344731 48.8141 0.620344 53.9265C0.911966 55.2911 1.39827 56.7012 2.07496 58.1444C2.58596 59.1341 2.85514 59.6169 3.02801 59.6715C3.20088 59.7261 2.50332 57.6764 2.1734 54.2671L2.14407 54.2749ZM60.5189 18.721C60.5036 18.3384 60.5509 17.9726 60.5981 17.6068C66.5293 18.784 72.6333 20.5687 78.6034 22.8714C82.9614 24.5577 87.1803 26.5348 91.1137 28.7341C94.9922 30.8799 98.4484 33.274 101.284 35.7789C103.996 38.157 105.539 40.6099 105.649 42.7148C105.726 43.7554 105.377 44.6642 104.623 45.382C103.869 46.0997 102.728 46.6103 101.274 46.8804C98.0644 47.1951 94.0212 46.6121 89.9317 45.245C85.6876 43.9559 81.5196 42.1434 77.8252 39.9803C74.1742 37.8239 70.9848 35.447 68.4481 32.992C65.8809 30.5284 63.8829 28.0359 62.5337 25.6139C61.1545 23.1815 60.4634 20.8537 60.4896 18.7289" fill="#54585F"/>
</svg>
