<svg width="46" height="64" viewBox="0 0 46 64" fill="none" xmlns="http://www.w3.org/2000/svg">
<path d="M26.9381 15.6436V14.5039H24.8659V15.6436C23.8715 15.8485 22.9585 16.3406 22.2406 17.0589C21.5222 17.7768 21.0301 18.6898 20.8252 19.6843H19.6855V21.7564H32.1184V19.6843H30.9787C30.7738 18.6898 30.2817 17.7768 29.5634 17.0589C28.8455 16.3406 27.9326 15.8484 26.9381 15.6436ZM25.902 17.6121C26.5426 17.6149 27.1666 17.8152 27.6888 18.1861C28.211 18.5571 28.606 19.0802 28.8197 19.6842H22.9853C23.199 19.0806 23.5936 18.5575 24.1158 18.1866C24.638 17.8157 25.2615 17.6149 25.9021 17.6121L25.902 17.6121Z" fill="url(#paint0_linear_2212_15112)"/>
<path d="M1.03605 63.2008H23.8296C24.1044 63.2008 24.368 63.0916 24.5623 62.8973C24.7566 62.7031 24.8657 62.4394 24.8657 62.1647V59.796C26.5262 59.1591 27.9781 58.0759 29.0609 56.6652C30.1437 55.255 30.8157 53.5723 31.0026 51.804H37.2986C38.3975 51.804 39.4517 51.3673 40.2292 50.5903C41.0062 49.8128 41.4429 48.7586 41.4429 47.6597V37.2463C42.6709 37.1181 43.7972 36.5044 44.57 35.5414C45.3429 34.5785 45.6986 33.3463 45.5575 32.1192C45.4165 30.8926 44.7906 29.7733 43.8198 29.0105C44.7906 28.2478 45.4164 27.1284 45.5575 25.9018C45.6986 24.6747 45.3429 23.4425 44.57 22.4796C43.7971 21.5167 42.6709 20.9028 41.4429 20.7747V4.14429C41.4429 3.04532 41.0062 1.99115 40.2292 1.21368C39.4517 0.43663 38.3975 0 37.2986 0H14.505C13.406 0 12.3519 0.43663 11.5744 1.21368C10.7973 1.9912 10.3607 3.04534 10.3607 4.14429V9.35378C10.1886 9.33435 10.0156 9.32464 9.84266 9.32464C8.62294 9.32603 7.45224 9.80475 6.58087 10.6582C5.70951 11.5116 5.20674 12.6725 5.18034 13.8918L0.0157261 43.3352C0.00508794 43.3944 0 43.4545 0 43.5146V62.1639C0 62.4387 0.109158 62.7023 0.303421 62.8966C0.497684 63.0908 0.76133 63.2 1.03607 63.2L1.03605 63.2008ZM41.4429 35.1735V30.0968C42.2296 30.2564 42.898 30.7721 43.2518 31.4927C43.6061 32.2128 43.6061 33.057 43.2518 33.7776C42.898 34.4982 42.2296 35.0136 41.4429 35.1735ZM43.515 25.3835C43.515 25.9807 43.3087 26.5588 42.9308 27.0214C42.5534 27.4839 42.028 27.8016 41.4429 27.921V22.8442C42.028 22.9636 42.5539 23.2818 42.9318 23.7443C43.3092 24.2073 43.5155 24.7864 43.515 25.3836L43.515 25.3835ZM14.505 2.07132H37.2986C37.8481 2.07132 38.3754 2.28964 38.7639 2.67816C39.1524 3.06668 39.3707 3.59398 39.3707 4.14346V47.6585C39.3707 48.208 39.1524 48.7353 38.7639 49.1238C38.3754 49.5123 37.8481 49.7306 37.2986 49.7306H17.3267L19.1014 46.6224H36.2623C36.537 46.6224 36.8007 46.5133 36.9949 46.319C37.1892 46.1247 37.2983 45.8611 37.2983 45.5863V5.17953C37.2983 4.90479 37.1892 4.64114 36.9949 4.44688C36.8007 4.25262 36.537 4.14346 36.2623 4.14346H15.5408C14.9687 4.14346 14.5048 4.60738 14.5048 5.17953V34.2488L12.4326 36.5531V4.14358C12.4326 3.59409 12.6509 3.0668 13.0395 2.67828C13.428 2.28976 13.9553 2.07143 14.5048 2.07143L14.505 2.07132ZM25.5993 35.2422C25.6316 35.1862 25.658 35.127 25.6788 35.066C25.8305 34.6169 25.9059 34.1455 25.9017 33.6715C25.9022 32.7487 25.6275 31.8468 25.1122 31.0813H30.046C30.3208 31.0813 30.5844 31.1905 30.7787 31.3847C30.9729 31.579 31.0821 31.8426 31.0821 32.1174V35.2256C31.0821 35.5003 30.973 35.764 30.7787 35.9582C30.5844 36.1525 30.3208 36.2617 30.046 36.2617H25.0169L25.5993 35.2422ZM23.8296 38.3337H30.0461C30.8703 38.3337 31.6613 38.0063 32.244 37.4235C32.8267 36.8407 33.1542 36.0497 33.1542 35.2256V32.1174C33.1542 31.2931 32.8268 30.5021 32.244 29.9195C31.6612 29.3368 30.8702 29.0092 30.0461 29.0092H21.2395C19.7164 29.0124 18.2904 29.7585 17.4194 31.0078L16.5771 31.9403V6.21608H35.2264V44.5507H20.2845L23.8296 38.3337ZM2.07212 43.6043L7.23674 14.1657C7.24737 14.1064 7.25246 14.0463 7.25246 13.9862C7.25246 13.2993 7.52536 12.6402 8.01101 12.1545C8.49666 11.6688 9.15578 11.396 9.84267 11.396C10.017 11.3974 10.1905 11.4163 10.3607 11.4529V38.8514L9.59105 39.708L11.1308 41.0942L19.005 32.3385H19.0045C19.036 32.3038 19.0651 32.2673 19.0915 32.2289C19.573 31.5138 20.3773 31.0836 21.2395 31.0809C21.9264 31.0809 22.5855 31.3538 23.0712 31.8394C23.5569 32.3251 23.8297 32.9842 23.8297 33.6711C23.832 33.8861 23.8038 34.1008 23.746 34.3084L14.6419 50.2486C14.5513 50.4063 14.5041 50.5848 14.505 50.7666C14.4995 53.0483 13.426 55.1953 11.604 56.5686L10.7752 57.1902L12.0185 58.848L12.8473 58.2263C14.8964 56.6773 16.2192 54.3549 16.5069 51.8027H28.9279C28.7369 53.2032 28.1582 54.5219 27.2577 55.6111C26.3567 56.6999 25.1694 57.5154 23.8295 57.9655L23.5085 58.0691C23.0815 58.2078 22.7929 58.6061 22.7934 59.0552V61.1273H2.07194L2.07212 43.6043Z" fill="#54585F"/>
<path d="M17.6719 35.5779L18.9203 33.9238L21.7417 36.0533L20.4933 37.7073L17.6719 35.5779Z" fill="url(#paint1_linear_2212_15112)"/>
<defs>
<linearGradient id="paint0_linear_2212_15112" x1="25.902" y1="14.5039" x2="25.902" y2="21.7564" gradientUnits="userSpaceOnUse">
<stop stop-color="#EE8425"/>
<stop offset="1" stop-color="#FF661A"/>
</linearGradient>
<linearGradient id="paint1_linear_2212_15112" x1="19.7068" y1="33.9238" x2="19.7068" y2="37.7073" gradientUnits="userSpaceOnUse">
<stop stop-color="#EE8425"/>
<stop offset="1" stop-color="#FF661A"/>
</linearGradient>
</defs>
</svg>
