<svg width="67" height="67" viewBox="0 0 67 67" fill="none" xmlns="http://www.w3.org/2000/svg">
<path d="M10.7462 54.1638C11.5748 54.1638 12.416 53.9774 13.2067 53.5838L14.3078 53.0352C14.8252 52.7777 15.036 52.1495 14.7785 51.6318L5.57528 33.1421C5.31777 32.6248 4.68918 32.4159 4.17187 32.6715L3.07032 33.2202C0.335875 34.5826 -0.781111 37.9152 0.579827 40.6506L5.77724 51.0932C6.7456 53.0364 8.70897 54.1632 10.7461 54.1632L10.7462 54.1638ZM4.00369 35.0951L4.16773 35.0134L12.4381 51.6282L12.274 51.71C10.5715 52.5563 8.49915 51.8623 7.65232 50.1602L2.45443 39.7172C1.60712 38.0155 2.30254 35.9419 4.00369 35.095V35.0951Z" fill="#54585F"/>
<path d="M44.1478 3.68268C43.7898 3.6481 43.4393 3.79625 43.2178 4.079C43.115 4.21033 32.879 17.2589 28.6154 20.5203C23.9689 24.0741 7.84414 30.5979 7.68262 30.6633C7.41203 30.7722 7.19937 30.9895 7.09563 31.2625C6.99188 31.5354 7.00683 31.8392 7.13723 32.1009L16.3399 50.5905C16.468 50.8471 16.6956 51.0401 16.9699 51.1247C17.0704 51.1555 17.1737 51.1705 17.277 51.1705C17.4555 51.1705 17.6331 51.1252 17.7915 51.035C17.9439 50.949 33.0855 42.4197 38.735 40.8499C43.9059 39.4137 60.4885 39.1127 60.6548 39.1104C61.0142 39.1043 61.3451 38.9141 61.5316 38.6071C61.7181 38.3 61.7339 37.9191 61.5741 37.5971L44.9796 4.25859C44.8193 3.93705 44.5057 3.71973 44.1487 3.68327L44.1478 3.68268ZM17.7235 48.6744L9.51297 32.1769C12.9756 30.7505 23.9323 26.1368 28.8557 22.9064L36.9732 39.215C31.4066 41.1606 20.9626 46.8731 17.7238 48.6738L17.7235 48.6744ZM39.0175 38.6272L30.5598 21.6343C33.5037 19.1083 38.1567 13.641 41.3557 9.73865L55.0165 37.1848C49.9742 37.3843 42.807 37.8012 39.0167 38.627L39.0175 38.6272ZM57.3145 37.1027L42.8066 7.95406C43.1969 7.47034 43.5464 7.0343 43.839 6.66694L58.9643 37.0539C58.4946 37.0665 57.9361 37.0824 57.315 37.1025L57.3145 37.1027Z" fill="#54585F"/>
<path d="M26.0213 63.5131C26.5139 63.5131 27.014 63.4024 27.4837 63.1682L28.5848 62.6196C29.3723 62.2275 29.9602 61.5521 30.2397 60.7178C30.5192 59.8836 30.4575 58.9904 30.0771 58.2269L26.0695 49.6336C25.9503 49.378 25.7325 49.1812 25.4661 49.0882C25.2002 48.9948 24.9072 49.013 24.6543 49.1392L19.5308 51.6904C19.0223 51.9433 18.8087 52.5555 19.0485 53.0701L23.0677 61.6871C23.6435 62.8433 24.8105 63.5131 26.0215 63.5131L26.0213 63.5131ZM24.6263 51.4926L28.1913 59.1367C28.3343 59.4237 28.3567 59.7485 28.2549 60.0527C28.153 60.357 27.9389 60.6028 27.652 60.7458H27.6515L26.5509 61.2945C25.9573 61.5885 25.2362 61.3473 24.9534 60.7785L21.3772 53.1106L24.6263 51.4926Z" fill="#54585F"/>
<path d="M58.7705 0.0543924C58.2232 -0.128805 57.6292 0.165623 57.4451 0.714295L53.8077 11.5597C53.6235 12.1074 53.9189 12.701 54.4671 12.8851C54.5774 12.922 54.6901 12.9398 54.8004 12.9398C55.2373 12.9398 55.6458 12.6631 55.7926 12.2252L59.4299 1.37979C59.6141 0.832051 59.3187 0.238503 58.7705 0.054384L58.7705 0.0543924Z" fill="url(#paint0_linear_2212_15206)"/>
<path d="M65.9535 27.7321C66.3909 27.7321 66.7984 27.4555 66.9457 27.018C67.1298 26.4703 66.8344 25.8763 66.2867 25.6921L61.7337 24.1635C61.1855 23.9812 60.5924 24.2742 60.4083 24.8229C60.2241 25.3706 60.5195 25.9646 61.0672 26.1488L65.6203 27.6775C65.731 27.7144 65.8432 27.7321 65.9535 27.7321L65.9535 27.7321Z" fill="url(#paint1_linear_2212_15206)"/>
<path d="M66.8901 14.1429C66.6326 13.625 66.004 13.4147 65.4867 13.6727L58.5315 17.1382C58.0141 17.3957 57.8033 18.0247 58.0613 18.5416C58.244 18.9089 58.6142 19.1216 58.9988 19.1216C59.1558 19.1216 59.3147 19.0865 59.4648 19.0117L66.42 15.5463C66.9373 15.2888 67.1481 14.6602 66.8901 14.1429L66.8901 14.1429Z" fill="url(#paint2_linear_2212_15206)"/>
<path d="M53.6453 52.2567C53.9192 52.2567 54.1968 52.2287 54.4749 52.1698C56.1475 51.8165 57.3529 50.4616 57.6057 48.8656L61.9391 48.6707C62.5167 48.6445 62.9635 48.1557 62.9378 47.578C62.9116 46.9999 62.4144 46.5536 61.8451 46.5793L57.3781 46.7807C56.6766 44.988 54.7624 43.9061 52.8177 44.3177C50.6534 44.7748 49.264 46.9083 49.721 49.0731C49.9089 49.9639 50.3828 50.7206 51.0235 51.2739L49.4645 55.2249C49.0083 55.1608 48.5405 55.1721 48.0769 55.2697C46.8738 55.5235 45.9116 56.2965 45.3714 57.3042L42.6519 56.476C42.6496 56.2147 42.622 55.9498 42.5659 55.6843C42.1088 53.5195 39.9767 52.1296 37.8115 52.5866C35.6467 53.0437 34.2573 55.1771 34.7143 57.3424C34.8111 57.8018 34.9849 58.2253 35.2167 58.6043L32.9262 61.1406C32.5387 61.5701 32.5724 62.2319 33.0014 62.6193C33.2019 62.8001 33.4529 62.8894 33.7029 62.8894C33.9885 62.8894 34.2731 62.773 34.4801 62.5445L36.7389 60.0432C37.3132 60.3531 37.9633 60.527 38.6392 60.527C38.913 60.527 39.1906 60.4989 39.4687 60.44C40.6324 60.1942 41.5686 59.4614 42.1177 58.5024L44.8999 59.3497C44.9083 59.5736 44.9317 59.7993 44.9794 60.0255C45.3775 61.9123 47.0488 63.2101 48.9047 63.2101C49.1786 63.2101 49.4562 63.182 49.7343 63.1231C51.8986 62.6651 53.2876 60.5321 52.831 58.3673C52.6347 57.4382 52.1276 56.6274 51.3906 56.0473L52.9137 52.1879C53.1525 52.2318 53.3974 52.2566 53.6455 52.2566L53.6453 52.2567ZM39.0357 58.3903C38.0015 58.609 36.9798 57.9449 36.7616 56.9093C36.5428 55.8736 37.2074 54.8533 38.2426 54.6346C38.3758 54.6066 38.5086 54.5925 38.6394 54.5925C39.5265 54.5925 40.3261 55.2137 40.5164 56.1156C40.7356 57.1517 40.071 58.172 39.0358 58.3902L39.0357 58.3903ZM49.3012 61.0734C48.2665 61.2921 47.2453 60.6276 47.0271 59.5919C46.8083 58.5562 47.4729 57.5364 48.5086 57.3177C48.6418 57.2897 48.7759 57.2752 48.9091 57.2752C49.2765 57.2752 49.6368 57.3817 49.9518 57.5869C50.3813 57.8664 50.6762 58.2968 50.7818 58.7983C51.0005 59.8344 50.3359 60.8547 49.3012 61.0734V61.0734ZM51.7684 48.6401C51.5497 47.6045 52.2142 46.5842 53.2494 46.366C53.3826 46.3379 53.5154 46.3239 53.6467 46.3239C54.5342 46.3239 55.3334 46.9445 55.5237 47.8466C55.7424 48.8822 55.0778 49.9025 54.0426 50.1212C53.0088 50.3409 51.9871 49.6758 51.7684 48.6402L51.7684 48.6401Z" fill="url(#paint3_linear_2212_15206)"/>
<path d="M65.9536 34.5469C65.3755 34.5469 64.9067 35.0156 64.9067 35.5938V64.9063H24.0869C23.5088 64.9063 23.04 65.375 23.04 65.9532C23.04 66.5313 23.5088 67 24.0869 67H65.9536C66.5317 67 67.0005 66.5313 67.0005 65.9532V35.5938C67 35.0156 66.5317 34.5469 65.9536 34.5469Z" fill="#54585F"/>
<defs>
<linearGradient id="paint0_linear_2212_15206" x1="56.6188" y1="0" x2="56.6188" y2="12.9398" gradientUnits="userSpaceOnUse">
<stop stop-color="#EE8425"/>
<stop offset="1" stop-color="#FF661A"/>
</linearGradient>
<linearGradient id="paint1_linear_2212_15206" x1="63.677" y1="24.1094" x2="63.677" y2="27.7321" gradientUnits="userSpaceOnUse">
<stop stop-color="#EE8425"/>
<stop offset="1" stop-color="#FF661A"/>
</linearGradient>
<linearGradient id="paint2_linear_2212_15206" x1="62.4757" y1="13.5625" x2="62.4757" y2="19.1216" gradientUnits="userSpaceOnUse">
<stop stop-color="#EE8425"/>
<stop offset="1" stop-color="#FF661A"/>
</linearGradient>
<linearGradient id="paint3_linear_2212_15206" x1="47.7976" y1="44.2305" x2="47.7976" y2="63.2101" gradientUnits="userSpaceOnUse">
<stop stop-color="#EE8425"/>
<stop offset="1" stop-color="#FF661A"/>
</linearGradient>
</defs>
</svg>
