<svg width="356" height="229" viewBox="0 0 356 229" fill="none" xmlns="http://www.w3.org/2000/svg">
<path d="M356 196.84H0V197.018H356V196.84Z" fill="#EBEBEB"/>
<path d="M320.329 208.297H296.747V208.475H320.329V208.297Z" fill="#EBEBEB"/>
<path d="M235.828 210.232H229.641V210.41H235.828V210.232Z" fill="#EBEBEB"/>
<path d="M296.035 201.689H282.372V201.867H296.035V201.689Z" fill="#EBEBEB"/>
<path d="M68.1028 202.885H37.3516V203.063H68.1028V202.885Z" fill="#EBEBEB"/>
<path d="M78.9532 202.885H74.4463V203.063H78.9532V202.885Z" fill="#EBEBEB"/>
<path d="M160.307 205.889H93.6064V206.067H160.307V205.889Z" fill="#EBEBEB"/>
<path d="M108.303 68.9013C108.951 72.1053 105.07 75.6012 99.6377 76.6977C94.2052 77.7941 89.2781 76.0782 88.6302 72.8742C87.9823 69.6702 91.8627 66.1672 97.2953 65.0422C102.728 63.9172 107.655 65.6901 108.303 68.9013Z" fill="#D3B4AE"/>
<path d="M110.403 57.3875C110.836 56.7789 111.013 56.0246 110.895 55.2871C110.261 52.133 103.063 50.9368 94.7749 52.6029C86.4872 54.269 80.3213 58.185 80.9549 61.332C81.1404 62.0554 81.5966 62.6799 82.2294 63.0764C82.1316 63.4191 82.1146 63.7798 82.1796 64.1302C82.3633 64.8472 82.8243 65.4619 83.4612 65.839C83.3519 66.1916 83.3299 66.5654 83.3971 66.9283C83.4906 67.2833 83.6549 67.6157 83.88 67.9057C84.1051 68.1957 84.3865 68.4372 84.7072 68.6158C84.5845 68.9702 84.5551 69.3503 84.6217 69.7194C84.7168 70.0748 84.8841 70.4068 85.1131 70.6947C85.3422 70.9826 85.6282 71.2201 85.9532 71.3926C85.8133 71.7503 85.7763 72.1399 85.8464 72.5175C86.3733 75.1377 92.3754 76.1345 99.2462 74.7461C106.117 73.3577 111.265 70.111 110.738 67.4908C110.651 67.1159 110.464 66.7715 110.197 66.494C110.431 66.2114 110.603 65.883 110.702 65.5298C110.802 65.1766 110.826 64.8066 110.773 64.4435C110.695 64.0747 110.521 63.7333 110.268 63.4538C110.493 63.1636 110.657 62.8315 110.751 62.4768C110.845 62.1222 110.867 61.7523 110.816 61.389C110.738 61.0301 110.575 60.6953 110.339 60.4135C110.78 59.8188 110.966 59.0738 110.859 58.3416C110.781 57.9933 110.625 57.6671 110.403 57.3875Z" fill="#EBEBEB"/>
<path d="M117.159 26.8999C116.271 22.418 114.262 18.2341 111.32 14.7383C108.378 11.2425 104.599 8.54864 100.335 6.90799C96.0705 5.26734 91.4602 4.73333 86.9338 5.35574C82.4073 5.97816 78.1123 7.73674 74.4491 10.4675C70.7859 13.1982 67.8739 16.8122 65.9847 20.9723C64.0955 25.1325 63.2906 29.7033 63.645 34.2585C63.9995 38.8138 65.5018 43.2051 68.0118 47.0229C70.5218 50.8407 73.9578 53.9607 77.9993 56.0919C78.6469 56.4258 79.2021 56.9144 79.6157 57.5143C80.0293 58.1142 80.2885 58.8068 80.3703 59.5309C80.3703 59.6021 80.3703 59.6733 80.3703 59.7445C81.0182 62.9485 88.3518 64.166 96.7463 62.4714C105.141 60.7769 111.421 56.7754 110.773 53.607C110.773 53.5358 110.773 53.4717 110.723 53.4005C110.519 52.6944 110.492 51.9487 110.645 51.2296C110.797 50.5106 111.125 49.8403 111.599 49.2781C114.12 46.1897 115.926 42.5814 116.887 38.7123C117.849 34.8432 117.942 30.8092 117.159 26.8999Z" fill="#F5F5F5"/>
<path d="M100.527 57.2381H100.462C100.377 57.242 100.293 57.2122 100.229 57.1549C100.165 57.0977 100.126 57.0176 100.121 56.932C100.121 56.4051 99.4585 44.5004 104.585 38.7973L100.655 39.5876C100.593 39.603 100.528 39.5981 100.469 39.5738C100.41 39.5494 100.36 39.5069 100.327 39.4524L98.3763 36.6044L96.6532 43.4752C96.6371 43.5341 96.6055 43.5877 96.5617 43.6302C96.5179 43.6728 96.4634 43.7029 96.404 43.7172C96.3436 43.73 96.2808 43.7254 96.2228 43.704C96.1648 43.6826 96.1141 43.6452 96.0765 43.5962L91.8045 37.9002L89.9248 44.0163C89.9117 44.0746 89.8806 44.1272 89.8358 44.1669C89.7911 44.2065 89.7351 44.231 89.6756 44.237C89.6186 44.2465 89.5602 44.2418 89.5055 44.2231C89.4508 44.2045 89.4016 44.1726 89.3623 44.1302L85.2612 39.2032L84.5492 42.6208C84.5394 42.6833 84.51 42.7412 84.4652 42.786C84.4204 42.8308 84.3626 42.8602 84.3 42.87L80.028 43.7244C82.164 45.2552 89.0063 50.6735 90.6582 58.8615C90.6666 58.9031 90.6667 58.946 90.6586 58.9876C90.6504 59.0293 90.6342 59.0689 90.6107 59.1043C90.5872 59.1397 90.557 59.1701 90.5218 59.1938C90.4866 59.2175 90.447 59.234 90.4054 59.2424C90.3638 59.2508 90.321 59.251 90.2793 59.2428C90.2376 59.2347 90.198 59.2184 90.1626 59.1949C90.1272 59.1715 90.0968 59.1412 90.0731 59.106C90.0495 59.0708 90.0329 59.0313 90.0245 58.9896C88.1163 49.5628 79.1309 43.8881 79.0383 43.8383C78.983 43.8036 78.9393 43.7532 78.9128 43.6935C78.8864 43.6337 78.8784 43.5675 78.8899 43.5032C78.9013 43.4389 78.9318 43.3795 78.9773 43.3327C79.0228 43.2858 79.0812 43.2536 79.1451 43.2402L83.9227 42.279L84.7201 38.42C84.7309 38.3601 84.7588 38.3047 84.8005 38.2604C84.8422 38.2162 84.8959 38.185 84.9551 38.1708C85.0141 38.1537 85.0769 38.1547 85.1353 38.1737C85.1937 38.1928 85.245 38.229 85.2826 38.2776L89.4122 43.2117L91.3488 37.0672C91.3651 37.0089 91.3975 36.9564 91.4424 36.9158C91.4872 36.8752 91.5426 36.8481 91.6022 36.8377C91.6618 36.8273 91.7231 36.834 91.7791 36.8569C91.835 36.8799 91.8833 36.9182 91.9184 36.9675L96.1904 42.6635L97.9277 35.7785C97.9433 35.7188 97.9758 35.6648 98.0212 35.6232C98.0667 35.5815 98.1232 35.5538 98.184 35.5435C98.2448 35.5309 98.3081 35.5371 98.3653 35.5612C98.4225 35.5854 98.4711 35.6264 98.5044 35.6788L100.74 38.9255L105.511 37.9643C105.58 37.9476 105.654 37.9555 105.719 37.9866C105.784 38.0177 105.836 38.0702 105.867 38.1352C105.898 38.1984 105.907 38.2699 105.895 38.3392C105.882 38.4085 105.847 38.4717 105.795 38.5196C100.064 43.6247 100.761 56.7753 100.769 56.9106C100.771 56.9845 100.749 57.0571 100.705 57.1166C100.661 57.176 100.598 57.2189 100.527 57.2381Z" fill="#C8ACA7"/>
<path d="M177.999 228.995C254.242 228.995 316.049 225.386 316.049 220.935C316.049 216.483 254.242 212.875 177.999 212.875C101.756 212.875 39.9492 216.483 39.9492 220.935C39.9492 225.386 101.756 228.995 177.999 228.995Z" fill="#F5F5F5"/>
<path d="M262.999 31.7623C262.999 27.5971 260.821 23.8306 257.303 21.125C257.42 20.5749 257.48 20.0142 257.481 19.4518C257.481 13.8982 251.835 9.38416 244.808 9.256C242.672 3.8804 236.321 0 228.788 0C222.793 0 217.531 2.47776 214.548 6.20152C213.795 6.09853 213.036 6.0462 212.276 6.04488C205.114 6.04488 199.304 10.6159 199.304 16.255C199.303 17.2098 199.472 18.1572 199.802 19.0531C195.238 21.4526 192.227 25.5394 192.227 30.1817C192.227 34.653 195.018 38.6046 199.304 41.0326V41.175C199.304 46.6502 204.772 51.143 211.65 51.3708C215.438 55.0732 221.248 57.4442 227.762 57.4442C232.04 57.4811 236.253 56.396 239.98 54.2971C240.567 54.3629 241.156 54.3961 241.746 54.3968C248.909 54.3968 254.719 49.8258 254.719 44.1867V44.087C259.731 41.3814 262.999 36.8745 262.999 31.7623Z" fill="#D3B4AE"/>
<path d="M191.664 61.7441C191.664 62.6768 190.582 63.4315 189.251 63.4315C187.919 63.4315 186.837 62.6768 186.837 61.7441C186.837 60.8114 187.919 60.0566 189.251 60.0566C190.582 60.0566 191.664 60.8114 191.664 61.7441Z" fill="#D3B4AE"/>
<path d="M208.382 57.7164C208.382 60.4148 205.242 62.6007 201.369 62.6007C197.496 62.6007 194.377 60.4291 194.377 57.7164C194.377 55.0036 197.517 52.832 201.39 52.832C205.263 52.832 208.382 55.0392 208.382 57.7164Z" fill="#D3B4AE"/>
<path opacity="0.7" d="M262.999 31.7623C262.999 27.5971 260.821 23.8306 257.303 21.125C257.42 20.5749 257.48 20.0142 257.481 19.4518C257.481 13.8982 251.835 9.38416 244.808 9.256C242.672 3.8804 236.321 0 228.788 0C222.793 0 217.531 2.47776 214.548 6.20152C213.795 6.09853 213.036 6.0462 212.276 6.04488C205.114 6.04488 199.304 10.6159 199.304 16.255C199.303 17.2098 199.472 18.1572 199.802 19.0531C195.238 21.4526 192.227 25.5394 192.227 30.1817C192.227 34.653 195.018 38.6046 199.304 41.0326V41.175C199.304 46.6502 204.772 51.143 211.65 51.3708C215.438 55.0732 221.248 57.4442 227.762 57.4442C232.04 57.4811 236.253 56.396 239.98 54.2971C240.567 54.3629 241.156 54.3961 241.746 54.3968C248.909 54.3968 254.719 49.8258 254.719 44.1867V44.087C259.731 41.3814 262.999 36.8745 262.999 31.7623Z" fill="white"/>
<path opacity="0.7" d="M191.664 61.7441C191.664 62.6768 190.582 63.4315 189.251 63.4315C187.919 63.4315 186.837 62.6768 186.837 61.7441C186.837 60.8114 187.919 60.0566 189.251 60.0566C190.582 60.0566 191.664 60.8114 191.664 61.7441Z" fill="white"/>
<path opacity="0.7" d="M208.382 57.7164C208.382 60.4148 205.242 62.6007 201.369 62.6007C197.496 62.6007 194.377 60.4291 194.377 57.7164C194.377 55.0036 197.517 52.832 201.39 52.832C205.263 52.832 208.382 55.0392 208.382 57.7164Z" fill="white"/>
<path d="M227.967 10.3105C234.895 10.3105 239.181 13.5644 239.181 19.3529C239.181 27.1849 231.221 28.1889 231.221 34.2337H224.35C224.35 26.2807 230.708 25.8108 230.708 20.8553C230.708 18.7193 229.363 17.7011 227.092 17.7011C224.557 17.7011 223.211 19.1963 223.161 22.3006H216.084C216.134 14.7036 220.577 10.3105 227.967 10.3105ZM232.111 42.614C232.111 43.7866 231.645 44.9113 230.816 45.7405C229.987 46.5697 228.862 47.0355 227.69 47.0355C226.517 47.0355 225.392 46.5697 224.563 45.7405C223.734 44.9113 223.268 43.7866 223.268 42.614C223.268 41.4413 223.734 40.3167 224.563 39.4875C225.392 38.6583 226.517 38.1925 227.69 38.1925C228.862 38.1925 229.987 38.6583 230.816 39.4875C231.645 40.3167 232.111 41.4413 232.111 42.614Z" fill="#D3B4AE"/>
<path d="M72.7301 176.321C72.7301 176.321 68.0808 170.789 65.1117 173.373C62.1427 175.958 63.6379 181.426 67.0697 181.604C69.1139 181.724 71.1338 181.111 72.7657 179.874L72.7301 176.321Z" fill="#D3B4AE"/>
<path opacity="0.2" d="M72.7301 176.321C72.7301 176.321 68.0808 170.789 65.1117 173.373C62.1427 175.958 63.6379 181.426 67.0697 181.604C69.1139 181.724 71.1338 181.111 72.7657 179.874L72.7301 176.321Z" fill="white"/>
<path d="M91.6973 162.293C91.6973 162.293 95.599 158.199 98.0198 158.896C100.441 159.594 100.156 169.356 92.6869 165.404L91.6973 162.293Z" fill="#D3B4AE"/>
<path opacity="0.3" d="M91.6973 162.293C91.6973 162.293 95.599 158.199 98.0198 158.896C100.441 159.594 100.156 169.356 92.6869 165.404L91.6973 162.293Z" fill="white"/>
<path d="M77.7493 192.802C77.7493 192.802 64.9333 175.252 75.3356 171.699C85.7379 168.146 87.6034 185.818 84.5916 190.738C81.5798 195.658 77.7493 192.802 77.7493 192.802Z" fill="#D3B4AE"/>
<path d="M83.7015 156.868C83.7015 156.868 91.6617 138.392 79.871 137.836C68.0803 137.281 66.7987 156.156 80.3623 158.897L83.7015 156.868Z" fill="#D3B4AE"/>
<path opacity="0.3" d="M77.7493 192.802C77.7493 192.802 64.9333 175.252 75.3356 171.699C85.7379 168.146 87.6034 185.818 84.5916 190.738C81.5798 195.658 77.7493 192.802 77.7493 192.802Z" fill="white"/>
<path opacity="0.3" d="M83.7015 156.868C83.7015 156.868 91.6617 138.392 79.871 137.836C68.0803 137.281 66.7987 156.156 80.3623 158.897L83.7015 156.868Z" fill="white"/>
<path d="M80.8751 171.999C80.8751 171.999 77.009 155.687 84.4351 154.384C91.8613 153.081 99.2162 167.819 83.8299 175.231C83.837 175.231 81.2026 173.594 80.8751 171.999Z" fill="#D3B4AE"/>
<path opacity="0.2" d="M80.8751 171.999C80.8751 171.999 77.009 155.687 84.4351 154.384C91.8613 153.081 99.2162 167.819 83.8299 175.231C83.837 175.231 81.2026 173.594 80.8751 171.999Z" fill="white"/>
<path d="M79.7434 155.549C75.3005 152.303 72.2318 146.037 74.8448 140.754C74.738 141.245 74.6099 141.779 74.4888 142.27C73.6131 147.254 76.3543 152.053 79.7434 155.549Z" fill="#D3B4AE"/>
<path d="M76.8954 139.695C81.9719 140.684 84.2931 146.202 83.6736 150.937C83.5597 151.606 83.46 152.283 83.3319 152.938C83.3972 151.599 83.3805 150.258 83.282 148.922C82.9616 144.985 80.7971 141.14 76.874 139.666L76.8954 139.695Z" fill="#D3B4AE"/>
<path d="M85.9092 155.551C89.0277 156.655 90.822 160.208 90.5585 163.383C90.3022 165.719 88.9921 167.819 87.5396 169.571C86.3685 170.981 85.0322 172.245 83.5596 173.337C84.2146 172.696 84.8554 172.055 85.4464 171.372C87.2121 169.378 88.9565 167.185 89.7184 164.608C90.1964 162.886 90.0814 161.052 89.3918 159.403C88.7022 157.754 87.4781 156.385 85.9163 155.516L85.9092 155.551Z" fill="#D3B4AE"/>
<path d="M83.7015 156.869C84.4704 159.254 85.1255 162.117 83.9008 164.466C82.8613 165.99 82.7545 167.983 82.726 169.799C82.726 170.433 82.726 171.059 82.7688 171.7C82.4637 170.454 82.3248 169.173 82.3558 167.891C82.3338 166.568 82.6948 165.268 83.3953 164.146C84.5416 161.946 83.9934 159.254 83.7015 156.869Z" fill="#D3B4AE"/>
<path d="M78.4688 173.371C81.4734 174.994 82.6624 185.183 82.5556 188.515C82.4631 187.853 82.3634 187.198 82.2352 186.543C81.6656 183.282 81.0747 180.007 80.2132 176.817C79.8073 175.614 79.551 174.154 78.4688 173.371Z" fill="#D3B4AE"/>
<path d="M74.8228 173.936C74.0995 176.284 73.9887 178.779 74.5008 181.183C75.013 183.587 76.1312 185.82 77.7491 187.67C77.2746 187.263 76.8252 186.828 76.4034 186.367C74.9536 184.676 74.0311 182.598 73.7502 180.388C73.4692 178.179 73.8422 175.935 74.8228 173.936Z" fill="#D3B4AE"/>
<path d="M94.6953 164.28C96.0197 164.063 97.2546 163.472 98.2553 162.578C98.0132 164.109 96.0695 164.828 94.6953 164.28Z" fill="#D3B4AE"/>
<path d="M93.9258 161.589C94.5666 160.279 96.7738 159.453 97.6923 160.877C96.3822 160.3 95.1006 161.019 93.9258 161.589Z" fill="#D3B4AE"/>
<path d="M70.608 177.145C69.1128 176.091 67.5607 174.297 65.624 175.23C67.2047 173.357 69.896 175.465 70.608 177.145Z" fill="#D3B4AE"/>
<path d="M70.6083 179.866C68.636 180.578 64.7699 180.649 64.4922 177.9C65.6171 180.136 68.4794 179.645 70.6083 179.866Z" fill="#D3B4AE"/>
<path d="M61.8711 185.561H101.722L98.3896 211.057H65.1961L61.8711 185.561Z" fill="#3F4255"/>
<g opacity="0.2">
<path d="M101.722 185.562L100.554 194.477L100.483 195.039L99.8207 200.109L99.6498 201.426L99.1585 205.178L98.7669 208.183L98.3896 211.059H65.1961L64.8188 208.183L64.4272 205.178L63.943 201.426L63.765 200.109L63.11 195.039L63.0317 194.477L61.8711 185.562H101.722Z" fill="#FAFAFA"/>
</g>
<path opacity="0.2" d="M99.1591 205.178L98.7675 208.182H64.8193L64.4277 205.178H99.1591Z" fill="#FAFAFA"/>
<path opacity="0.2" d="M99.8223 200.107L99.6514 201.425H63.9446L63.7666 200.107H99.8223Z" fill="#FAFAFA"/>
<path opacity="0.2" d="M100.555 194.477L100.483 195.039H63.1105L63.0322 194.477H100.555Z" fill="#FAFAFA"/>
<path d="M272.767 172.965H264.458V190.003H272.767V172.965Z" fill="#3F4255"/>
<path d="M292.112 200.112C292.112 194.188 287.577 189.005 280.792 186.142V182.547H256.427V186.142C249.642 188.99 245.113 194.188 245.113 200.112C245.151 202.881 246.105 205.56 247.826 207.73V210.749H289.4V207.73C291.121 205.56 292.075 202.881 292.112 200.112Z" fill="#3F4255"/>
<path opacity="0.6" d="M292.112 200.112C292.112 194.188 287.577 189.005 280.792 186.142V182.547H256.427V186.142C249.642 188.99 245.113 194.188 245.113 200.112C245.151 202.881 246.105 205.56 247.826 207.73V210.749H289.4V207.73C291.121 205.56 292.075 202.881 292.112 200.112Z" fill="#FAFAFA"/>
<path d="M281.404 185.995H255.815C255.428 185.995 255.057 185.842 254.783 185.568C254.509 185.294 254.355 184.923 254.355 184.536V144.941H255.067V184.536C255.062 184.635 255.078 184.735 255.114 184.828C255.15 184.921 255.205 185.005 255.275 185.076C255.346 185.146 255.43 185.201 255.523 185.237C255.616 185.273 255.716 185.288 255.815 185.283H281.404C281.501 185.283 281.597 185.264 281.685 185.226C281.774 185.188 281.854 185.132 281.921 185.062C281.987 184.992 282.039 184.91 282.073 184.819C282.106 184.729 282.121 184.632 282.116 184.536V144.941H282.828V184.536C282.828 184.917 282.68 185.283 282.414 185.555C282.147 185.828 281.785 185.986 281.404 185.995Z" fill="#3F4255"/>
<path d="M293.523 177.899H243.704L254.633 135.592H282.594L293.523 177.899Z" fill="#D3B4AE"/>
<path opacity="0.2" d="M289.4 207.725H247.826V210.743H289.4V207.725Z" fill="#3F4255"/>
<path opacity="0.2" d="M280.792 182.541H256.428V186.137H280.792V182.541Z" fill="#3F4255"/>
<path opacity="0.6" d="M293.523 177.899H243.704L254.633 135.592H282.594L293.523 177.899Z" fill="#FAFAFA"/>
<path d="M191.486 116.671C197.794 124.866 204.522 133.474 212.668 139.704C214.115 140.838 215.745 141.717 217.488 142.303C217.609 142.339 217.488 142.403 217.345 142.502C217.203 142.602 217.26 142.588 217.26 142.645C217.26 142.702 217.039 142.844 216.982 142.894C216.249 143.581 215.796 144.514 215.708 145.514C215.708 145.713 215.751 145.699 215.751 145.571C215.316 142.296 213.33 139.071 211.649 136.016C204.85 124.531 196.299 113.802 188.089 103.122L194.497 96.8418C201.711 102.977 208.513 109.579 214.861 116.607C219.759 122.089 224.544 127.842 228.26 134.457C231.956 140.786 234.163 149.765 227.584 155.34C224.671 157.779 220.995 159.117 217.196 159.12C204.736 158.95 193.344 147.202 185.704 138.757C182.447 135.045 179.407 131.149 176.598 127.088L191.464 116.671H191.486Z" fill="#DC897C"/>
<path d="M173.373 89.3143L180.884 88.9512C181.719 88.9144 182.546 89.1383 183.248 89.592L194.882 97.1321L192.953 105.242C185.704 109.813 179.517 105.612 177.623 104.053C177.185 103.689 176.672 103.426 176.121 103.284L172.005 102.18C171.087 101.935 170.285 101.37 169.745 100.587C169.205 99.804 168.961 98.8543 169.058 97.9081L169.57 92.9241C169.664 91.9656 170.1 91.0729 170.798 90.4098C171.496 89.7467 172.41 89.3578 173.373 89.3143Z" fill="#E4897B"/>
<path d="M213.543 139.69L206.01 163.692C206.01 163.692 205.163 163.243 203.782 162.467C200.143 160.424 192.781 156.137 187.342 151.887C184.18 149.423 181.646 146.974 180.934 144.98C178.406 138.288 193.451 114.557 193.451 114.557C198.178 115.739 203.917 124.311 203.917 124.311C203.917 124.311 211.728 135.326 213.543 139.69Z" fill="#D3B4AE"/>
<path opacity="0.2" d="M203.782 162.468C200.144 160.424 192.782 156.138 187.342 151.887C187.203 148.503 187.463 145.114 188.118 141.791C188.118 141.791 200.208 148.64 203.782 162.468Z" fill="#3F4255"/>
<path d="M193.444 114.563C193.444 114.563 208.026 152.128 193.921 221.996L127.449 221.833C127.014 211.63 131.635 163.854 121.909 115.745C121.909 115.745 124.636 112.412 146.082 110.996C154.569 110.433 166.879 110.369 174.341 111.067C180.79 111.731 187.177 112.9 193.444 114.563Z" fill="#3F4255"/>
<path opacity="0.6" d="M199.924 172.779C199.831 175.32 199.703 177.933 199.532 180.611C199.382 182.796 199.219 185.039 199.019 187.332C198.77 190.066 198.485 192.878 198.129 195.762C197.859 198.135 197.55 200.537 197.204 202.967C196.781 205.924 196.307 208.948 195.78 212.038C195.224 215.271 194.612 218.589 193.921 222.006L127.449 221.842C127.349 219.621 127.492 215.62 127.677 210.23C127.755 208.094 127.834 205.687 127.912 203.11C127.962 201.237 128.012 199.244 128.054 197.172C128.097 194.865 128.14 192.437 128.154 189.895C128.154 187.925 128.154 185.889 128.154 183.786C128.154 181.358 128.118 178.852 128.061 176.282C128.061 174.373 127.976 172.437 127.912 170.465C127.677 163.451 127.257 156.025 126.559 148.343C125.596 137.401 124.039 126.52 121.896 115.747C121.896 115.747 124.63 112.415 146.104 110.998C154.591 110.436 166.894 110.365 174.37 111.069C180.818 111.739 187.205 112.908 193.473 114.565C193.473 114.565 201.248 134.651 199.924 172.779Z" fill="#637AC0"/>
<path opacity="0.2" d="M134.838 145.293C134.838 145.293 134.247 161.156 127.91 170.476C127.675 163.463 127.255 156.037 126.558 148.355C129.156 146.368 131.983 145.193 134.838 145.293Z" fill="#3F4255"/>
<g opacity="0.6">
<path d="M199.923 172.776C199.831 175.318 199.703 177.931 199.532 180.608L192.554 188.825L182.529 177.034L172.519 188.846L162.501 177.055L152.483 188.846L142.465 177.055L132.433 188.846L128.161 183.784C128.161 181.356 128.125 178.849 128.068 176.279L132.461 181.448L142.472 169.65L152.49 181.448L162.508 169.65L172.526 181.448L182.536 169.65L192.561 181.448L199.923 172.776Z" fill="#FAFAFA"/>
</g>
<g opacity="0.6">
<path d="M199.019 187.353C198.77 190.087 198.485 192.899 198.129 195.783L192.554 202.362L182.529 190.564L172.518 202.362L162.5 190.564L152.483 202.362L142.465 190.564L132.433 202.362L128.025 197.171C128.068 194.864 128.111 192.436 128.125 189.894L132.433 194.957L142.443 183.166L152.461 194.957L162.479 183.166L172.497 194.957L182.508 183.166L192.533 194.957L199.019 187.353Z" fill="#FAFAFA"/>
</g>
<g opacity="0.6">
<path d="M197.223 202.964C196.801 205.921 196.326 208.945 195.799 212.035L192.574 215.837L182.549 204.053L172.517 215.858L162.499 204.075L152.481 215.858L142.463 204.075L132.431 215.858L127.646 210.226C127.725 208.09 127.803 205.684 127.881 203.106L132.431 208.468L142.442 196.67L152.46 208.468L162.478 196.67L172.495 208.468L182.506 196.67L192.531 208.468L197.223 202.964Z" fill="#FAFAFA"/>
</g>
<path d="M145.248 81.6699C147.868 90.5628 151.193 106.982 145.426 113.617C154.447 116.465 160.941 118.388 168.922 124.297C171.015 118.495 173.571 110.969 173.571 110.969C163.247 109.502 162.806 101.99 163.91 94.7921L145.248 81.6699Z" fill="#E4897B"/>
<path opacity="0.2" d="M152.824 87.0312L163.867 94.7992C163.581 96.4734 163.448 98.1702 163.469 99.8686C159.56 99.6764 153.864 95.9384 153.073 91.9369C152.693 90.3304 152.609 88.668 152.824 87.0312Z" fill="#3F4255"/>
<path d="M137.665 111.673L144.037 105.686L161.111 111.545L168.573 123.016L171.357 111.389L175.216 107.907L181.973 112.044L180.926 119.413L176.042 117.021L170.139 126.682L156.946 118.936L153.265 122.467L137.665 111.673Z" fill="#D3B4AE"/>
<path opacity="0.2" d="M170.141 126.681L173.587 114.605L180.927 119.411L176.043 117.019L170.141 126.681Z" fill="#3F4255"/>
<path opacity="0.2" d="M170.14 126.683L158.513 115.291L153.266 122.468L156.947 118.936L170.14 126.683Z" fill="#3F4255"/>
<path d="M142.016 134.969C146.288 140.117 152.126 147.265 156.455 152.178C161.617 157.917 166.751 164.011 172.995 168.411C173.237 168.561 172.959 168.411 172.838 168.411C172.772 168.387 172.702 168.373 172.632 168.369C172.575 168.369 172.632 168.369 172.632 168.404C175.437 169.024 178.591 168.369 181.589 167.963C190.724 166.425 199.709 163.84 208.858 161.484L212.454 169.721C208.986 171.857 205.533 173.673 201.945 175.417C192.952 179.633 176.576 187.244 166.651 183.513C162.984 181.81 159.566 179.616 156.491 176.991C151.763 173.057 147.291 168.824 143.105 164.317C138.997 159.953 135.109 155.489 131.364 150.832C130.104 149.28 128.922 147.756 127.669 146.09L142.016 134.969Z" fill="#DC897C"/>
<path d="M116.014 123.976C108.73 147.059 141.453 169.658 141.453 169.658L158.94 149.779C158.94 149.779 151.236 135.539 142.507 122.88C133.372 109.637 119.851 111.83 116.014 123.976Z" fill="#D3B4AE"/>
<path d="M207.427 162.553L219.73 149.779L229.029 162.182C229.029 162.182 221.688 172.35 211.699 169.701L207.427 162.553Z" fill="#E4897B"/>
<path d="M231.728 145.863L236.448 156.771L229.029 162.182L219.73 149.779L231.728 145.863Z" fill="#E4897B"/>
<path d="M168.994 48.6402C175.323 51.1251 179.674 68.384 171.977 72.542C164.28 76.7001 156.997 43.941 168.994 48.6402Z" fill="#3F4255"/>
<path d="M141.688 68.9509C144.963 81.0549 146.273 88.2389 153.792 93.4437C165.07 101.276 179.068 93.0877 179.473 80.4069C179.844 69.0149 174.418 51.1509 161.389 48.3669C148.558 45.6115 138.427 56.8753 141.688 68.9509Z" fill="#E4897B"/>
<path d="M152.497 53.3887L151.159 42.7656C148.539 44.1915 145.537 44.7546 142.579 44.3747C129.763 42.1747 120.614 50.8539 126.915 57.5752C121.119 60.5158 124.907 68.476 129.208 73.4315C135.181 80.3308 141.312 83.3995 145.157 79.8395C148.717 77.8388 148.517 65.1936 147.029 60.6155C144.779 53.6806 152.497 53.3887 152.497 53.3887Z" fill="#3F4255"/>
<path d="M139.552 81.8394C141.648 84.1252 144.471 85.6146 147.541 86.0545C151.421 86.5173 152.105 82.9003 149.976 79.5539C148.054 76.5421 143.717 72.676 140.328 73.7582C136.939 74.8405 136.897 78.9701 139.552 81.8394Z" fill="#E4897B"/>
<path d="M160.236 69.1805C160.442 70.1701 161.14 70.8893 161.795 70.7753C162.45 70.6614 162.813 69.7643 162.607 68.7746C162.4 67.7849 161.703 67.0658 161.048 67.1726C160.393 67.2794 160.037 68.1837 160.236 69.1805Z" fill="#3F4255"/>
<path d="M171.543 67.2432C171.749 68.24 172.44 68.9519 173.095 68.838C173.75 68.7241 174.113 67.8341 173.906 66.8373C173.7 65.8405 173.002 65.1285 172.354 65.2424C171.706 65.3564 171.336 66.2606 171.543 67.2432Z" fill="#3F4255"/>
<path d="M168.852 68.3555C168.852 68.3555 172.312 73.6955 175.388 76.0379C173.964 77.9817 170.795 77.7468 170.795 77.7468L168.852 68.3555Z" fill="#DE5753"/>
<path d="M163.86 63.9681C163.955 64.005 164.038 64.0664 164.102 64.1461C164.15 64.2083 164.186 64.2793 164.206 64.3552C164.227 64.4311 164.233 64.5103 164.223 64.5884C164.213 64.6664 164.188 64.7417 164.148 64.81C164.109 64.8783 164.057 64.9382 163.995 64.9863C163.269 65.5794 162.407 65.984 161.486 66.1641C160.566 66.3442 159.616 66.2942 158.719 66.0187C158.645 65.9933 158.576 65.9531 158.518 65.9007C158.46 65.8482 158.412 65.7846 158.379 65.7134C158.346 65.6423 158.327 65.5652 158.325 65.4868C158.322 65.4083 158.335 65.3301 158.363 65.2568C158.418 65.1092 158.528 64.989 158.671 64.9223C158.813 64.8557 158.977 64.848 159.125 64.9008C159.832 65.1066 160.578 65.1363 161.299 64.9873C162.02 64.8384 162.694 64.5154 163.262 64.0464C163.344 63.9794 163.444 63.9367 163.55 63.9229C163.655 63.909 163.763 63.9247 163.86 63.9681Z" fill="#3F4255"/>
<path d="M174.804 61.826C174.71 61.8513 174.611 61.8528 174.517 61.8304C174.422 61.8081 174.335 61.7625 174.263 61.6978C173.705 61.1779 173.036 60.7918 172.307 60.5685C171.578 60.3452 170.808 60.2907 170.055 60.4091C169.976 60.4379 169.892 60.4498 169.809 60.4442C169.725 60.4385 169.644 60.4154 169.57 60.3763C169.496 60.3372 169.431 60.283 169.379 60.2172C169.327 60.1513 169.29 60.0754 169.269 59.9942C169.249 59.913 169.245 59.8285 169.26 59.7459C169.274 59.6634 169.305 59.5848 169.352 59.5152C169.398 59.4456 169.459 59.3865 169.53 59.3418C169.601 59.2971 169.68 59.2677 169.763 59.2557C170.702 59.0862 171.668 59.1383 172.584 59.4077C173.5 59.6772 174.341 60.1566 175.039 60.8078C175.157 60.912 175.229 61.0588 175.24 61.2162C175.251 61.3735 175.199 61.5287 175.096 61.648C175.017 61.7332 174.916 61.7948 174.804 61.826Z" fill="#3F4255"/>
<path d="M141.901 45.7629C141.901 45.7629 150.744 28.6749 167.206 32.1708C167.206 32.1708 164.059 32.8828 162.72 34.0718C162.72 34.0718 177.088 32.8187 181.567 42.9149L178.819 41.2986C178.819 41.2986 182.478 49.6646 178.192 55.1755L177.387 52.4058C177.387 52.4058 171.506 59.7038 162.727 57.6319L165.76 56.094C165.76 56.094 150.638 55.6312 146.892 51.7722C143.147 47.9131 141.901 45.7629 141.901 45.7629Z" fill="#3F4255"/>
<path d="M172.305 82.9645C172.239 82.9645 172.173 82.9513 172.112 82.9256C172.051 82.9 171.995 82.8624 171.949 82.815C169.72 80.4013 165.812 81.3269 165.776 81.3341C165.658 81.3496 165.539 81.3213 165.441 81.2546C165.342 81.1879 165.272 81.0875 165.243 80.9723C165.214 80.8572 165.228 80.7354 165.283 80.6301C165.338 80.5248 165.43 80.4434 165.541 80.4013C165.726 80.3586 170.034 79.3333 172.661 82.16C172.749 82.2504 172.799 82.3718 172.799 82.4982C172.799 82.6246 172.749 82.7459 172.661 82.8364C172.613 82.8802 172.557 82.9141 172.496 82.9361C172.435 82.9581 172.37 82.9678 172.305 82.9645Z" fill="#3F4255"/>
<path d="M296.035 210.744H54.6816V221.994H296.035V210.744Z" fill="#D3B4AE"/>
<path opacity="0.2" d="M296.035 210.744H54.6816V221.994H296.035V210.744Z" fill="#FAFAFA"/>
<path d="M299.645 210.744H51.7621C51.0129 210.744 50.2938 211.039 49.7607 211.566C49.2276 212.092 48.9234 212.807 48.9141 213.557C48.9234 214.306 49.2276 215.021 49.7607 215.547C50.2938 216.074 51.0129 216.369 51.7621 216.369H299.645C300.388 216.36 301.098 216.06 301.623 215.535C302.149 215.01 302.448 214.3 302.457 213.557C302.448 212.814 302.149 212.104 301.623 211.578C301.098 211.053 300.388 210.753 299.645 210.744Z" fill="#D3B4AE"/>
<path opacity="0.4" d="M299.645 210.744H51.7621C51.0129 210.744 50.2938 211.039 49.7607 211.566C49.2276 212.092 48.9234 212.807 48.9141 213.557C48.9234 214.306 49.2276 215.021 49.7607 215.547C50.2938 216.074 51.0129 216.369 51.7621 216.369H299.645C300.388 216.36 301.098 216.06 301.623 215.535C302.149 215.01 302.448 214.3 302.457 213.557C302.448 212.814 302.149 212.104 301.623 211.578C301.098 211.053 300.388 210.753 299.645 210.744Z" fill="#FAFAFA"/>
</svg>
