<svg width="28" height="33" viewBox="0 0 28 33" fill="none" xmlns="http://www.w3.org/2000/svg">
<path d="M15.6298 27.5124C16.4281 29.1807 15.748 31.1872 14.0463 32.0014C12.3447 32.8156 10.3555 32.0863 9.55725 30.4179C8.75902 28.7497 9.43915 26.7431 11.1408 25.9289C12.8424 25.1148 14.8316 25.8441 15.6298 27.5124ZM11.0795 22.2269L8.26484 23.5736C7.84765 23.7732 7.34719 23.6095 7.12872 23.2018L0.303157 10.4672C0.0700751 10.0323 0.247258 9.4908 0.692318 9.27785L4.7284 7.34666C5.17423 7.13335 5.70778 7.33613 5.89949 7.79167L11.5035 21.1107C11.6826 21.5363 11.4959 22.0276 11.0795 22.2269ZM25.3922 3.61021C27.9785 9.01547 21.797 11.5221 23.585 15.2591L23.5947 15.2793C23.801 15.7104 23.6187 16.2271 23.1876 16.4333L19.9108 18.0013C19.4797 18.2075 18.963 18.0253 18.7567 17.5942L18.6513 17.3738C15.8893 11.6015 21.3367 9.44609 20.0436 6.74347C19.4848 5.57569 18.282 5.29007 16.8473 5.97656C15.6801 6.53504 14.7315 7.61609 14.1464 9.17799C13.9965 9.57826 13.5701 9.80298 13.1527 9.71074L10.1911 9.0563C9.69192 8.94601 9.39227 8.42785 9.555 7.94324C10.4668 5.22755 12.2734 2.99852 15.3696 1.51704C20.2744 -0.829796 23.9713 0.64064 25.3922 3.61021ZM27.5411 21.8131C28.3393 23.4814 27.6593 25.4879 25.9577 26.3021C24.2893 27.1004 22.2668 26.3869 21.4686 24.7186C20.6703 23.0504 21.3838 21.0279 23.0521 20.2296C24.7537 19.4154 26.7428 20.1448 27.5411 21.8131Z" fill="#3F4255"/>
</svg>
