<svg width="24" height="29" viewBox="0 0 24 29" fill="none" xmlns="http://www.w3.org/2000/svg">
<path fill-rule="evenodd" clip-rule="evenodd" d="M16.3459 18.1048C16.1609 17.8187 16.0788 17.4782 16.1131 17.1392C16.1474 16.8003 16.296 16.4831 16.5346 16.2399C17.4465 15.3104 18.3434 14.1342 18.95 12.8047C19.9121 10.6993 20.1719 8.14076 18.532 5.60626C17.0828 3.36646 15.133 2.22506 13.0569 1.9488C11.0072 1.67602 8.90369 2.25626 7.10622 3.32189C5.40566 4.33018 3.80064 5.92519 2.83896 7.78552C1.88966 9.62356 1.59295 11.6584 2.34395 13.6889C2.41292 13.8755 2.5532 14.0271 2.73392 14.1103C2.91464 14.1935 3.121 14.2014 3.30761 14.1325C3.49421 14.0635 3.64578 13.9232 3.72896 13.7425C3.81214 13.5618 3.82012 13.3554 3.75115 13.1688C2.62766 10.1305 4.62669 6.53503 7.87114 4.61179C9.44858 3.67691 11.2165 3.21729 12.8603 3.43561C14.4791 3.6513 16.05 4.53141 17.2727 6.4211C18.5662 8.42036 18.3924 10.4159 17.5862 12.181C16.769 13.9693 15.321 15.4618 14.2164 16.2908C14.0646 16.4049 13.9617 16.5723 13.9285 16.7593C13.8953 16.9462 13.9342 17.1388 14.0374 17.2982L16.2057 20.6494C16.3138 20.8164 16.4837 20.9336 16.6782 20.9753C16.8727 21.017 17.0758 20.9797 17.2428 20.8716C17.4098 20.7636 17.5271 20.5936 17.5687 20.3991C17.6104 20.2046 17.5731 20.0015 17.4651 19.8345L16.3459 18.1048ZM19.0159 20.7955C19.1645 20.2107 19.0785 19.5669 18.7241 19.0191L17.6053 17.2899C18.6081 16.2677 19.6185 14.952 20.3148 13.4286C21.4321 10.9817 21.7768 7.85989 19.7914 4.79142C18.1153 2.20088 15.7875 0.798412 13.2562 0.462023C10.7982 0.135376 8.35776 0.835401 6.3409 2.03136C2.50499 4.30514 -0.912842 9.20627 0.936757 14.209C1.14375 14.7688 1.56464 15.2234 2.10682 15.4728C2.649 15.7223 3.26807 15.7461 3.82783 15.5391C4.38759 15.3321 4.8422 14.9113 5.09164 14.3691C5.34109 13.8269 5.36493 13.2078 5.15794 12.6481C4.38668 10.5628 5.72508 7.62792 8.63646 5.90231C9.99221 5.09836 11.4238 4.75812 12.6624 4.92324C13.8265 5.07672 15.0179 5.69762 16.0129 7.23532C16.9654 8.70753 16.8682 10.1408 16.2217 11.5578C15.5345 13.0609 14.2769 14.3686 13.3157 15.0906C12.8601 15.4326 12.5513 15.9347 12.4514 16.4955C12.3516 17.0563 12.4681 17.6342 12.7776 18.1124L14.9463 21.4642C15.1066 21.7126 15.3142 21.9269 15.5574 22.0949C15.8007 22.2629 16.0746 22.3813 16.3636 22.4432C16.6527 22.5052 16.9511 22.5095 17.2418 22.4559C17.5324 22.4023 17.8097 22.2919 18.0577 22.131C18.5346 21.8234 18.8772 21.3464 19.0163 20.7961L19.0159 20.7955ZM20.0984 22.0916C19.5012 22.1531 18.9365 22.3931 18.4777 22.7802C17.9181 23.2504 17.5495 23.9089 17.4414 24.6318C17.3334 25.3547 17.4932 26.0922 17.8909 26.7054C18.1807 27.1531 18.5847 27.5154 19.0612 27.755C19.5377 27.9946 20.0694 28.1029 20.6016 28.0686C21.1339 28.0344 21.6473 27.8589 22.0892 27.5602C22.531 27.2615 22.8852 26.8504 23.1154 26.3693C23.3455 25.8882 23.4432 25.3544 23.3984 24.8229C23.3536 24.2915 23.168 23.7816 22.8606 23.3458C22.5532 22.9099 22.1352 22.5639 21.6496 22.3434C21.164 22.1228 20.6284 22.0357 20.098 22.091L20.0984 22.0916ZM19.5948 23.8164C19.2608 24.0325 19.0263 24.3724 18.9429 24.7614C18.8596 25.1504 18.9341 25.5566 19.1502 25.8906C19.3663 26.2246 19.7063 26.4591 20.0953 26.5425C20.4843 26.6258 20.8905 26.5512 21.2245 26.3351C21.5585 26.119 21.7929 25.7791 21.8763 25.3901C21.9597 25.0011 21.8851 24.5949 21.669 24.2609C21.4529 23.9269 21.1129 23.6924 20.7239 23.6091C20.335 23.5257 19.9288 23.6003 19.5948 23.8164Z" fill="#54585F"/>
</svg>
