<svg width="18" height="25" viewBox="0 0 18 25" fill="none" xmlns="http://www.w3.org/2000/svg">
<path d="M8.86444 0C4.96703 0 2.44266 1.59683 0.46078 4.44463C0.101258 4.96123 0.212098 5.66953 0.713612 6.0498L2.81996 7.64692C3.32645 8.03096 4.04711 7.94116 4.44364 7.44438C5.66674 5.91211 6.57401 5.02988 8.48451 5.02988C9.98666 5.02988 11.8447 5.99663 11.8447 7.45327C11.8447 8.55444 10.9356 9.11997 9.45243 9.95151C7.72279 10.9212 5.43393 12.1281 5.43393 15.1471V15.625C5.43393 16.2722 5.95858 16.7969 6.6058 16.7969H10.1444C10.7916 16.7969 11.3163 16.2722 11.3163 15.625V15.3431C11.3163 13.2503 17.4329 13.1632 17.4329 7.5C17.4329 3.23516 13.009 0 8.86444 0ZM8.37514 18.2353C6.5101 18.2353 4.99276 19.7526 4.99276 21.6177C4.99276 23.4827 6.5101 25 8.37514 25C10.2402 25 11.7575 23.4827 11.7575 21.6176C11.7575 19.7526 10.2402 18.2353 8.37514 18.2353Z" fill="#D0D0D0"/>
</svg>
