<svg width="185" height="82" viewBox="0 0 185 82" fill="none" xmlns="http://www.w3.org/2000/svg">
<path d="M160.182 80.8206C156.105 81.6462 151.857 81.7845 147.833 81.2227L146.338 80.9761C145.849 80.8735 145.364 80.7505 144.864 80.6268C143.897 80.3989 142.967 80.1155 142.084 79.7798C140.377 79.1463 138.79 78.3884 137.35 77.5188C131.736 74.1046 128.519 69.9177 122.941 67.5502C120.415 66.3057 117.306 65.6483 114.05 65.6701C110.894 65.8675 107.881 66.8567 105.628 68.435C103.153 70.1519 100.888 71.9961 98.8591 73.9472C96.6707 76.1008 94.0169 78.0396 90.9923 79.6946C89.1982 80.62 87.1247 81.2582 84.9498 81.5544C82.7749 81.8506 80.5634 81.7959 78.505 81.3951C76.567 81.0043 74.7827 80.3707 73.2433 79.5268C71.8526 78.7754 70.5849 77.9305 69.458 77.004C67.2174 75.2473 65.543 73.441 63.4386 71.9278C61.4157 70.3983 59.0907 69.0596 56.5187 67.9434C54.0978 66.8604 51.3313 66.1359 48.3896 65.8145C45.5723 65.5494 42.6478 65.7585 39.8773 66.4231C34.3332 67.7104 29.4892 69.9678 24.51 71.6711C22.0392 72.5598 19.4194 73.2239 16.7262 73.6443C14.0941 74.0527 11.3971 73.9689 8.94185 73.4025C6.76008 72.9198 4.8605 72.042 3.44511 70.8624C2.31117 69.8627 1.49453 68.7123 1.0398 67.4742C0.367783 65.5807 0.161955 63.6056 0.430049 61.6228C0.580553 60.3939 0.859433 59.1671 1.26466 57.9513C1.5553 57.1247 1.78244 56.6889 1.87232 56.7028C1.9622 56.7168 1.64016 58.4632 1.57652 61.6069C1.53368 63.4997 1.90601 65.366 2.68178 67.1472C3.18894 68.2381 4.0085 69.2402 5.09761 70.1011C6.34551 71.0608 7.98857 71.7567 9.85106 72.1145C11.9188 72.5411 14.1698 72.5602 16.3444 72.1696C18.7695 71.7399 21.1167 71.0891 23.3168 70.2361C25.6532 69.3783 28.038 68.3568 30.5853 67.3729C33.2536 66.2754 36.0596 65.3486 38.9621 64.6061C39.7524 64.4413 40.5776 64.2573 41.3659 64.1028C42.1541 63.9483 43.0351 63.87 43.8897 63.77C45.645 63.6192 47.4056 63.6138 49.1305 63.7538C52.5929 64.0715 55.8666 64.8659 58.7477 66.0876C61.6022 67.2815 64.1921 68.7212 66.4565 70.373C67.5924 71.1744 68.6657 72.056 69.6665 72.914C70.6673 73.772 71.6549 74.6191 72.6988 75.4168C74.5466 77.026 77.058 78.2365 79.9634 78.9183C81.3527 79.1718 82.84 79.1892 84.2946 78.9689C85.7602 78.7445 87.1495 78.2931 88.3459 77.6524C90.9625 76.1492 93.2477 74.4057 95.1227 72.4821C97.2646 70.3855 99.6657 68.4045 102.298 66.5619C103.814 65.5349 105.555 64.6682 107.452 63.9962C109.475 63.2718 111.676 62.8314 113.908 62.7044C116.16 62.6005 118.389 62.7853 120.473 63.2487C122.429 63.6758 124.276 64.2721 125.97 65.023C129.094 66.4421 131.867 68.1638 134.206 70.1369C136.318 71.9172 138.611 73.5965 141.07 75.1644C142.245 75.8725 143.539 76.4902 144.931 77.0071C145.601 77.2578 146.309 77.4665 147.045 77.6306C147.414 77.718 147.765 77.8149 148.135 77.892L149.275 78.0622C152.373 78.4753 155.637 78.347 158.76 77.6894C164.868 76.4815 170.244 73.8259 173.829 70.2456C176.965 66.8327 178.747 62.9953 178.997 59.1215C179.274 55.4749 178.928 51.85 177.967 48.3164C176.452 42.3527 174.106 36.535 170.958 30.936C168.661 26.8441 165.971 22.8711 162.902 19.0401C159.434 14.8158 155.618 10.7338 151.468 6.8112C150.235 5.81603 149.233 4.69891 148.492 3.4931C147.139 3.95351 146.072 4.735 145.519 5.67068C144.65 6.83616 143.814 8.06509 143.078 9.18419C141.583 11.4628 140.389 13.5467 139.428 15.3191C137.509 18.8536 136.437 21.0976 135.78 21.0607C135.124 21.0239 135.104 18.6737 136.249 14.9217C136.959 12.7195 137.915 10.5439 139.109 8.41337C139.774 7.1879 140.513 5.97579 141.417 4.63579C141.929 3.8767 142.593 3.16142 143.391 2.51102C144.44 1.68523 145.82 1.0731 147.346 0.755948C148.834 0.485006 150.37 0.437316 151.839 0.616448C152.996 0.750401 154.137 0.927716 155.255 1.14757C157.353 1.54275 159.351 1.97528 161.177 2.42154C164.464 3.21658 167.637 4.1819 170.667 5.30913C175.809 7.23467 178.429 8.87215 178.074 9.17864C177.718 9.48513 174.392 8.51258 169.037 7.10626C166.351 6.40793 163.156 5.62697 159.504 4.88967C157.679 4.51589 155.758 4.15892 153.739 3.82905C153.248 3.73678 152.768 3.66566 152.242 3.59268C152.87 4.00097 153.594 4.54765 154.653 5.27344C159.495 9.02239 163.767 13.0892 167.416 17.4214C175.324 26.6725 180.739 36.8578 183.436 47.5539C184.459 51.3312 184.811 55.2073 184.485 59.1049C184.169 63.5371 182.089 67.9215 178.457 71.8089C174.066 76.17 167.471 79.3834 160 80.803" fill="url(#paint0_linear_2002_37657)"/>
<defs>
<linearGradient id="paint0_linear_2002_37657" x1="104.967" y1="-1.32231" x2="101.582" y2="82.5416" gradientUnits="userSpaceOnUse">
<stop stop-color="#EE8425"/>
<stop offset="1" stop-color="#FF661A"/>
</linearGradient>
</defs>
</svg>
