<svg width="71" height="71" viewBox="0 0 71 71" fill="none" xmlns="http://www.w3.org/2000/svg">
<path d="M66.5904 54.3596H4.07701C2.99589 54.3584 1.95963 53.9282 1.19518 53.1644C0.431351 52.4 0.00121144 51.3637 0 50.2826V4.07701C0.0012133 2.99589 0.431351 1.95963 1.19518 1.19518C1.95961 0.43135 2.99588 0.00121144 4.07701 0H66.5904C67.6715 0.0012133 68.7078 0.43135 69.4722 1.19518C70.2361 1.95961 70.6662 2.99588 70.6674 4.07701V50.2826C70.6662 51.3637 70.2361 52.4 69.4722 53.1644C68.7078 53.9282 67.6716 54.3584 66.5904 54.3596ZM4.07701 2.71807C3.32654 2.71867 2.71863 3.32658 2.71802 4.07705V50.2826C2.71863 51.0331 3.32654 51.641 4.07701 51.6416H66.5904C67.3409 51.641 67.9488 51.0331 67.9494 50.2826V4.07705C67.9488 3.32658 67.3409 2.71867 66.5904 2.71807H4.07701Z" fill="#54585F"/>
<path d="M46.2052 65.2305H24.4614C24.0155 65.2305 23.5981 65.0115 23.3445 64.645C23.0909 64.2786 23.0327 63.8108 23.1886 63.3934L27.2656 52.5215C27.4652 51.9919 27.9724 51.6406 28.5384 51.6406H42.1283C42.6943 51.6406 43.2015 51.9919 43.4011 52.5215L47.4781 63.3934C47.634 63.8108 47.5758 64.2786 47.3222 64.645C47.0686 65.0115 46.6512 65.2305 46.2052 65.2305ZM26.4215 62.5125H44.2436L41.1858 54.3586H29.4791L26.4215 62.5125Z" fill="#54585F"/>
<path d="M69.3083 43.4875H1.35899C0.608516 43.4875 0 42.879 0 42.1285C0 41.378 0.608516 40.7695 1.35899 40.7695H69.3083C70.0588 40.7695 70.6673 41.378 70.6673 42.1285C70.6673 42.879 70.0588 43.4875 69.3083 43.4875Z" fill="#54585F"/>
<path d="M38.0518 48.9231H32.6158C31.8654 48.9231 31.2568 48.3145 31.2568 47.5641C31.2568 46.8136 31.8654 46.2051 32.6158 46.2051H38.0518C38.8022 46.2051 39.4108 46.8136 39.4108 47.5641C39.4108 48.3145 38.8022 48.9231 38.0518 48.9231Z" fill="#54585F"/>
<path d="M48.9241 70.6675H21.7443C21.0236 70.6669 20.3332 70.38 19.8236 69.8703C19.314 69.3607 19.027 68.6703 19.0264 67.9496V65.2316C19.027 64.5109 19.3139 63.8205 19.8236 63.3109C20.3332 62.8013 21.0236 62.5143 21.7443 62.5137H48.9241C49.6448 62.5143 50.3352 62.8013 50.8448 63.3109C51.3544 63.8205 51.6414 64.5109 51.642 65.2316V67.9496C51.6414 68.6703 51.3544 69.3607 50.8448 69.8703C50.3352 70.3799 49.6448 70.6669 48.9241 70.6675ZM21.7443 65.2316V67.9496H48.9256L48.9238 65.2316H21.7443Z" fill="url(#paint0_linear_2212_15434)"/>
<path d="M20.3846 28.5391C19.3035 28.5379 18.2672 28.1077 17.5028 27.3439C16.739 26.5795 16.3088 25.5432 16.3076 24.4621C16.3076 23.7116 16.9161 23.1031 17.6666 23.1031C18.4171 23.1031 19.0256 23.7116 19.0256 24.4621C19.0256 25.2125 19.6341 25.821 20.3846 25.821C21.1351 25.821 21.7436 25.2125 21.7436 24.4621V23.9185C21.7436 23.4683 21.3783 23.1031 20.9282 23.1031H19.841C18.9043 23.1019 18.0058 22.7294 17.3439 22.0668C16.6814 21.4049 16.3088 20.5064 16.3076 19.5697V19.0261C16.3076 17.5695 17.0848 16.2238 18.3461 15.4952C19.6074 14.7672 21.1618 14.7672 22.4231 15.4952C23.6844 16.2239 24.4616 17.5694 24.4616 19.0261C24.4616 19.7766 23.853 20.3851 23.1026 20.3851C22.3521 20.3851 21.7436 19.7766 21.7436 19.0261C21.7436 18.2757 21.1351 17.6671 20.3846 17.6671C19.6341 17.6671 19.0256 18.2757 19.0256 19.0261V19.5697C19.0256 20.0199 19.3908 20.3851 19.841 20.3851H20.9282C21.8649 20.3863 22.7634 20.7588 23.4253 21.4213C24.0878 22.0832 24.4603 22.9818 24.4615 23.9185V24.4621C24.4603 25.5432 24.0302 26.5794 23.2664 27.3439C22.5019 28.1077 21.4657 28.5379 20.3845 28.5391H20.3846Z" fill="url(#paint1_linear_2212_15434)"/>
<path d="M20.3854 17.6665C19.6349 17.6665 19.0264 17.058 19.0264 16.3075V15.2203C19.0264 14.4698 19.6349 13.8613 20.3854 13.8613C21.1358 13.8613 21.7443 14.4698 21.7443 15.2203V16.3075C21.7443 16.6679 21.6012 17.0137 21.3464 17.2685C21.0915 17.5233 20.7457 17.6665 20.3854 17.6665Z" fill="url(#paint2_linear_2212_15434)"/>
<path d="M20.3854 29.6255C19.6349 29.6255 19.0264 29.017 19.0264 28.2665V27.1793C19.0264 26.4288 19.6349 25.8203 20.3854 25.8203C21.1358 25.8203 21.7443 26.4288 21.7443 27.1793V28.2665C21.7443 28.6269 21.6012 28.9727 21.3464 29.2275C21.0915 29.4823 20.7457 29.6255 20.3854 29.6255Z" fill="url(#paint3_linear_2212_15434)"/>
<path d="M20.385 33.9694C16.3007 33.97 12.4853 31.931 10.2162 28.5347C7.94721 25.1385 7.52305 20.8334 9.08652 17.0598C10.6499 13.2867 13.9941 10.5427 18.0007 9.74669C22.0067 8.95011 26.1455 10.2066 29.0333 13.0955C31.3278 15.3883 32.6177 18.4987 32.6177 21.7427C32.6183 24.9868 31.329 28.0978 29.0346 30.3912C26.7406 32.6839 23.6289 33.9713 20.3851 33.9694H20.385ZM20.385 12.235C17.4286 12.2374 14.642 13.614 12.8438 15.96C11.0455 18.3066 10.4406 21.3559 11.2075 24.211C11.9744 27.0655 14.0257 29.4018 16.7569 30.5314C19.4888 31.6611 22.5907 31.456 25.1498 29.9763C27.7094 28.4972 29.4349 25.9115 29.8195 22.9806C30.2035 20.0496 29.203 17.1066 27.1117 15.0172C25.3287 13.2323 22.908 12.2312 20.3848 12.2349L20.385 12.235Z" fill="url(#paint4_linear_2212_15434)"/>
<path d="M59.7951 33.9742H39.4103C38.6896 33.9736 37.9992 33.6866 37.4896 33.177C36.98 32.6674 36.693 31.9769 36.6924 31.2562V28.5383C36.693 27.8175 36.98 27.1271 37.4896 26.6175C37.9992 26.1079 38.6896 25.8209 39.4103 25.8203H59.7951C60.5159 25.8209 61.2063 26.1079 61.7159 26.6175C62.2255 27.1271 62.5125 27.8175 62.5131 28.5383V31.2562C62.5125 31.977 62.2255 32.6674 61.7159 33.177C61.2063 33.6866 60.5158 33.9736 59.7951 33.9742ZM39.4103 28.5382V31.2562H59.7967L59.7949 28.5382H39.4103Z" fill="#54585F"/>
<path d="M61.1542 12.2316H38.0514C37.3009 12.2316 36.6924 11.6231 36.6924 10.8727C36.6924 10.1222 37.3009 9.51367 38.0514 9.51367H61.1542C61.9046 9.51367 62.5131 10.1222 62.5131 10.8727C62.5131 11.6231 61.9046 12.2316 61.1542 12.2316Z" fill="#54585F"/>
<path d="M61.1542 17.6672H38.0514C37.3009 17.6672 36.6924 17.0587 36.6924 16.3082C36.6924 15.5577 37.3009 14.9492 38.0514 14.9492H61.1542C61.9046 14.9492 62.5131 15.5577 62.5131 16.3082C62.5131 17.0587 61.9046 17.6672 61.1542 17.6672Z" fill="#54585F"/>
<path d="M61.1542 23.1027H38.0514C37.3009 23.1027 36.6924 22.4942 36.6924 21.7438C36.6924 20.9933 37.3009 20.3848 38.0514 20.3848H61.1542C61.9046 20.3848 62.5131 20.9933 62.5131 21.7438C62.5131 22.4942 61.9046 23.1027 61.1542 23.1027Z" fill="#54585F"/>
<defs>
<linearGradient id="paint0_linear_2212_15434" x1="35.3342" y1="62.5137" x2="35.3342" y2="70.6675" gradientUnits="userSpaceOnUse">
<stop stop-color="#EE8425"/>
<stop offset="1" stop-color="#FF661A"/>
</linearGradient>
<linearGradient id="paint1_linear_2212_15434" x1="20.3846" y1="14.9492" x2="20.3846" y2="28.5391" gradientUnits="userSpaceOnUse">
<stop stop-color="#EE8425"/>
<stop offset="1" stop-color="#FF661A"/>
</linearGradient>
<linearGradient id="paint2_linear_2212_15434" x1="20.3854" y1="13.8613" x2="20.3854" y2="17.6665" gradientUnits="userSpaceOnUse">
<stop stop-color="#EE8425"/>
<stop offset="1" stop-color="#FF661A"/>
</linearGradient>
<linearGradient id="paint3_linear_2212_15434" x1="20.3854" y1="25.8203" x2="20.3854" y2="29.6255" gradientUnits="userSpaceOnUse">
<stop stop-color="#EE8425"/>
<stop offset="1" stop-color="#FF661A"/>
</linearGradient>
<linearGradient id="paint4_linear_2212_15434" x1="20.3865" y1="9.51172" x2="20.3865" y2="33.9694" gradientUnits="userSpaceOnUse">
<stop stop-color="#EE8425"/>
<stop offset="1" stop-color="#FF661A"/>
</linearGradient>
</defs>
</svg>
