<svg width="76" height="82" viewBox="0 0 76 82" fill="none" xmlns="http://www.w3.org/2000/svg">
<path d="M64.2994 81.6382C60.5495 81.6382 52.7478 81.6382 52.7478 75.8273V58.8332C52.7478 55.1371 56.1182 51.901 60.6638 50.7453C58.4425 49.4158 56.9535 46.987 56.9535 44.2166C56.9535 40.0245 60.3634 36.6139 64.5562 36.6139C68.7483 36.6139 72.1589 40.0238 72.1589 44.2166C72.1589 47.0539 70.5973 49.5327 68.2872 50.8394C72.6545 52.0697 75.8523 55.2353 75.8523 58.8345V75.8287C75.8503 81.6382 68.0498 81.6382 64.2994 81.6382ZM59.1214 79.0427C60.4678 79.26 62.1772 79.3618 64.2994 79.3618C66.6043 79.3618 68.4247 79.2425 69.8183 78.9844V63.039C69.8183 62.4092 70.3281 61.9001 70.9571 61.9001C71.5869 61.9001 72.096 62.4099 72.096 63.039V78.2464C73.118 77.6848 73.574 76.8916 73.574 75.8261L73.5746 58.8319C73.5746 56.5225 71.4967 54.4082 68.577 53.3272C68.112 54.3675 67.1619 56.0251 65.3344 58.7775C64.9115 59.4137 63.8596 59.4137 63.4367 58.7775C61.5774 55.9778 60.6273 54.3111 60.1694 53.2746C57.1738 54.3389 55.0259 56.4842 55.0259 58.8326V75.8268C55.0259 77.0045 55.585 77.8489 56.8457 78.4164V63.0378C56.8457 62.4081 57.3555 61.899 57.9846 61.899C58.6143 61.899 59.1234 62.4087 59.1234 63.0378V79.0416L59.1214 79.0427ZM62.416 52.713C62.8369 53.5341 63.5866 54.7921 64.3842 56.0543C65.1754 54.8045 65.9154 53.5588 66.3395 52.7376C65.0696 52.5294 63.693 52.5211 62.416 52.713ZM64.5549 38.8909C61.6189 38.8909 59.2292 41.2795 59.2292 44.2166C59.2292 47.1537 61.6178 49.5423 64.5549 49.5423C67.492 49.5423 69.8806 47.1537 69.8806 44.2166C69.8806 41.2795 67.4913 38.8909 64.5549 38.8909ZM11.7228 81.6387C7.973 81.6387 0.171875 81.6387 0.171875 75.8278V58.8337C0.171875 55.1376 3.54232 51.9015 8.08656 50.7458C5.86533 49.4163 4.37692 46.9875 4.37692 44.2171C4.37692 40.025 7.78688 36.6144 11.9796 36.6144C16.1717 36.6144 19.5824 40.0243 19.5824 44.2171C19.5824 47.0544 18.0207 49.5343 15.7107 50.8399C20.078 52.0702 23.2757 55.2358 23.2757 58.835V75.8292C23.2738 81.6387 15.4726 81.6387 11.7228 81.6387ZM6.54486 79.0432C7.88992 79.2605 9.60069 79.3623 11.7215 79.3623C14.0264 79.3623 15.8468 79.243 17.2411 78.9842L17.2418 63.0395C17.2418 62.4097 17.7515 61.9006 18.3806 61.9006C19.0103 61.9006 19.5194 62.4104 19.5194 63.0395V78.2469C20.5415 77.6853 20.9974 76.8921 20.9974 75.8266L20.998 58.8324C20.998 56.523 18.9201 54.4087 16.0004 53.3277C15.5354 54.3693 14.5853 56.0256 12.7578 58.778C12.3349 59.4142 11.283 59.4142 10.8601 58.778C9.00083 55.9783 8.04935 54.3116 7.59279 53.2751C4.59722 54.3394 2.44937 56.4834 2.44937 58.8331V75.8273C2.44937 77.005 3.00711 77.8494 4.26916 78.4169V63.0383C4.26916 62.4086 4.7789 61.8995 5.40798 61.8995C6.03771 61.8995 6.54681 62.4092 6.54681 63.0383V79.0422L6.54486 79.0432ZM9.83877 52.7135C10.2597 53.5346 11.0081 54.7926 11.807 56.0547C12.5982 54.805 13.3382 53.5592 13.7622 52.7381C12.4931 52.5286 11.1158 52.5203 9.83877 52.7135ZM11.9783 38.8914C9.04236 38.8914 6.65261 41.28 6.65261 44.2171C6.65261 47.1542 9.04119 49.5428 11.9783 49.5428C14.9154 49.5428 17.304 47.1542 17.304 44.2171C17.304 41.28 14.9148 38.8914 11.9783 38.8914ZM37.3288 45.0243C33.579 45.0243 25.7772 45.0243 25.7772 39.2135L25.7766 22.2193C25.7766 18.5447 29.108 15.3235 33.614 14.1502C31.3741 12.8252 29.87 10.3854 29.87 7.6014C29.87 3.4093 33.28 0 37.4728 0C41.6649 0 45.0755 3.4093 45.0755 7.6014C45.0755 10.4231 43.53 12.8907 41.2413 14.2035C45.6461 15.4188 48.8818 18.5998 48.8818 22.2193V39.2135C48.8798 45.0243 41.078 45.0243 37.3288 45.0243ZM32.1509 42.4282C33.4959 42.6455 35.206 42.7473 37.3275 42.7473C39.6324 42.7473 41.4515 42.6279 42.8464 42.3698V26.1689C42.8464 25.5392 43.3562 25.0301 43.9853 25.0301C44.615 25.0301 45.1241 25.5398 45.1241 26.1689V41.6343C46.1468 41.0727 46.6034 40.2796 46.6034 39.2134V22.2192C46.6034 19.8826 44.4788 17.7482 41.5091 16.6782C41.05 17.7165 40.0986 19.3799 38.2502 22.1634C37.8274 22.7996 36.7755 22.7996 36.3526 22.1634C34.5134 19.3948 33.5632 17.7339 33.1015 16.6949C30.1559 17.7708 28.0541 19.8947 28.0541 22.2185V39.2127C28.0541 40.3905 28.6131 41.2349 29.8745 41.803L29.8752 26.1689C29.8752 25.5392 30.3849 25.0301 31.014 25.0301C31.6437 25.0301 32.1528 25.5398 32.1528 26.1689V42.4283L32.1509 42.4282ZM35.341 16.1151C35.7639 16.9368 36.5077 18.1866 37.3009 19.44C38.0967 18.1819 38.8425 16.9289 39.2646 16.1073C37.989 15.9082 36.6128 15.9108 35.341 16.1151ZM37.4721 2.27735C34.5361 2.27735 32.1464 4.66593 32.1464 7.60173C32.1464 10.5377 34.535 12.9274 37.4721 12.9274C40.4092 12.9274 42.7978 10.5389 42.7978 7.60173C42.7965 4.66576 40.4079 2.27735 37.4721 2.27735Z" fill="#54585F"/>
<path d="M29.0799 68.3829C28.6869 68.3829 28.3042 68.1786 28.0935 67.8148C27.7776 67.2707 27.9631 66.5735 28.5072 66.2583L37.0218 61.3224V51.5685C37.0218 50.9388 37.5315 50.4297 38.1606 50.4297C38.7903 50.4297 39.2994 50.9394 39.2994 51.5685V61.5085L47.5053 66.2103C48.0514 66.5229 48.2401 67.2181 47.9262 67.7648C47.6136 68.3109 46.9177 68.5003 46.3717 68.1857L37.9991 63.3891L29.6493 68.2284C29.4703 68.3328 29.2745 68.3829 29.0799 68.3829Z" fill="url(#paint0_linear_2212_15537)"/>
<defs>
<linearGradient id="paint0_linear_2212_15537" x1="38.0087" y1="50.4297" x2="38.0087" y2="68.3829" gradientUnits="userSpaceOnUse">
<stop stop-color="#EE8425"/>
<stop offset="1" stop-color="#FF661A"/>
</linearGradient>
</defs>
</svg>
