<svg width="147" height="535" viewBox="0 0 147 535" fill="none" xmlns="http://www.w3.org/2000/svg">
<path d="M36.6771 235.786L26.8714 255.034C26.8714 255.034 3.58427 212.837 1.71403 207.408C-0.15621 201.979 1.71403 194.926 1.71403 194.926C2.89592 191.602 4.09079 187.913 5.1428 184.471C7.29878 177.562 8.92225 171.652 8.92225 171.652L21.7152 177.445V195.849L23.7933 201.394L36.6771 235.786Z" fill="#F8947C"/>
<path d="M23.793 201.394C14.26 196.849 8.16873 189.134 5.14258 184.471C7.29855 177.562 8.92202 171.652 8.92202 171.652L21.715 177.445V195.849L23.793 201.394Z" fill="#EA7B65"/>
<path d="M37.4308 107.037C37.4308 107.037 24.7807 109.7 18.8323 124.389C12.8709 139.091 0 174.664 0 174.664C0 174.664 12.3514 181.496 27.3133 180.444C42.2752 179.392 37.4308 107.037 37.4308 107.037Z" fill="#D3B4AE"/>
<path d="M111.136 474.205V474.218C110.266 479.634 109.383 484.556 108.5 488.907C108.5 488.907 94.5119 494.128 82.2904 488.907C82.2904 488.907 80.6539 464.412 78.5109 432.462C74.8484 378.186 69.6792 302.377 68.4584 288.428C67.4973 299.169 64.2244 346.6 61.0943 392.642C61.0943 392.642 61.0943 392.642 61.0943 392.655C57.7695 441.58 54.6134 488.907 54.6134 488.907C42.3919 494.128 28.4041 488.907 28.4041 488.907C27.5209 484.556 26.6377 479.634 25.7676 474.218V474.205C23.4817 462.464 21.9492 448.944 20.9491 434.437C16.5332 369.641 23.1051 285.038 23.4687 249.854C23.4947 246.906 23.4817 244.308 23.4038 242.101C23.3778 241.113 23.3388 240.204 23.2869 239.373C23.2739 239.178 23.2609 238.983 23.2479 238.802C23.0401 235.438 22.9362 231.334 22.9362 231.334L68.3285 230.957H68.5753L113.968 231.334C113.968 231.334 113.864 235.438 113.656 238.802C113.643 238.983 113.63 239.178 113.617 239.373C113.578 239.971 113.552 240.62 113.526 241.308C113.422 244.023 113.409 247.374 113.474 251.283C113.825 276.012 116.903 322.949 117.409 370.654C117.799 408.214 116.578 446.229 111.136 474.205Z" fill="#637AC0"/>
<path d="M52.7177 484.61L62.3416 520.508C62.3416 520.508 58.4842 526.989 39.4052 526.638C20.3132 526.288 16.9883 521.911 16.9883 521.911C16.9883 521.911 19.2611 515.339 23.1185 509.832C26.9759 504.312 29.6903 490.13 29.0669 487.324C28.4565 484.519 52.7177 484.61 52.7177 484.61Z" fill="#EBCDC5"/>
<path d="M52.2076 511.292C52.0518 511.292 51.8959 511.266 51.7401 511.201C44.7656 508.5 36.7392 508.474 27.8815 511.162L27.6217 511.24C26.9334 511.448 26.2061 511.058 25.9983 510.37C25.7905 509.681 26.1801 508.954 26.8685 508.746L27.1152 508.668C36.5314 505.811 45.1293 505.85 52.6622 508.772C53.3246 509.032 53.6622 509.785 53.4025 510.448C53.2207 510.98 52.7271 511.292 52.2076 511.292Z" fill="#A77473"/>
<path d="M50.4161 504.709C50.2992 504.709 50.1823 504.696 50.0654 504.657C43.5845 502.813 33.0515 504.358 30.9994 504.696C30.298 504.813 29.6227 504.332 29.5058 503.618C29.3889 502.904 29.8694 502.241 30.5838 502.124C33.5969 501.644 43.9352 500.215 50.7668 502.163C51.4551 502.358 51.8578 503.073 51.6629 503.774C51.5071 504.345 50.9876 504.709 50.4161 504.709Z" fill="#A77473"/>
<path d="M48.2873 499.248C48.2093 499.248 48.1314 499.235 48.0405 499.222C42.9363 498.261 34.6631 499.066 33.0526 499.235C32.3383 499.313 31.7019 498.793 31.6239 498.079C31.546 497.364 32.0655 496.728 32.7799 496.65C35.1306 496.403 43.1961 495.663 48.5211 496.663C49.2224 496.793 49.69 497.468 49.5601 498.183C49.4562 498.819 48.9107 499.248 48.2873 499.248Z" fill="#A77473"/>
<path d="M62.3399 520.669C62.3399 520.669 64.2361 525.786 62.3399 528.916C62.3399 528.916 38.1436 541.15 16.9865 528.202C16.9865 528.202 15.415 524.409 16.9865 522.175C18.2983 520.305 47.9104 518.902 57.4954 518.5C59.3527 518.435 61.145 519.24 62.3399 520.669Z" fill="#FBE4DE"/>
<path d="M84.3147 484.61L74.6777 520.508C74.6777 520.508 78.5351 526.989 97.6142 526.638C116.706 526.288 120.031 521.911 120.031 521.911C120.031 521.911 117.758 515.339 113.901 509.832C110.043 504.312 107.329 490.13 107.952 487.324C108.563 484.519 84.3147 484.61 84.3147 484.61Z" fill="#EBCDC5"/>
<path d="M84.807 511.292C84.9629 511.292 85.1187 511.266 85.2746 511.201C92.249 508.5 100.275 508.474 109.133 511.162L109.393 511.24C110.081 511.448 110.809 511.058 111.016 510.37C111.224 509.681 110.835 508.954 110.146 508.746L109.899 508.668C100.483 505.811 91.8854 505.85 84.3525 508.772C83.6901 509.032 83.3524 509.785 83.6122 510.448C83.794 510.98 84.2875 511.292 84.807 511.292Z" fill="#A77473"/>
<path d="M86.6006 504.709C86.7175 504.709 86.8344 504.696 86.9513 504.657C93.4322 502.813 103.965 504.358 106.017 504.696C106.719 504.813 107.394 504.332 107.511 503.618C107.628 502.904 107.147 502.241 106.433 502.124C103.42 501.644 93.0815 500.215 86.2499 502.163C85.5616 502.358 85.159 503.073 85.3538 503.774C85.5096 504.345 86.0421 504.709 86.6006 504.709Z" fill="#A77473"/>
<path d="M88.731 499.248C88.8089 499.248 88.8869 499.235 88.9778 499.222C94.082 498.261 102.355 499.066 103.966 499.235C104.68 499.313 105.316 498.793 105.394 498.079C105.472 497.364 104.953 496.728 104.238 496.65C101.888 496.403 93.8222 495.663 88.4972 496.663C87.7959 496.793 87.3283 497.468 87.4582 498.183C87.5751 498.819 88.1206 499.248 88.731 499.248Z" fill="#A77473"/>
<path d="M74.6787 520.669C74.6787 520.669 72.7825 525.786 74.6787 528.916C74.6787 528.916 98.8749 541.15 120.032 528.202C120.032 528.202 121.604 524.409 120.032 522.175C118.72 520.305 89.1081 518.902 79.5231 518.5C77.6659 518.435 75.8736 519.24 74.6787 520.669Z" fill="#FBE4DE"/>
<path d="M113.472 251.279C88.8598 251.929 47.0521 250.695 23.4663 249.851C23.4923 246.902 23.4793 244.305 23.4014 242.097L85.0673 241.681L113.524 241.305C113.42 244.019 113.407 247.37 113.472 251.279Z" fill="#5061A6"/>
<path d="M66.8749 277.887C66.5632 277.862 66.3034 277.628 66.2775 277.303C64.3942 257.873 65.0956 233.028 65.0956 232.781C65.1086 232.417 65.4073 232.145 65.758 232.145C66.1346 232.145 66.3944 232.456 66.3944 232.807C66.3814 233.054 65.693 257.821 67.5633 277.173C67.6022 277.524 67.3425 277.849 66.9788 277.887C66.9528 277.887 66.9139 277.887 66.8749 277.887Z" fill="#404984"/>
<path d="M66.0828 266.809C65.7451 266.783 65.4854 266.51 65.4854 266.16C65.4854 265.796 65.7711 265.51 66.1347 265.51C67.2257 265.51 68.0699 265.173 68.7323 264.484C70.109 263.043 70.6935 259.99 70.4857 255.393C70.122 247.587 70.6155 233.314 70.6155 233.171C70.6285 232.807 70.9272 232.534 71.2909 232.547C71.6545 232.547 71.9273 232.859 71.9143 233.223C71.9143 233.366 71.4208 247.587 71.7844 255.341C72.0182 260.38 71.3299 263.666 69.6804 265.393C68.7843 266.342 67.5894 266.822 66.1477 266.822C66.1088 266.809 66.0958 266.809 66.0828 266.809Z" fill="#404984"/>
<path d="M109.98 263.613C109.941 263.613 109.915 263.613 109.876 263.6C90.5634 260.392 91.5115 239.235 91.5245 239.014C91.5505 238.651 91.8492 238.378 92.2129 238.404C92.5765 238.43 92.8493 238.729 92.8233 239.092C92.7843 239.911 91.9401 259.301 110.097 262.315C110.448 262.379 110.694 262.704 110.63 263.068C110.578 263.38 110.292 263.613 109.98 263.613Z" fill="#404984"/>
<path d="M26.9996 263.613C27.0386 263.613 27.0646 263.613 27.1035 263.6C46.4164 260.392 45.4682 239.235 45.4553 239.014C45.4293 238.651 45.1306 238.378 44.7669 238.404C44.4033 238.43 44.1305 238.729 44.1565 239.092C44.1954 239.911 45.0397 259.301 26.8827 262.315C26.5321 262.379 26.2853 262.704 26.3502 263.068C26.4152 263.38 26.6879 263.613 26.9996 263.613Z" fill="#404984"/>
<path d="M68.3275 287.073C68.5742 287.073 51.7031 271.838 51.7031 271.838L63.8337 352.544L66.9638 321.243L68.3275 287.073Z" fill="#5061A6"/>
<path d="M111.137 474.2V474.213C110.267 479.629 109.384 484.551 108.501 488.902C108.501 488.902 94.5127 494.123 82.2912 488.902C82.2912 488.902 80.6547 464.407 78.5117 432.457C82.1353 438.25 88.1227 442.471 97.357 434.886C115.072 420.327 117.397 370.609 117.397 370.609C117.397 370.609 117.397 370.622 117.41 370.648C117.8 408.209 116.579 446.224 111.137 474.2Z" fill="#5061A6"/>
<path d="M61.0935 392.648C57.7686 441.573 54.6126 488.901 54.6126 488.901C42.3911 494.122 28.4032 488.901 28.4032 488.901C27.5201 484.55 26.6369 479.628 25.7667 474.212V474.199C23.4809 462.458 21.9483 448.937 20.9482 434.43C24.2991 437.885 29.2864 439.95 36.6764 437.508C55.5347 431.287 60.9636 393.558 61.0935 392.648Z" fill="#5061A6"/>
<path d="M73.7808 123.45C73.3912 123.554 71.0274 124.307 68.4428 125.139C65.8583 124.307 63.4945 123.554 63.1048 123.45C49.091 119.814 51.9354 106.67 51.9354 106.67C51.9354 106.67 52.8575 104.995 53.6757 102.163C53.7277 101.981 53.7796 101.8 53.8316 101.618C53.8835 101.475 53.9225 101.319 53.9614 101.15C54.7537 98.0721 55.3252 93.8641 54.6628 89.0586L68.4428 89.8898L82.2229 89.0586C81.9241 91.2146 81.8722 93.2536 82.0021 95.1239C82.119 97.4227 82.4956 99.4618 82.9242 101.15C83.0151 101.514 83.106 101.839 83.2099 102.163C84.0282 104.995 84.9503 106.67 84.9503 106.67C84.9503 106.67 87.7946 119.814 73.7808 123.45Z" fill="#F8947C"/>
<path d="M82.0006 95.1239C79.6108 97.2539 70.7402 103.826 53.8301 101.618C53.882 101.475 53.921 101.319 53.96 101.15C54.7522 98.0721 55.3237 93.8641 54.6613 89.0586L68.4413 89.8898L82.2214 89.0586C81.9226 91.2146 81.8707 93.2536 82.0006 95.1239Z" fill="#EA7B65"/>
<path d="M105.131 64.6792C106.833 68.03 104.404 72.6796 99.7285 75.0434C95.0399 77.4072 89.8708 76.6149 88.1694 73.2641C86.468 69.9132 88.8967 65.2636 93.5723 62.8998C98.2609 60.5231 103.43 61.3283 105.131 64.6792Z" fill="#EA7B65"/>
<path d="M28.3205 65.5594C26.697 68.9492 29.2296 73.5339 33.9571 75.7938C38.6977 78.0536 43.8408 77.1315 45.4643 73.7417C47.0878 70.3519 44.5552 65.7672 39.8276 63.5073C35.0871 61.2475 29.9439 62.1696 28.3205 65.5594Z" fill="#EA7B65"/>
<path d="M67.724 95.2524C83.5316 95.0706 96.1778 80.2829 95.9701 62.2232C95.7624 44.1635 82.7794 29.6706 66.9718 29.8525C51.1642 30.0343 38.518 44.8219 38.7257 62.8816C38.9334 80.9413 51.9164 95.4342 67.724 95.2524Z" fill="#F8947C"/>
<path d="M66.5324 66.1582C66.5324 66.1582 64.1816 70.8858 66.7922 75.3795" stroke="#AE3838" stroke-width="1.29878" stroke-miterlimit="10" stroke-linecap="round"/>
<path d="M71.3877 54.8477C71.3877 54.8477 78.479 50.302 83.5572 55.1854" stroke="#89382B" stroke-width="1.29878" stroke-miterlimit="10" stroke-linecap="round" stroke-linejoin="round"/>
<path d="M74.6533 61.9693C73.913 61.9823 73.4195 61.1121 73.4065 59.7614C73.3935 58.4107 73.8611 57.5275 74.6014 57.5275C75.3417 57.5145 75.8352 58.3847 75.8482 59.7354C75.8612 61.0732 75.3936 61.9563 74.6533 61.9693Z" fill="#2C324A"/>
<path d="M53.1681 62.2582C52.4278 62.3361 51.8693 61.5179 51.7265 60.1671C51.5836 58.8164 51.9732 57.9073 52.7135 57.8293C53.4538 57.7514 54.0123 58.5696 54.1552 59.9204C54.298 61.2711 53.9084 62.1932 53.1681 62.2582Z" fill="#2C324A"/>
<path d="M65.21 81.9423C65.21 81.9423 70.7168 76.4095 75.3274 80.3838" stroke="#AE3838" stroke-width="1.29878" stroke-miterlimit="10" stroke-linecap="round"/>
<path d="M42.2843 55.1903C42.2843 55.1903 49.5964 57.1515 65.2077 50.6446C80.819 44.1377 89.2611 49.4497 90.8326 55.476C90.8326 55.476 92.2743 45.956 83.5595 39.3062C74.8447 32.6565 44.3883 44.904 44.3883 44.904L40.0244 52.6966L42.2843 55.1903Z" fill="#EA7B65"/>
<path d="M41.5955 76.7482C41.5955 76.7482 39.8291 62.0591 44.206 46.123L36.8939 47.8374C36.8939 47.8374 35.8289 65.6956 41.5955 76.7482Z" fill="#772C24"/>
<path d="M93.3505 76.3701C93.3505 76.3701 94.8311 54.8884 85.1942 46.3034C75.5443 37.7185 56.2834 54.6416 41.3994 52.9272C38.8798 52.6285 36.8277 51.8232 35.1783 50.6414C27.0999 44.8878 28.9831 30.3285 35.451 24.9385C43.2177 18.4576 56.9588 17.2368 58.9459 23.0164C58.9459 23.0164 59.0108 23.0034 59.1147 22.9644C59.1667 22.9514 59.2316 22.9254 59.3096 22.8995C59.3875 22.8735 59.4784 22.8345 59.5693 22.8085C62.5695 21.8345 75.791 17.8732 83.5577 21.4318C92.3634 25.4581 91.1296 35.4457 91.1296 35.4457C91.1296 35.4457 102.923 42.3422 93.3505 76.3701Z" fill="#89382B"/>
<path d="M58.9459 23.0164C56.0366 21.6137 41.7501 19.8214 35.7108 30.7181C29.6714 41.6149 35.1783 50.6414 35.1783 50.6414C27.0999 44.8878 28.9831 30.3285 35.451 24.9385C43.2177 18.4576 56.9588 17.2368 58.9459 23.0164Z" fill="#A0433A"/>
<path d="M48.4531 56.1602C48.4531 56.1602 55.5445 51.6145 60.6227 56.4979" stroke="#89382B" stroke-width="1.29878" stroke-miterlimit="10" stroke-linecap="round" stroke-linejoin="round"/>
<path d="M138.425 162.921L139.762 167.765C139.762 167.765 127.58 171.857 118.293 166.246C109.007 160.648 121.618 148.738 122.151 148.738C122.683 148.738 138.425 162.921 138.425 162.921Z" fill="#EA7B65"/>
<path d="M90.0186 105.241C90.0186 105.241 102.902 104.163 112.825 116.527C122.748 128.891 140.398 152.685 140.398 152.685C140.398 152.685 130.32 168.387 115.669 171.686C101.032 174.972 90.0186 105.241 90.0186 105.241Z" fill="#D3B4AE"/>
<path d="M115.189 199.089C115.15 217.025 115.007 242.507 115.007 242.507C109.292 244.43 87.7454 245.638 68.4716 246.352H68.4586C49.1847 245.638 27.638 244.43 21.9104 242.507C21.9104 242.507 21.8714 234.351 21.8195 224.013C21.7935 216.09 21.7545 206.882 21.7415 199.089C21.6896 183.387 21.7026 164.75 21.9104 150.034C22.378 118.513 25.6898 115.513 29.8979 111.448C33.5215 107.941 42.0285 105.214 47.782 103.72C50.9251 102.915 53.2629 102.46 53.5356 102.447C53.6915 110.188 60.1854 116.643 68.4456 117.097H68.4716C68.4716 117.097 68.4716 117.097 68.4846 117.097C76.7448 116.643 83.2387 110.188 83.3945 102.447C83.6283 102.46 85.3297 102.785 87.7584 103.382C93.4471 104.772 103.097 107.642 107.032 111.448C111.24 115.513 114.552 118.513 115.007 150.034C115.137 158.334 115.189 167.88 115.202 177.439C115.228 184.842 115.215 192.245 115.189 199.089Z" fill="#EBCDC5"/>
<path d="M87.7567 103.382C87.7177 107.746 86.1592 121.5 68.0412 122.384C53.3261 123.098 49.0271 111.292 47.7803 103.72C50.9233 102.915 53.2611 102.46 53.5339 102.447C53.6897 110.188 60.1836 116.643 68.4438 117.097H68.4698C68.4698 117.097 68.4698 117.097 68.4828 117.097C76.743 116.643 83.2369 110.188 83.3928 102.447C83.6265 102.46 85.3279 102.785 87.7567 103.382Z" fill="#D3B4AE"/>
<path d="M115.188 199.092C115.15 217.028 115.007 242.51 115.007 242.51C109.292 244.432 87.7453 245.64 68.4714 246.355H68.4585C49.1846 245.64 27.6379 244.432 21.9103 242.51C21.9103 242.51 21.8713 234.354 21.8193 224.016C99.2525 226.938 112.851 191.637 115.201 177.441C115.227 184.844 115.214 192.247 115.188 199.092Z" fill="#D3B4AE"/>
<path d="M104.237 90.8992C104.237 90.8992 111.017 128.031 117.147 148.552C123.277 169.073 139.746 167.774 139.746 167.774C139.746 167.774 140.278 167.306 141.058 166.423C146.993 159.734 148.071 150.033 144.006 142.071C136.707 127.836 120.29 95.393 117.472 86.3535L104.237 90.8992Z" fill="#F8947C"/>
<path d="M96.3532 78.7972C96.3532 78.7972 97.7299 87.4601 104.224 90.9019L117.458 86.3561L110.718 60.6793C110.718 60.6793 109.549 52.7438 105.626 48.7175C101.691 44.6913 93.9894 46.3018 93.3011 49.0293C92.6127 51.7567 97.3403 50.5488 99.7949 51.2112C102.25 51.8736 103.756 57.757 103.756 57.757C103.756 57.757 97.6779 55.6141 94.5089 56.692C91.3399 57.77 87.0929 63.7834 89.9113 66.4329C89.9113 66.4329 87.5734 68.8486 89.9372 71.7449C89.9372 71.7319 87.1708 78.4466 96.3532 78.7972Z" fill="#F8947C"/>
<path d="M97.0935 56.3915C96.1454 56.3655 95.2492 56.4434 94.5089 56.6902C91.3269 57.7682 87.0929 63.7815 89.9113 66.431C89.9113 66.431 87.5734 68.8468 89.9372 71.743C89.9372 71.743 87.1708 78.4577 96.3532 78.8084C96.3532 78.8084 96.4701 75.0289 94.0933 73.1977" stroke="#AE3838" stroke-width="0.649389" stroke-miterlimit="10" stroke-linecap="round"/>
<path d="M96.3405 72.7578C96.3405 72.7578 96.8081 73.7709 95.5742 75.0956" stroke="#AE3838" stroke-width="0.649389" stroke-miterlimit="10" stroke-linecap="round"/>
<path d="M89.9375 71.7312C89.9375 71.7312 91.1713 68.3414 95.4313 68.705" stroke="#AE3838" stroke-width="0.649389" stroke-miterlimit="10" stroke-linecap="round"/>
<path d="M89.9111 66.4193C89.9111 66.4193 94.0672 61.8346 98.8078 64.0165" stroke="#AE3838" stroke-width="0.649389" stroke-miterlimit="10" stroke-linecap="round"/>
<path d="M107.616 29.005C106.655 28.8751 105.564 28.5764 105.2 27.0958C104.992 26.3035 104.992 25.1736 105.148 24.0047C105.278 23.0436 105.499 22.0955 105.811 21.3162C106.395 19.6538 107.2 18.9784 108.369 18.2641C109.551 17.4978 111.045 16.6147 112.227 15.0821C113.279 13.7314 113.98 11.8741 114.201 10.1597L114.24 9.4454C114.331 7.56217 113.668 6.02961 112.525 5.27632C112.149 5.01656 111.707 4.86071 111.253 4.79577C110.343 4.67888 109.382 4.96461 108.577 5.62699C107.59 6.4712 106.876 8.01674 106.707 9.32851L106.681 9.88698C106.603 11.2117 107.265 12.0689 107.772 12.9001C108.058 13.4976 108.343 14.0561 108.265 14.6535C108.226 14.9522 108.136 15.2509 107.889 15.5756C107.161 16.4588 105.525 17.5238 104.07 17.329L103.914 17.303C102.408 17.0043 101.187 15.4068 100.888 12.6404C100.758 11.6533 100.758 10.4714 100.914 9.31552C101.187 7.25046 101.927 5.09449 103.161 3.50998C105.135 1.00334 108.46 -0.152572 111.525 -0.0097066L112.175 0.0812079C114.954 0.444866 117.435 1.84755 118.954 3.58791C120.565 5.44516 121.032 7.65308 120.928 10.0558L120.799 11.7832C120.552 13.6534 119.993 15.5756 119.162 17.2121C118.11 19.3291 116.668 20.9915 115.149 22.0176C113.629 23.0436 112.032 23.4592 111.175 24.5242C110.369 25.6022 110.24 27.3296 109.811 28.2387C109.395 29.1349 108.577 29.1349 107.616 29.005ZM106.057 38.603C108.149 38.6679 110.097 36.7717 110.382 34.6027C110.538 33.3949 110.266 32.3299 109.707 31.5376C108.967 30.5116 108.252 30.4726 106.954 30.1999C106.2 30.096 105.369 30.1479 104.655 30.5116C103.499 31.122 102.785 32.2649 102.525 33.8754C102.382 34.9794 102.629 36.2522 103.226 37.0964C103.785 37.9406 104.798 38.4341 105.707 38.551L106.057 38.603Z" fill="#F15A29"/>
</svg>
