<svg width="40" height="55" viewBox="0 0 40 55" fill="none" xmlns="http://www.w3.org/2000/svg">
<path d="M34.9641 47.1423H4.32131V24.5744C5.21094 24.2701 6.01463 23.783 6.67844 23.1306C7.80617 24.2386 9.32237 24.9318 10.9981 24.9318C12.6734 24.9318 14.1918 24.2386 15.3195 23.1306C16.4472 24.2403 17.9655 24.9318 19.6409 24.9318C21.3163 24.9318 22.8346 24.2386 23.9623 23.1306C25.09 24.2403 26.6084 24.9318 28.2837 24.9318C29.9591 24.9318 31.4758 24.2386 32.6034 23.1306C33.2672 23.7826 34.0727 24.2697 34.9605 24.5744L34.9601 47.1423H34.9641ZM3.7107 6.80045H4.71432V14.2016H0.8879L3.7107 6.80045ZM13.3571 6.80045V14.2016H8.64284V6.80045H13.3571ZM22 6.80045V14.2016H17.2857V6.80045H22ZM30.6428 6.80045V14.2016H25.9285V6.80045H30.6428ZM22 17.981C22 19.3972 20.9411 21.002 19.6428 21.002C18.3445 21.002 17.2857 19.3972 17.2857 17.981V17.6785H22V17.981ZM13.3571 17.6785V17.981C13.3571 19.3972 12.2982 21.002 11 21.002C9.70171 21.002 8.64463 19.3972 8.64463 17.981V17.6785H13.3571ZM30.6428 17.981C30.6428 19.3972 29.5861 21.002 28.2875 21.002C26.987 21.002 25.9303 19.3972 25.9303 17.981V17.6785H30.6428V17.981ZM34.5714 6.80045H35.575L38.3995 14.2038H34.5714L34.5714 6.80045ZM34.9642 0V3.92856H4.32142V0H34.9642ZM0 17.6785H4.71428V17.9811C4.71428 19.3973 3.6554 21.002 2.35714 21.002C1.05887 21.002 0 19.3973 0 17.9811V17.6785ZM36.9285 21.002C35.628 21.002 34.5714 19.3972 34.5714 17.981V17.6785H39.2856V17.981C39.2856 19.3972 38.2268 21.002 36.9285 21.002ZM4.32142 49.8534V55H34.9642V49.8534H4.32142ZM21.038 53.8214C20.6649 54.1928 20.1541 54.391 19.6433 54.391C19.1324 54.391 18.6217 54.1928 18.2485 53.8214C17.8951 53.4483 17.679 52.9375 17.679 52.4267C17.679 51.9141 17.8951 51.4033 18.2485 51.0319C18.9755 50.305 20.311 50.305 21.038 51.0319C21.3914 51.4055 21.6076 51.9159 21.6076 52.4267C21.6076 52.9375 21.3914 53.4483 21.038 53.8214Z" fill="url(#paint0_linear_2052_11346)"/>
<defs>
<linearGradient id="paint0_linear_2052_11346" x1="19.6428" y1="0" x2="19.6428" y2="55" gradientUnits="userSpaceOnUse">
<stop stop-color="#EE8425"/>
<stop offset="1" stop-color="#FF661A"/>
</linearGradient>
</defs>
</svg>
