<svg width="68" height="20" viewBox="0 0 68 20" fill="none" xmlns="http://www.w3.org/2000/svg">
<path d="M67.3079 0H0.689661C0.309249 0 0 0.308758 0 0.689662V19.0848C0 19.4652 0.308757 19.7745 0.689661 19.7745H67.3103C67.6908 19.7745 68 19.4657 68 19.0848V0.689662C67.9986 0.307797 67.6908 0 67.3089 0H67.3079ZM9.93094 15.0008C10.3114 15.0008 10.6206 15.3095 10.6206 15.6904C10.6206 16.0708 10.3118 16.3801 9.93094 16.3801H4.84122C4.46081 16.3801 4.15156 16.0713 4.15156 15.6904C4.15156 15.31 4.46031 15.0008 4.84122 15.0008H6.69711V4.77183H4.84122C4.46081 4.77183 4.15156 4.46307 4.15156 4.08217C4.15156 3.70176 4.46031 3.39251 4.84122 3.39251H9.93094C10.3114 3.39251 10.6206 3.70126 10.6206 4.08217C10.6206 4.46258 10.3118 4.77183 9.93094 4.77183H8.07505V15.0008H9.93094Z" fill="url(#paint0_linear_2052_11341)"/>
<path d="M15.3145 15L17.9719 4.22896H21.4469L24.12 15H22.3589L21.7771 12.6886H17.6417L17.0599 15H15.3145ZM19.3241 5.69131L17.9876 11.1476H21.4312L20.1103 5.69131H19.3241ZM29.1145 6.96496C30.1942 6.96496 30.97 7.26896 31.4417 7.87697C31.9239 8.47448 32.165 9.53848 32.165 11.069C32.165 12.5994 31.882 13.6687 31.3159 14.2767C30.7498 14.8742 29.754 15.173 28.3283 15.173C27.8356 15.173 27.0546 15.1258 25.9854 15.0314L25.4508 14.9843V3.86731H27.149V7.43669C27.8723 7.12221 28.5275 6.96496 29.1145 6.96496ZM28.3283 13.6477C29.1669 13.6477 29.7225 13.4538 29.9951 13.0659C30.2781 12.6676 30.4196 11.9967 30.4196 11.0532C30.4196 10.1098 30.2991 9.44938 30.058 9.072C29.8273 8.68414 29.4447 8.49021 28.9101 8.49021C28.4069 8.49021 27.9037 8.56883 27.4006 8.72607L27.149 8.80469V13.5848C27.7255 13.6268 28.1186 13.6477 28.3283 13.6477ZM36.8214 6.96496C37.377 6.96496 38.0322 7.03834 38.7869 7.1851L39.18 7.26372L39.1171 8.616C38.289 8.53214 37.6758 8.49021 37.2774 8.49021C36.4807 8.49021 35.9461 8.66841 35.6736 9.02483C35.401 9.38124 35.2647 10.0521 35.2647 11.0375C35.2647 12.0229 35.3958 12.7043 35.6578 13.0817C35.9199 13.459 36.465 13.6477 37.2931 13.6477L39.1329 13.5219L39.18 14.8899C38.1213 15.0786 37.3246 15.173 36.79 15.173C35.5949 15.173 34.7511 14.8532 34.2584 14.2138C33.7762 13.5639 33.5351 12.5051 33.5351 11.0375C33.5351 9.56993 33.7919 8.5269 34.3056 7.90841C34.8192 7.27945 35.6578 6.96496 36.8214 6.96496Z" fill="white"/>
<defs>
<linearGradient id="paint0_linear_2052_11341" x1="34" y1="0" x2="34" y2="19.7745" gradientUnits="userSpaceOnUse">
<stop stop-color="#EE8425"/>
<stop offset="1" stop-color="#FF661A"/>
</linearGradient>
</defs>
</svg>
