<svg width="39" height="44" viewBox="0 0 39 44" fill="none" xmlns="http://www.w3.org/2000/svg">
<path d="M27.7061 6.97109V3.32064C27.7061 1.49183 26.2142 0 24.3854 0H4.37922C2.55041 0 1.05858 1.49183 1.05858 3.32064V5.60989H0.756215C0.336963 5.60989 0 5.95371 0 6.37296V10.553C0 10.9723 0.336963 11.3092 0.756215 11.3092H1.05858V14.2724H0.756215C0.336963 14.2724 0 14.6162 0 15.0355V19.2155C0 19.6348 0.336963 19.9717 0.756215 19.9717H1.05858V40.6794C1.05858 42.515 2.55041 44 4.37922 44H24.3854C26.2142 44 27.7061 42.515 27.7061 40.6794V36.6988H25.1899L25.1968 38.0874H3.56831V5.20501H25.1968V6.97182L27.7061 6.97109ZM14.3758 39.7921C14.9808 39.7921 15.4689 40.2665 15.4689 40.8715C15.4689 41.4765 14.9808 41.9578 14.3758 41.9578C13.7845 41.9578 13.2963 41.4765 13.2963 40.8715C13.2967 40.2665 13.7848 39.7921 14.3758 39.7921ZM16.8227 3.11923H11.941C11.7508 3.11923 11.5972 2.96555 11.5972 2.77541C11.5972 2.58527 11.7508 2.43159 11.941 2.43159H16.8227C17.0128 2.43159 17.1665 2.58527 17.1665 2.77541C17.1665 2.96555 17.0128 3.11923 16.8227 3.11923ZM18.9529 3.11923C18.7628 3.11923 18.5898 2.96555 18.5898 2.77541C18.5898 2.58527 18.7247 2.43159 18.9149 2.43159H18.9532C19.1434 2.43159 19.297 2.58527 19.297 2.77541C19.2967 2.96555 19.1431 3.11923 18.9529 3.11923H18.9529Z" fill="url(#paint0_linear_2052_11301)"/>
<path d="M9.68652 26.1719H14.6433V31.3968H9.68652V26.1719Z" fill="url(#paint1_linear_2052_11301)"/>
<path d="M9.34299 25.4842H14.6437V23.0781H6.93659C6.74395 23.0781 6.59277 23.2362 6.59277 23.4219V34.1468C6.59277 34.3395 6.74395 34.4906 6.93659 34.4906H14.6433V32.0846H9.34267C9.15002 32.0846 8.99885 31.9334 8.99885 31.7407V25.8282C8.99916 25.6424 9.15034 25.4844 9.34298 25.4844L9.34299 25.4842Z" fill="url(#paint2_linear_2052_11301)"/>
<path d="M9.34299 11.9142H14.6437V9.50812L6.93659 9.50781C6.74395 9.50781 6.59277 9.66585 6.59277 9.85163V20.5765C6.59277 20.7691 6.74395 20.9203 6.93659 20.9203H14.6433V18.5142H9.34267C9.15002 18.5142 8.99885 18.3631 8.99885 18.1704V12.2579C8.99916 12.0724 9.15034 11.9144 9.34298 11.9144L9.34299 11.9142Z" fill="url(#paint3_linear_2052_11301)"/>
<path d="M9.68652 12.6016H14.6433V17.8265H9.68652V12.6016Z" fill="url(#paint4_linear_2052_11301)"/>
<path d="M33.7168 26.8184H19.9788C18.9772 26.8184 18.1621 27.6335 18.1621 28.635C18.1621 29.6369 18.9772 30.4517 19.9788 30.4517H33.7168C34.7184 30.4517 35.5335 29.6366 35.5335 28.635C35.5338 27.6332 34.7187 26.8184 33.7168 26.8184ZM22.3001 28.9788H20.9252C20.7351 28.9788 20.5814 28.8251 20.5814 28.635C20.5814 28.4449 20.7351 28.2912 20.9252 28.2912H22.3001C22.4903 28.2912 22.6439 28.4449 22.6439 28.635C22.6439 28.8248 22.4903 28.9788 22.3001 28.9788ZM25.7377 28.9788H24.3627C24.1726 28.9788 24.0189 28.8251 24.0189 28.635C24.0189 28.4449 24.1726 28.2912 24.3627 28.2912H25.7377C25.9278 28.2912 26.0815 28.4449 26.0815 28.635C26.0815 28.8248 25.9278 28.9788 25.7377 28.9788ZM29.1752 28.9788H27.8003C27.6101 28.9788 27.4565 28.8251 27.4565 28.635C27.4565 28.4449 27.6101 28.2912 27.8003 28.2912H29.1752C29.3654 28.2912 29.519 28.4449 29.519 28.635C29.5187 28.8248 29.365 28.9788 29.1752 28.9788ZM32.6124 28.9788H31.2375C31.0474 28.9788 30.8937 28.8251 30.8937 28.635C30.8937 28.4449 31.0474 28.2912 31.2375 28.2912H32.6124C32.8026 28.2912 32.9563 28.4449 32.9563 28.635C32.9563 28.8248 32.8026 28.9788 32.6124 28.9788Z" fill="url(#paint5_linear_2052_11301)"/>
<path d="M31.6088 22.4564C31.6088 20.8935 30.3722 19.6139 28.824 19.5391L27.1093 21.3149C27.0447 21.3813 26.9562 21.419 26.8636 21.4196H26.8624C26.7704 21.4196 26.6819 21.3828 26.6174 21.3168L24.8671 19.5391C23.3216 19.613 22.0869 20.8932 22.0869 22.4564V23.0325H31.6092V22.4564L31.6088 22.4564Z" fill="url(#paint6_linear_2052_11301)"/>
<path d="M26.8479 17.5744C28.1316 17.5744 29.2144 15.52 29.2144 14.2298C29.2144 12.9247 28.153 11.8633 26.8479 11.8633C25.5428 11.8633 24.4814 12.9247 24.4814 14.2298C24.4814 15.5203 25.5643 17.5744 26.8479 17.5744Z" fill="url(#paint7_linear_2052_11301)"/>
<path d="M38.0184 7.6582H15.6749C15.4894 7.6582 15.3311 7.80938 15.3311 8.00202V35.6664C15.3311 35.8591 15.4891 36.0103 15.6749 36.0103H38.0184C38.211 36.0103 38.3622 35.8591 38.3622 35.6664V8.00202C38.3622 7.80969 38.2107 7.6582 38.0184 7.6582ZM26.8482 11.1759C28.5321 11.1759 29.9023 12.5462 29.9023 14.23C29.9023 15.854 28.62 18.2623 26.8482 18.2623C25.0765 18.2623 23.7941 15.854 23.7941 14.23C23.7944 12.5461 25.1647 11.1759 26.8482 11.1759ZM21.3995 22.4561C21.3995 20.4668 23.0182 18.8481 25.0076 18.8481C25.0995 18.8481 25.1881 18.8848 25.2526 18.9509L26.8598 20.5837L28.4349 18.9528C28.4994 18.8857 28.5885 18.848 28.6821 18.848C30.6754 18.848 32.2967 20.4667 32.2967 22.4561V23.3759C32.2967 23.5661 32.143 23.7198 31.9529 23.7198H21.7427C21.5525 23.7198 21.3989 23.5661 21.3989 23.3759L21.3995 22.4561ZM33.7172 31.1398H19.9791C18.5982 31.1398 17.4748 30.0167 17.4748 28.6355C17.4748 27.2546 18.5979 26.1312 19.9791 26.1312H33.7172C35.0981 26.1312 36.2215 27.2542 36.2215 28.6355C36.2215 30.0164 35.0984 31.1398 33.7172 31.1398Z" fill="url(#paint8_linear_2052_11301)"/>
<defs>
<linearGradient id="paint0_linear_2052_11301" x1="13.853" y1="0" x2="13.853" y2="44" gradientUnits="userSpaceOnUse">
<stop stop-color="#EE8425"/>
<stop offset="1" stop-color="#FF661A"/>
</linearGradient>
<linearGradient id="paint1_linear_2052_11301" x1="12.1649" y1="26.1719" x2="12.1649" y2="31.3968" gradientUnits="userSpaceOnUse">
<stop stop-color="#EE8425"/>
<stop offset="1" stop-color="#FF661A"/>
</linearGradient>
<linearGradient id="paint2_linear_2052_11301" x1="10.6182" y1="23.0781" x2="10.6182" y2="34.4906" gradientUnits="userSpaceOnUse">
<stop stop-color="#EE8425"/>
<stop offset="1" stop-color="#FF661A"/>
</linearGradient>
<linearGradient id="paint3_linear_2052_11301" x1="10.6182" y1="9.50781" x2="10.6182" y2="20.9203" gradientUnits="userSpaceOnUse">
<stop stop-color="#EE8425"/>
<stop offset="1" stop-color="#FF661A"/>
</linearGradient>
<linearGradient id="paint4_linear_2052_11301" x1="12.1649" y1="12.6016" x2="12.1649" y2="17.8265" gradientUnits="userSpaceOnUse">
<stop stop-color="#EE8425"/>
<stop offset="1" stop-color="#FF661A"/>
</linearGradient>
<linearGradient id="paint5_linear_2052_11301" x1="26.8478" y1="26.8184" x2="26.8478" y2="30.4517" gradientUnits="userSpaceOnUse">
<stop stop-color="#EE8425"/>
<stop offset="1" stop-color="#FF661A"/>
</linearGradient>
<linearGradient id="paint6_linear_2052_11301" x1="26.8481" y1="19.5391" x2="26.8481" y2="23.0325" gradientUnits="userSpaceOnUse">
<stop stop-color="#EE8425"/>
<stop offset="1" stop-color="#FF661A"/>
</linearGradient>
<linearGradient id="paint7_linear_2052_11301" x1="26.8479" y1="11.8633" x2="26.8479" y2="17.5744" gradientUnits="userSpaceOnUse">
<stop stop-color="#EE8425"/>
<stop offset="1" stop-color="#FF661A"/>
</linearGradient>
<linearGradient id="paint8_linear_2052_11301" x1="26.8466" y1="7.6582" x2="26.8466" y2="36.0103" gradientUnits="userSpaceOnUse">
<stop stop-color="#EE8425"/>
<stop offset="1" stop-color="#FF661A"/>
</linearGradient>
</defs>
</svg>
