<svg width="47" height="47" viewBox="0 0 47 47" fill="none" xmlns="http://www.w3.org/2000/svg">
<path d="M12.3406 20.6149C11.761 20.4457 11.4238 19.8363 11.6427 19.2736C12.6667 16.6407 14.5534 14.4151 17.0166 12.964C19.7965 11.3263 23.1045 10.7965 26.275 11.4813C29.4455 12.1661 32.2434 14.0146 34.1059 16.6549C35.7556 18.9938 36.5629 21.8002 36.4175 24.6218C36.3863 25.226 35.8271 25.6436 35.2282 25.5584C34.6318 25.4735 34.2225 24.9214 34.2431 24.3193C34.3212 22.0394 33.6511 19.7807 32.3176 17.8902C30.7725 15.6997 28.4514 14.1661 25.821 13.598C23.1907 13.0299 20.4464 13.4694 18.1401 14.8281C16.1507 16.0001 14.6146 17.7809 13.7509 19.8896C13.522 20.4484 12.9203 20.7841 12.3406 20.6149Z" fill="#87D68D" fill-opacity="0.4"/>
<path d="M14.2559 16.8876C13.76 16.5113 13.0482 16.6058 12.7178 17.1333C11.2641 19.454 10.6001 22.1985 10.8433 24.9586C11.1197 28.096 12.5486 31.032 14.8553 33.2017C17.1619 35.3714 20.1833 36.6215 23.3383 36.7117C26.4933 36.8019 29.559 35.7257 31.9457 33.6902C34.3324 31.6546 35.8715 28.8035 36.267 25.6853C36.6625 22.5671 35.8864 19.4019 34.088 16.7988C32.2897 14.1956 29.596 12.3382 26.5253 11.584C23.8253 10.9208 21.0014 11.1517 18.4762 12.2239C17.9012 12.468 17.6973 13.16 17.996 13.7087C18.2916 14.2515 18.968 14.4479 19.541 14.2163C21.5794 13.3924 23.8421 13.2265 26.0081 13.7585C28.5395 14.3803 30.7601 15.9114 32.2426 18.0574C33.7251 20.2033 34.3648 22.8125 34.0388 25.3831C33.7128 27.9536 32.444 30.304 30.4765 31.982C28.509 33.66 25.9818 34.5472 23.3809 34.4728C20.7801 34.3985 18.2894 33.3679 16.3879 31.5793C14.4864 29.7907 13.3084 27.3704 13.0805 24.784C12.886 22.5753 13.396 20.3786 14.5223 18.502C14.8426 17.9682 14.7517 17.2639 14.2559 16.8876Z" fill="#029837" fill-opacity="0.7"/>
</svg>
