<svg width="73" height="73" viewBox="0 0 73 73" fill="none" xmlns="http://www.w3.org/2000/svg">
<path d="M10.1546 16.3062C8.75996 15.2477 6.75782 15.5137 5.82838 16.9974C1.73946 23.525 -0.128027 31.2446 0.555881 39.008C1.3333 47.8329 5.35261 56.091 11.8406 62.1938C18.3287 68.2967 26.8272 71.8131 35.7014 72.0668C44.5755 72.3204 53.1986 69.2934 59.9118 63.5679C66.6251 57.8424 70.9543 49.823 72.0667 41.0521C73.1791 32.2812 70.9962 23.3785 65.9378 16.0564C60.8794 8.73427 53.3028 3.51001 44.6655 1.38851C37.0711 -0.476833 29.1283 0.172418 22.0254 3.18836C20.408 3.87511 19.8345 5.82152 20.6748 7.3647C21.5062 8.89142 23.4087 9.44409 25.0205 8.79265C30.7541 6.47524 37.1185 6.00856 43.211 7.50499C50.3312 9.25386 56.577 13.5605 60.7469 19.5966C64.9169 25.6326 66.7164 32.9717 65.7993 40.202C64.8823 47.4324 61.3135 54.0433 55.7794 58.7631C50.2453 63.483 43.1368 65.9784 35.8212 65.7693C28.5057 65.5602 21.4999 62.6613 16.1514 57.6304C10.803 52.5995 7.48963 45.7919 6.84875 38.517C6.30146 32.3044 7.73618 26.1257 10.9041 20.8471C11.805 19.3458 11.5493 17.3646 10.1546 16.3062Z" fill="#029837" fill-opacity="0.7"/>
</svg>
