<svg width="66" height="106" viewBox="0 0 66 106" fill="none" xmlns="http://www.w3.org/2000/svg">
<g opacity="0.3">
<mask id="mask0_2123_12155" style="mask-type:alpha" maskUnits="userSpaceOnUse" x="-6" y="0" width="12" height="10">
<path d="M-0.209111 9.56544C2.67845 9.56544 5.01928 7.4241 5.01928 4.78269C5.01928 2.14128 2.67845 0 -0.209111 0C-3.09667 0 -5.4375 2.14128 -5.4375 4.78269C-5.4375 7.4241 -3.09667 9.56544 -0.209111 9.56544Z" fill="url(#paint0_linear_2123_12155)"/>
</mask>
<g mask="url(#mask0_2123_12155)">
<path d="M-0.209111 9.56544C2.67845 9.56544 5.01928 7.4241 5.01928 4.78269C5.01928 2.14128 2.67845 0 -0.209111 0C-3.09667 0 -5.4375 2.14128 -5.4375 4.78269C-5.4375 7.4241 -3.09667 9.56544 -0.209111 9.56544Z" fill="url(#paint1_linear_2123_12155)"/>
</g>
<mask id="mask1_2123_12155" style="mask-type:alpha" maskUnits="userSpaceOnUse" x="24" y="0" width="12" height="10">
<path d="M30.0712 9.56544C32.9587 9.56544 35.2996 7.4241 35.2996 4.78269C35.2996 2.14128 32.9587 0 30.0712 0C27.1836 0 24.8428 2.14128 24.8428 4.78269C24.8428 7.4241 27.1836 9.56544 30.0712 9.56544Z" fill="url(#paint2_linear_2123_12155)"/>
</mask>
<g mask="url(#mask1_2123_12155)">
<path d="M30.0712 9.56544C32.9587 9.56544 35.2996 7.4241 35.2996 4.78269C35.2996 2.14128 32.9587 0 30.0712 0C27.1836 0 24.8428 2.14128 24.8428 4.78269C24.8428 7.4241 27.1836 9.56544 30.0712 9.56544Z" fill="url(#paint3_linear_2123_12155)"/>
</g>
<mask id="mask2_2123_12155" style="mask-type:alpha" maskUnits="userSpaceOnUse" x="55" y="0" width="11" height="10">
<path d="M60.3524 9.56544C63.24 9.56544 65.5808 7.4241 65.5808 4.78269C65.5808 2.14128 63.24 0 60.3524 0C57.4648 0 55.124 2.14128 55.124 4.78269C55.124 7.4241 57.4648 9.56544 60.3524 9.56544Z" fill="url(#paint4_linear_2123_12155)"/>
</mask>
<g mask="url(#mask2_2123_12155)">
<path d="M60.3524 9.56544C63.24 9.56544 65.5808 7.4241 65.5808 4.78269C65.5808 2.14128 63.24 0 60.3524 0C57.4648 0 55.124 2.14128 55.124 4.78269C55.124 7.4241 57.4648 9.56544 60.3524 9.56544Z" fill="url(#paint5_linear_2123_12155)"/>
</g>
<mask id="mask3_2123_12155" style="mask-type:alpha" maskUnits="userSpaceOnUse" x="-6" y="24" width="12" height="10">
<path d="M-0.209111 33.581C2.67845 33.581 5.01928 31.4397 5.01928 28.7983C5.01928 26.1569 2.67845 24.0156 -0.209111 24.0156C-3.09667 24.0156 -5.4375 26.1569 -5.4375 28.7983C-5.4375 31.4397 -3.09667 33.581 -0.209111 33.581Z" fill="url(#paint6_linear_2123_12155)"/>
</mask>
<g mask="url(#mask3_2123_12155)">
<path d="M-0.209111 33.579C2.67845 33.579 5.01928 31.4377 5.01928 28.7963C5.01928 26.1549 2.67845 24.0137 -0.209111 24.0137C-3.09667 24.0137 -5.4375 26.1549 -5.4375 28.7963C-5.4375 31.4377 -3.09667 33.579 -0.209111 33.579Z" fill="url(#paint7_linear_2123_12155)"/>
</g>
<mask id="mask4_2123_12155" style="mask-type:alpha" maskUnits="userSpaceOnUse" x="24" y="24" width="12" height="10">
<path d="M30.0712 33.581C32.9587 33.581 35.2996 31.4397 35.2996 28.7983C35.2996 26.1569 32.9587 24.0156 30.0712 24.0156C27.1836 24.0156 24.8428 26.1569 24.8428 28.7983C24.8428 31.4397 27.1836 33.581 30.0712 33.581Z" fill="url(#paint8_linear_2123_12155)"/>
</mask>
<g mask="url(#mask4_2123_12155)">
<path d="M30.0712 33.579C32.9587 33.579 35.2996 31.4377 35.2996 28.7963C35.2996 26.1549 32.9587 24.0137 30.0712 24.0137C27.1836 24.0137 24.8428 26.1549 24.8428 28.7963C24.8428 31.4377 27.1836 33.579 30.0712 33.579Z" fill="url(#paint9_linear_2123_12155)"/>
</g>
<mask id="mask5_2123_12155" style="mask-type:alpha" maskUnits="userSpaceOnUse" x="55" y="24" width="11" height="10">
<path d="M60.3524 33.581C63.24 33.581 65.5808 31.4397 65.5808 28.7983C65.5808 26.1569 63.24 24.0156 60.3524 24.0156C57.4648 24.0156 55.124 26.1569 55.124 28.7983C55.124 31.4397 57.4648 33.581 60.3524 33.581Z" fill="url(#paint10_linear_2123_12155)"/>
</mask>
<g mask="url(#mask5_2123_12155)">
<path d="M60.3524 33.579C63.24 33.579 65.5808 31.4377 65.5808 28.7963C65.5808 26.1549 63.24 24.0137 60.3524 24.0137C57.4648 24.0137 55.124 26.1549 55.124 28.7963C55.124 31.4377 57.4648 33.579 60.3524 33.579Z" fill="url(#paint11_linear_2123_12155)"/>
</g>
<mask id="mask6_2123_12155" style="mask-type:alpha" maskUnits="userSpaceOnUse" x="-6" y="47" width="12" height="11">
<path d="M-0.209111 57.544C2.67845 57.544 5.01928 55.4027 5.01928 52.7612C5.01928 50.1198 2.67845 47.9785 -0.209111 47.9785C-3.09667 47.9785 -5.4375 50.1198 -5.4375 52.7612C-5.4375 55.4027 -3.09667 57.544 -0.209111 57.544Z" fill="url(#paint12_linear_2123_12155)"/>
</mask>
<g mask="url(#mask6_2123_12155)">
<path d="M-0.209111 57.544C2.67845 57.544 5.01928 55.4027 5.01928 52.7612C5.01928 50.1198 2.67845 47.9785 -0.209111 47.9785C-3.09667 47.9785 -5.4375 50.1198 -5.4375 52.7612C-5.4375 55.4027 -3.09667 57.544 -0.209111 57.544Z" fill="url(#paint13_linear_2123_12155)"/>
</g>
<mask id="mask7_2123_12155" style="mask-type:alpha" maskUnits="userSpaceOnUse" x="24" y="47" width="12" height="11">
<path d="M30.0712 57.544C32.9587 57.544 35.2996 55.4027 35.2996 52.7612C35.2996 50.1198 32.9587 47.9785 30.0712 47.9785C27.1836 47.9785 24.8428 50.1198 24.8428 52.7612C24.8428 55.4027 27.1836 57.544 30.0712 57.544Z" fill="url(#paint14_linear_2123_12155)"/>
</mask>
<g mask="url(#mask7_2123_12155)">
<path d="M30.0712 57.544C32.9587 57.544 35.2996 55.4027 35.2996 52.7612C35.2996 50.1198 32.9587 47.9785 30.0712 47.9785C27.1836 47.9785 24.8428 50.1198 24.8428 52.7612C24.8428 55.4027 27.1836 57.544 30.0712 57.544Z" fill="url(#paint15_linear_2123_12155)"/>
</g>
<mask id="mask8_2123_12155" style="mask-type:alpha" maskUnits="userSpaceOnUse" x="55" y="47" width="11" height="11">
<path d="M60.3524 57.544C63.24 57.544 65.5808 55.4027 65.5808 52.7612C65.5808 50.1198 63.24 47.9785 60.3524 47.9785C57.4648 47.9785 55.124 50.1198 55.124 52.7612C55.124 55.4027 57.4648 57.544 60.3524 57.544Z" fill="url(#paint16_linear_2123_12155)"/>
</mask>
<g mask="url(#mask8_2123_12155)">
<path d="M60.3524 57.544C63.24 57.544 65.5808 55.4027 65.5808 52.7612C65.5808 50.1198 63.24 47.9785 60.3524 47.9785C57.4648 47.9785 55.124 50.1198 55.124 52.7612C55.124 55.4027 57.4648 57.544 60.3524 57.544Z" fill="url(#paint17_linear_2123_12155)"/>
</g>
<mask id="mask9_2123_12155" style="mask-type:alpha" maskUnits="userSpaceOnUse" x="-6" y="71" width="12" height="11">
<path d="M-0.209111 81.5537C2.67845 81.5537 5.01928 79.4124 5.01928 76.771C5.01928 74.1296 2.67845 71.9883 -0.209111 71.9883C-3.09667 71.9883 -5.4375 74.1296 -5.4375 76.771C-5.4375 79.4124 -3.09667 81.5537 -0.209111 81.5537Z" fill="url(#paint18_linear_2123_12155)"/>
</mask>
<g mask="url(#mask9_2123_12155)">
<path d="M-0.209111 81.5557C2.67845 81.5557 5.01928 79.4143 5.01928 76.7729C5.01928 74.1315 2.67845 71.9902 -0.209111 71.9902C-3.09667 71.9902 -5.4375 74.1315 -5.4375 76.7729C-5.4375 79.4143 -3.09667 81.5557 -0.209111 81.5557Z" fill="url(#paint19_linear_2123_12155)"/>
</g>
<mask id="mask10_2123_12155" style="mask-type:alpha" maskUnits="userSpaceOnUse" x="24" y="71" width="12" height="11">
<path d="M30.0712 81.5537C32.9587 81.5537 35.2996 79.4124 35.2996 76.771C35.2996 74.1296 32.9587 71.9883 30.0712 71.9883C27.1836 71.9883 24.8428 74.1296 24.8428 76.771C24.8428 79.4124 27.1836 81.5537 30.0712 81.5537Z" fill="url(#paint20_linear_2123_12155)"/>
</mask>
<g mask="url(#mask10_2123_12155)">
<path d="M30.0712 81.5557C32.9587 81.5557 35.2996 79.4143 35.2996 76.7729C35.2996 74.1315 32.9587 71.9902 30.0712 71.9902C27.1836 71.9902 24.8428 74.1315 24.8428 76.7729C24.8428 79.4143 27.1836 81.5557 30.0712 81.5557Z" fill="url(#paint21_linear_2123_12155)"/>
</g>
<mask id="mask11_2123_12155" style="mask-type:alpha" maskUnits="userSpaceOnUse" x="55" y="71" width="11" height="11">
<path d="M60.3524 81.5537C63.24 81.5537 65.5808 79.4124 65.5808 76.771C65.5808 74.1296 63.24 71.9883 60.3524 71.9883C57.4648 71.9883 55.124 74.1296 55.124 76.771C55.124 79.4124 57.4648 81.5537 60.3524 81.5537Z" fill="url(#paint22_linear_2123_12155)"/>
</mask>
<g mask="url(#mask11_2123_12155)">
<path d="M60.3524 81.5557C63.24 81.5557 65.5808 79.4143 65.5808 76.7729C65.5808 74.1315 63.24 71.9902 60.3524 71.9902C57.4648 71.9902 55.124 74.1315 55.124 76.7729C55.124 79.4143 57.4648 81.5557 60.3524 81.5557Z" fill="url(#paint23_linear_2123_12155)"/>
</g>
<mask id="mask12_2123_12155" style="mask-type:alpha" maskUnits="userSpaceOnUse" x="-6" y="95" width="12" height="11">
<path d="M-0.209111 105.522C2.67845 105.522 5.01928 103.381 5.01928 100.74C5.01928 98.0984 2.67845 95.957 -0.209111 95.957C-3.09667 95.957 -5.4375 98.0984 -5.4375 100.74C-5.4375 103.381 -3.09667 105.522 -0.209111 105.522Z" fill="url(#paint24_linear_2123_12155)"/>
</mask>
<g mask="url(#mask12_2123_12155)">
<path d="M-0.209111 105.521C2.67845 105.521 5.01928 103.379 5.01928 100.738C5.01928 98.0964 2.67845 95.9551 -0.209111 95.9551C-3.09667 95.9551 -5.4375 98.0964 -5.4375 100.738C-5.4375 103.379 -3.09667 105.521 -0.209111 105.521Z" fill="url(#paint25_linear_2123_12155)"/>
</g>
<mask id="mask13_2123_12155" style="mask-type:alpha" maskUnits="userSpaceOnUse" x="24" y="95" width="12" height="11">
<path d="M30.0712 105.522C32.9587 105.522 35.2996 103.381 35.2996 100.74C35.2996 98.0984 32.9587 95.957 30.0712 95.957C27.1836 95.957 24.8428 98.0984 24.8428 100.74C24.8428 103.381 27.1836 105.522 30.0712 105.522Z" fill="url(#paint26_linear_2123_12155)"/>
</mask>
<g mask="url(#mask13_2123_12155)">
<path d="M30.0712 105.521C32.9587 105.521 35.2996 103.379 35.2996 100.738C35.2996 98.0964 32.9587 95.9551 30.0712 95.9551C27.1836 95.9551 24.8428 98.0964 24.8428 100.738C24.8428 103.379 27.1836 105.521 30.0712 105.521Z" fill="url(#paint27_linear_2123_12155)"/>
</g>
<mask id="mask14_2123_12155" style="mask-type:alpha" maskUnits="userSpaceOnUse" x="55" y="95" width="11" height="11">
<path d="M60.3524 105.522C63.24 105.522 65.5808 103.381 65.5808 100.74C65.5808 98.0984 63.24 95.957 60.3524 95.957C57.4648 95.957 55.124 98.0984 55.124 100.74C55.124 103.381 57.4648 105.522 60.3524 105.522Z" fill="url(#paint28_linear_2123_12155)"/>
</mask>
<g mask="url(#mask14_2123_12155)">
<path d="M60.3524 105.521C63.24 105.521 65.5808 103.379 65.5808 100.738C65.5808 98.0964 63.24 95.9551 60.3524 95.9551C57.4648 95.9551 55.124 98.0964 55.124 100.738C55.124 103.379 57.4648 105.521 60.3524 105.521Z" fill="url(#paint29_linear_2123_12155)"/>
</g>
</g>
<defs>
<linearGradient id="paint0_linear_2123_12155" x1="41.4053" y1="101.436" x2="-20.0052" y2="-68.9783" gradientUnits="userSpaceOnUse">
<stop/>
<stop offset="1" stop-color="white"/>
</linearGradient>
<linearGradient id="paint1_linear_2123_12155" x1="-0.209111" y1="0" x2="-0.209111" y2="9.56544" gradientUnits="userSpaceOnUse">
<stop stop-color="#EE8425"/>
<stop offset="1" stop-color="#FF661A"/>
</linearGradient>
<linearGradient id="paint2_linear_2123_12155" x1="67.6087" y1="91.9932" x2="6.1982" y2="-78.4216" gradientUnits="userSpaceOnUse">
<stop/>
<stop offset="1" stop-color="white"/>
</linearGradient>
<linearGradient id="paint3_linear_2123_12155" x1="30.0712" y1="0" x2="30.0712" y2="9.56544" gradientUnits="userSpaceOnUse">
<stop stop-color="#EE8425"/>
<stop offset="1" stop-color="#FF661A"/>
</linearGradient>
<linearGradient id="paint4_linear_2123_12155" x1="93.8132" y1="82.5502" x2="32.4027" y2="-87.8646" gradientUnits="userSpaceOnUse">
<stop/>
<stop offset="1" stop-color="white"/>
</linearGradient>
<linearGradient id="paint5_linear_2123_12155" x1="60.3524" y1="0" x2="60.3524" y2="9.56544" gradientUnits="userSpaceOnUse">
<stop stop-color="#EE8425"/>
<stop offset="1" stop-color="#FF661A"/>
</linearGradient>
<linearGradient id="paint6_linear_2123_12155" x1="32.4628" y1="104.66" x2="-28.9466" y2="-65.7531" gradientUnits="userSpaceOnUse">
<stop/>
<stop offset="1" stop-color="white"/>
</linearGradient>
<linearGradient id="paint7_linear_2123_12155" x1="-0.209111" y1="24.0137" x2="-0.209111" y2="33.579" gradientUnits="userSpaceOnUse">
<stop stop-color="#EE8425"/>
<stop offset="1" stop-color="#FF661A"/>
</linearGradient>
<linearGradient id="paint8_linear_2123_12155" x1="58.6663" y1="95.2174" x2="-2.74312" y2="-75.1961" gradientUnits="userSpaceOnUse">
<stop/>
<stop offset="1" stop-color="white"/>
</linearGradient>
<linearGradient id="paint9_linear_2123_12155" x1="30.0712" y1="24.0137" x2="30.0712" y2="33.579" gradientUnits="userSpaceOnUse">
<stop stop-color="#EE8425"/>
<stop offset="1" stop-color="#FF661A"/>
</linearGradient>
<linearGradient id="paint10_linear_2123_12155" x1="84.8709" y1="85.7745" x2="23.4615" y2="-84.6389" gradientUnits="userSpaceOnUse">
<stop/>
<stop offset="1" stop-color="white"/>
</linearGradient>
<linearGradient id="paint11_linear_2123_12155" x1="60.3524" y1="24.0137" x2="60.3524" y2="33.579" gradientUnits="userSpaceOnUse">
<stop stop-color="#EE8425"/>
<stop offset="1" stop-color="#FF661A"/>
</linearGradient>
<linearGradient id="paint12_linear_2123_12155" x1="23.5204" y1="107.883" x2="-37.89" y2="-62.5316" gradientUnits="userSpaceOnUse">
<stop/>
<stop offset="1" stop-color="white"/>
</linearGradient>
<linearGradient id="paint13_linear_2123_12155" x1="-0.209111" y1="47.9785" x2="-0.209111" y2="57.544" gradientUnits="userSpaceOnUse">
<stop stop-color="#EE8425"/>
<stop offset="1" stop-color="#FF661A"/>
</linearGradient>
<linearGradient id="paint14_linear_2123_12155" x1="49.7239" y1="98.44" x2="-11.6866" y2="-71.9747" gradientUnits="userSpaceOnUse">
<stop/>
<stop offset="1" stop-color="white"/>
</linearGradient>
<linearGradient id="paint15_linear_2123_12155" x1="30.0712" y1="47.9785" x2="30.0712" y2="57.544" gradientUnits="userSpaceOnUse">
<stop stop-color="#EE8425"/>
<stop offset="1" stop-color="#FF661A"/>
</linearGradient>
<linearGradient id="paint16_linear_2123_12155" x1="75.9285" y1="88.9971" x2="14.5179" y2="-81.4177" gradientUnits="userSpaceOnUse">
<stop/>
<stop offset="1" stop-color="white"/>
</linearGradient>
<linearGradient id="paint17_linear_2123_12155" x1="60.3524" y1="47.9785" x2="60.3524" y2="57.544" gradientUnits="userSpaceOnUse">
<stop stop-color="#EE8425"/>
<stop offset="1" stop-color="#FF661A"/>
</linearGradient>
<linearGradient id="paint18_linear_2123_12155" x1="14.578" y1="111.102" x2="-46.8324" y2="-59.3125" gradientUnits="userSpaceOnUse">
<stop/>
<stop offset="1" stop-color="white"/>
</linearGradient>
<linearGradient id="paint19_linear_2123_12155" x1="-0.209111" y1="71.9902" x2="-0.209111" y2="81.5557" gradientUnits="userSpaceOnUse">
<stop stop-color="#EE8425"/>
<stop offset="1" stop-color="#FF661A"/>
</linearGradient>
<linearGradient id="paint20_linear_2123_12155" x1="40.7816" y1="101.659" x2="-20.6289" y2="-68.7556" gradientUnits="userSpaceOnUse">
<stop/>
<stop offset="1" stop-color="white"/>
</linearGradient>
<linearGradient id="paint21_linear_2123_12155" x1="30.0712" y1="71.9902" x2="30.0712" y2="81.5557" gradientUnits="userSpaceOnUse">
<stop stop-color="#EE8425"/>
<stop offset="1" stop-color="#FF661A"/>
</linearGradient>
<linearGradient id="paint22_linear_2123_12155" x1="66.9861" y1="92.2161" x2="5.57558" y2="-78.1987" gradientUnits="userSpaceOnUse">
<stop/>
<stop offset="1" stop-color="white"/>
</linearGradient>
<linearGradient id="paint23_linear_2123_12155" x1="60.3524" y1="71.9902" x2="60.3524" y2="81.5557" gradientUnits="userSpaceOnUse">
<stop stop-color="#EE8425"/>
<stop offset="1" stop-color="#FF661A"/>
</linearGradient>
<linearGradient id="paint24_linear_2123_12155" x1="5.63568" y1="114.33" x2="-55.7748" y2="-56.0846" gradientUnits="userSpaceOnUse">
<stop/>
<stop offset="1" stop-color="white"/>
</linearGradient>
<linearGradient id="paint25_linear_2123_12155" x1="-0.209111" y1="95.9551" x2="-0.209111" y2="105.521" gradientUnits="userSpaceOnUse">
<stop stop-color="#EE8425"/>
<stop offset="1" stop-color="#FF661A"/>
</linearGradient>
<linearGradient id="paint26_linear_2123_12155" x1="31.8392" y1="104.887" x2="-29.5713" y2="-65.5277" gradientUnits="userSpaceOnUse">
<stop/>
<stop offset="1" stop-color="white"/>
</linearGradient>
<linearGradient id="paint27_linear_2123_12155" x1="30.0712" y1="95.9551" x2="30.0712" y2="105.521" gradientUnits="userSpaceOnUse">
<stop stop-color="#EE8425"/>
<stop offset="1" stop-color="#FF661A"/>
</linearGradient>
<linearGradient id="paint28_linear_2123_12155" x1="58.0438" y1="95.444" x2="-3.36677" y2="-74.9707" gradientUnits="userSpaceOnUse">
<stop/>
<stop offset="1" stop-color="white"/>
</linearGradient>
<linearGradient id="paint29_linear_2123_12155" x1="60.3524" y1="95.9551" x2="60.3524" y2="105.521" gradientUnits="userSpaceOnUse">
<stop stop-color="#EE8425"/>
<stop offset="1" stop-color="#FF661A"/>
</linearGradient>
</defs>
</svg>
