<svg width="151" height="167" viewBox="0 0 151 167" fill="none" xmlns="http://www.w3.org/2000/svg">
<path opacity="0.8" d="M72.6742 92.8622C77.2188 90.6051 81.465 87.7397 85.2608 84.3683C88.9912 80.9684 92.274 77.1595 95.0147 73.0511C97.7585 69.0702 100.028 64.859 101.773 60.5085C103.538 56.1652 104.517 51.6722 104.666 47.2349C104.731 44.9988 104.451 42.8133 103.835 40.7463C103.225 38.5865 102.094 36.6515 100.523 35.0788C98.7445 33.3448 96.3086 32.3145 93.6029 32.1518C90.8196 32.0546 87.9473 32.7166 85.319 34.0611C84.0818 34.6641 82.8846 35.3555 81.7393 36.1283C80.6643 36.8966 79.6249 37.7121 78.6251 38.5715C77.6617 39.3962 76.7475 40.272 75.8883 41.1932L74.5172 42.5852L73.3281 43.9718C70.3611 47.5438 67.7302 51.3315 65.4726 55.2813C63.2076 59.1305 61.4902 63.1859 60.3713 67.3269C59.3137 71.2548 58.849 75.2243 58.9917 79.1112L59.0229 80.5171L59.1926 81.8878C59.2965 82.7881 59.4031 83.7262 59.5295 84.5914C59.8264 86.3353 60.2222 88.0499 60.7151 89.7284C61.0064 90.699 61.3544 91.6508 61.7023 92.6025C60.6785 92.905 59.7312 93.1156 58.6322 93.41C54.5641 94.3463 50.4604 94.7745 46.4318 94.683C42.5835 94.5481 38.8666 93.8507 35.4091 92.6146C28.9126 90.0498 23.3404 86.0266 19.1112 80.8474C15.1525 75.991 12.0191 70.5315 9.8014 64.6265C7.74978 59.2282 6.19288 53.6159 5.14591 47.8445C4.1685 42.8026 3.56195 37.6543 3.33027 32.434C2.94784 24.788 3.91643 16.949 6.19766 9.22767C7.94473 3.69401 9.62373 0.644859 9.27546 0.644769C8.69882 1.28358 8.2268 1.99446 7.87907 2.74775C6.73394 4.81491 5.74755 6.93958 4.92862 9.10297C2.11327 16.9273 0.736223 24.9617 0.861885 32.8308C0.887487 38.2074 1.31162 43.5209 2.13123 48.7332C3.01488 54.7125 4.43153 60.5404 6.36699 66.1585C8.51159 72.4173 11.6392 78.2235 15.6567 83.404C20.0793 89.1294 26.0056 93.6095 32.9752 96.4963C36.8086 97.9617 40.949 98.819 45.2497 99.038C49.7502 99.2185 54.3477 98.8012 58.9119 97.798C60.4861 97.4726 62.0524 97.0651 63.6034 96.5772C65.2888 100.06 67.3289 103.344 69.699 106.39C76.0864 114.433 83.8483 121.356 92.7339 126.937C99.1358 131.028 105.956 134.571 113.13 137.532C121.041 140.875 129.441 143.341 138.184 144.887L140.947 145.261L138.279 146.249C135.43 147.381 132.722 148.616 130.151 149.816C125.627 151.994 121.236 154.475 117.018 157.236C109.8 161.966 105.976 165.647 106.34 166.112C106.704 166.577 111.204 163.921 118.476 160.086C122.15 158.192 126.516 155.984 131.468 153.853C133.955 152.769 136.568 151.699 139.283 150.678C140.658 150.176 142.048 149.662 143.457 149.176C144.17 148.927 144.812 148.746 145.844 148.32C147.204 147.792 148.407 146.88 149.271 145.722C149.719 145.095 150.038 144.404 150.208 143.695C150.332 143.138 150.38 142.579 150.35 142.032C150.283 141.229 150.123 140.448 149.873 139.702C149.516 138.499 149.127 137.317 148.773 136.152C148.023 133.829 147.271 131.607 146.544 129.487C145.025 125.291 143.512 121.646 142.117 118.515C139.375 112.458 137.13 108.897 136.432 109.235C135.734 109.573 136.653 113.742 138.457 120.26L141.743 131.635C142.366 133.773 143.011 136.009 143.676 138.343C144.005 139.506 144.353 140.695 144.701 141.885C144.712 141.916 144.731 141.944 144.756 141.966C143.754 141.62 142.313 141.176 140.219 140.624C132.099 138.398 124.224 135.643 116.644 132.377C109.84 129.355 103.35 125.837 97.2235 121.85C88.8321 116.479 81.4849 109.873 75.4059 102.236C73.4359 99.6799 71.7051 96.9514 70.2293 94.0754C71.0658 93.7026 71.9023 93.3297 72.7203 92.9298L72.6742 92.8622ZM67.2673 86.8806C66.8067 85.4025 66.4334 83.8909 66.1487 82.3519C66.021 81.5868 65.9408 80.7892 65.8355 79.9889L65.6947 78.7966L65.6674 77.5665C65.504 74.233 65.8822 70.8209 66.7893 67.4448C67.7297 63.8682 69.1895 60.3622 71.1248 57.032C73.1129 53.4692 75.445 50.0511 78.0869 46.828L79.0978 45.6224L80.1641 44.4981C80.8632 43.7524 81.5998 43.0378 82.3705 42.3574C83.1174 41.6493 83.8709 41.1547 84.7272 40.471C85.511 39.9331 86.3319 39.4522 87.1814 39.0333C88.5883 38.1911 90.1851 37.7755 91.7231 37.8512C93.2611 37.9269 94.654 38.4897 95.6849 39.4519C97.825 41.8875 98.8821 45.0828 98.6754 48.4905C98.5844 52.2792 97.7904 56.1214 96.3289 59.8447C94.7983 63.7675 92.796 67.5702 90.3651 71.171C88.0046 74.8228 85.1556 78.2157 81.9018 81.2502C78.5986 84.2188 74.8965 86.7463 70.9288 88.7415C70.0725 89.1874 69.1977 89.6062 68.3296 90.0007C67.9262 88.9679 67.5479 87.9377 67.1802 86.8211" fill="url(#paint0_linear_2161_11283)"/>
<defs>
<linearGradient id="paint0_linear_2161_11283" x1="15.3319" y1="-3.49004" x2="127.631" y2="161" gradientUnits="userSpaceOnUse">
<stop stop-color="#EE8425"/>
<stop offset="1" stop-color="#FF661A"/>
</linearGradient>
</defs>
</svg>
