<svg width="121" height="114" viewBox="0 0 121 114" fill="none" xmlns="http://www.w3.org/2000/svg">
<path d="M67.8326 5.21741C70.0998 7.08154 71.8626 9.48925 72.9561 12.2155L73.331 13.2529C73.4354 13.6064 73.5212 13.9707 73.6125 14.3443C73.798 15.0592 73.9231 15.7881 73.9866 16.5233C74.1222 17.9345 74.1077 19.3552 73.9435 20.7614C73.2828 26.2588 71.0506 30.8454 71.2461 35.6478C71.1913 37.9335 71.8505 40.1836 73.1313 42.0829C74.5197 43.8108 76.5106 44.9448 78.6962 45.2524C81.0832 45.6013 83.4942 45.7447 85.903 45.6809C88.5417 45.5803 91.1826 45.8915 93.7312 46.6033C95.1963 47.0618 96.5309 47.8694 97.6206 48.9568C98.7103 50.0443 99.5226 51.3791 99.9877 52.8469C100.414 54.2374 100.58 55.694 100.476 57.142C100.39 58.4431 100.18 59.7321 99.8467 60.9909C99.2556 63.4388 98.4036 65.5859 97.9621 67.7969C97.4753 69.9705 97.2643 72.1989 97.3341 74.429C97.3729 76.5491 97.8436 78.6414 98.7174 80.5771C99.5897 82.4035 100.898 83.9874 102.525 85.1877C105.745 87.6169 109.5 89.0101 112.847 90.8395C114.544 91.7193 116.112 92.8313 117.506 94.1434C118.866 95.4272 119.842 97.0661 120.324 98.8737C120.769 100.467 120.776 102.148 120.344 103.74C119.953 105.05 119.314 106.27 118.461 107.335C117.148 108.949 115.586 110.342 113.834 111.461C112.754 112.164 111.626 112.79 110.459 113.334C109.659 113.696 109.208 113.843 109.185 113.781C109.162 113.719 110.739 112.784 113.376 110.797C114.966 109.604 116.373 108.183 117.552 106.58C118.262 105.58 118.778 104.453 119.071 103.259C119.384 101.907 119.326 100.494 118.901 99.1687C118.453 97.6789 117.596 96.3437 116.428 95.3173C115.13 94.1687 113.679 93.2084 112.117 92.4647C110.498 91.644 108.724 90.9002 106.918 90.0368C104.971 89.1754 103.112 88.1231 101.369 86.8955C100.926 86.5371 100.453 86.1707 100.019 85.8069C99.5846 85.4431 99.1779 84.9758 98.7633 84.538C97.9572 83.6035 97.2698 82.5724 96.7172 81.4686C95.6384 79.2292 95.0291 76.7939 94.9271 74.314C94.8123 71.8678 95.0045 69.4187 95.4992 67.0245C95.7248 65.841 96.0413 64.6425 96.3663 63.5019C96.6913 62.3613 97.0124 61.2355 97.2705 60.1084C97.8915 57.9863 97.9236 55.731 97.3634 53.5846C97.0353 52.6049 96.4729 51.7197 95.7257 51.0066C94.9707 50.2899 94.0567 49.7641 93.0602 49.4735C90.7959 48.9037 88.4604 48.6834 86.1343 48.8201C83.5609 48.9113 80.9832 48.7758 78.4306 48.4152C76.9891 48.1857 75.5935 47.7207 74.2993 47.0386C72.9123 46.3158 71.6926 45.3059 70.7214 44.0761C69.7617 42.8196 69.0509 41.3908 68.6279 39.8679C68.2242 38.4432 68.0033 36.9736 67.9707 35.495C67.9385 32.7451 68.2941 30.0069 69.0268 27.3617C69.6876 24.9743 70.1942 22.5457 70.5436 20.0911C70.6764 18.9444 70.6879 17.7861 70.5779 16.6355C70.5261 16.08 70.4251 15.5298 70.2761 14.9916C70.2057 14.7187 70.1501 14.4499 70.0704 14.1825L69.7698 13.403C68.9118 11.3166 67.5391 9.48082 65.7816 8.0693C62.4083 5.25721 58.116 3.8078 53.7499 4.00643C49.6969 4.36121 45.8159 5.78441 42.4992 8.13208C39.3608 10.3173 36.4819 12.8544 33.9177 15.6948C29.5484 20.4251 25.6228 25.5499 22.1899 31.005C19.6794 34.9892 17.4205 39.1285 15.4265 43.3988C13.2603 48.1567 11.3476 53.028 9.69657 57.9923C9.3478 59.3579 8.80782 60.666 8.0927 61.8775C9.0001 62.3761 10.0636 62.5001 11.0561 62.223C12.3618 61.9833 13.7073 61.6829 14.9229 61.3949C17.397 60.8066 19.5919 60.1663 21.4377 59.5896C25.12 58.4417 27.4007 57.6265 27.6249 58.0363C27.849 58.4461 25.9032 59.9708 22.3406 61.7141C20.2346 62.7144 18.0555 63.5534 15.8217 64.2239C14.5453 64.6223 13.2511 64.9683 11.7866 65.2997C10.9573 65.4879 10.105 65.5579 9.25475 65.5075C8.16152 65.4228 7.11781 65.0064 6.26224 64.3136C5.45993 63.6136 4.82456 62.7417 4.40362 61.7629C4.06619 60.9966 3.77135 60.2124 3.52049 59.4138C3.03503 57.9261 2.61951 56.4732 2.28238 55.113C1.66829 52.6693 1.24024 50.1833 1.00193 47.6767C0.608133 43.4151 0.953007 40.821 1.34563 40.8325C1.73825 40.8441 2.21987 43.425 3.12788 47.4775C3.58927 49.5058 4.17924 51.8862 4.9827 54.5069C5.37976 55.82 5.82806 57.1787 6.33696 58.5777C6.45078 58.9258 6.57784 59.2537 6.72119 59.6098C6.81691 58.9777 6.99058 58.2003 7.18334 57.111C8.42146 51.8515 10.1446 46.7219 12.3304 41.7883C16.9526 31.1841 23.3183 21.4436 31.1628 12.9718C33.9056 9.9383 36.9908 7.23558 40.3569 4.91753C44.1634 2.24921 48.6145 0.648733 53.2543 0.280034C58.5822 0.0526654 63.8108 1.85898 67.8884 5.33566" fill="url(#paint0_linear_2161_11281)"/>
<defs>
<linearGradient id="paint0_linear_2161_11281" x1="20.9713" y1="90.5571" x2="96.7568" y2="46.8024" gradientUnits="userSpaceOnUse">
<stop stop-color="#EE8425"/>
<stop offset="1" stop-color="#FF661A"/>
</linearGradient>
</defs>
</svg>
