<svg width="94" height="87" viewBox="0 0 94 87" fill="none" xmlns="http://www.w3.org/2000/svg">
<g opacity="0.18">
<path fill-rule="evenodd" clip-rule="evenodd" d="M30.6459 1.64329C22.0346 -2.48263 12.562 1.64334 7.82577 8.6574C-2.07732 14.0211 -2.07731 28.0492 5.24236 36.7136C9.11748 41.6647 13.8537 41.2521 18.1594 39.1892C18.59 39.1892 19.0205 39.1892 19.4511 39.1892C20.3122 53.2173 12.9926 64.7699 5.67292 77.1476C5.24235 76.735 3.95065 76.3224 3.52008 77.1476C2.65894 78.798 1.36724 80.4484 0.93667 82.5113C0.93667 82.9239 0.936663 83.7491 1.36723 84.1617C1.36723 85.3995 3.08949 86.2247 4.3812 84.9869C4.81177 84.5743 4.81179 84.1617 5.24236 83.7491C13.4232 77.9728 20.7428 70.5462 26.3402 61.8817C33.2293 56.1055 37.9656 48.6788 39.2573 40.0144C41.4102 35.4758 42.2713 30.5247 42.7019 26.3988C43.9936 16.084 40.9796 6.5944 30.6459 1.64329ZM6.96464 21.0352C6.96464 20.6226 7.82576 19.7973 8.25633 19.3848C8.25633 21.0351 9.11747 23.0981 9.97861 24.7485C9.97861 25.5736 9.54805 26.8114 9.54805 27.6366C8.25634 25.5736 6.96464 23.5107 6.96464 21.0352C6.96464 21.4478 6.96464 21.4478 6.96464 21.0352ZM8.68689 35.4759C4.3812 32.1751 3.08951 25.161 3.52008 20.2099C3.52008 18.9722 3.95063 17.7344 4.3812 16.4966C4.3812 16.9092 4.3812 16.9092 4.3812 17.3218C3.08949 20.6225 3.08949 23.9233 4.3812 27.224C4.3812 27.6366 4.3812 28.0492 4.3812 28.4618C4.3812 29.287 4.81179 30.1122 5.24236 30.9373C5.67293 32.1751 6.1035 33.0003 6.96464 34.2381C7.82578 35.4759 9.97862 36.301 11.7009 36.7136C12.1315 37.1262 12.562 37.1262 12.9926 37.5388C11.7009 37.1262 9.9786 36.7137 8.68689 35.4759ZM23.7568 6.18183C21.1734 5.76924 18.1594 5.76926 16.0066 6.59445C15.576 6.59445 14.7149 6.59445 14.2843 6.59445H13.8537C16.0066 4.94408 18.59 3.70625 21.604 3.70625C21.1734 4.11884 21.1734 4.53149 22.0346 4.53149C23.7568 4.53149 25.4791 4.94407 26.7708 5.35666C25.4791 5.76925 24.6179 6.18183 23.7568 6.18183ZM27.632 41.2521C27.632 40.0144 27.6319 37.9514 27.2014 36.3011C27.2014 36.3011 27.632 36.301 27.632 35.8884C28.0625 37.5388 28.0625 39.6018 27.632 41.2521ZM38.3962 18.5596C37.9656 18.147 37.1045 18.5596 37.1045 19.3848C37.9656 22.6855 37.9656 25.9863 37.1045 29.287C37.1045 28.4618 37.1045 27.6366 37.1045 26.8114C37.1045 26.3988 37.1045 26.3988 37.1045 25.9863C37.535 24.3359 37.535 23.0981 37.1045 21.4477C36.6739 16.9092 35.8127 11.9581 33.6599 8.6574C37.1045 11.133 38.3962 14.8463 38.3962 18.5596C38.3962 18.9722 38.3962 18.5596 38.3962 18.5596Z" fill="url(#paint0_linear_2172_12221)"/>
<path fill-rule="evenodd" clip-rule="evenodd" d="M81.4526 2.05736C72.8412 -2.06855 63.3687 2.05735 58.6324 9.07141C48.7293 14.4351 48.7293 28.4632 56.049 37.1277C59.9241 42.0788 64.6604 41.6662 68.9661 39.6032C69.3966 39.6032 69.8272 39.6032 70.2578 39.6032C71.1189 53.6313 63.7993 65.1839 56.4796 77.5616C56.049 77.1491 54.7573 76.7365 54.3267 77.5616C53.4656 79.212 52.1739 80.8624 51.7433 82.9253C51.7433 83.3379 51.7433 84.1631 52.1739 84.5757C52.1739 85.8135 53.8962 86.6386 55.1879 85.4009C55.6184 84.9883 55.6184 84.5757 56.049 84.1631C64.2298 78.3868 71.5495 70.9602 77.1469 62.2958C84.0361 56.5195 88.7723 49.0928 90.064 40.4284C92.2169 35.8899 93.078 30.9388 93.5085 26.8129C95.2308 16.4981 92.2169 7.00846 81.4526 2.05736ZM58.6324 21.8618C58.6324 21.4492 59.063 20.624 59.4936 20.2114C59.4936 21.8617 60.3547 23.9247 61.2158 25.5751C61.2158 26.4003 60.7853 27.638 60.7853 28.4632C59.9241 26.4002 58.6324 23.9247 58.6324 21.8618ZM59.9242 35.8899C55.6185 32.5891 54.3267 25.5751 54.7573 20.624C54.7573 19.3862 55.1879 18.1485 55.6185 16.9107C55.6185 17.3233 55.6185 17.3233 55.6185 17.7359C54.3268 21.0366 54.3268 24.3373 55.6185 27.638C55.6185 28.0506 55.6185 28.4632 55.6185 28.8758C55.6185 29.701 56.049 30.5262 56.4796 31.3514C56.9102 32.5892 57.3407 33.4143 58.2018 34.6521C59.063 35.8899 61.2159 36.7151 62.9381 37.1277C63.3687 37.5402 63.7993 37.5402 64.2299 37.9528C62.9381 37.5402 61.2159 37.1276 59.9242 35.8899ZM74.9941 7.00845C72.4107 6.59586 69.3967 6.59588 67.2438 7.42107C66.8133 7.42107 65.9521 7.42107 65.5215 7.42107H65.091C67.2438 5.7707 69.8273 4.53294 72.8412 4.53294C72.4107 4.94553 72.4106 5.35811 73.2718 5.35811C74.9941 5.35811 76.7164 5.77069 78.0081 6.18328C76.7164 6.59587 75.8552 6.59586 74.9941 7.00845ZM78.8692 41.6662C78.8692 41.6662 78.8692 42.0788 78.8692 41.6662C78.8692 40.4284 78.8692 38.3654 78.4386 36.715C78.4386 36.715 78.8692 36.7151 78.8692 36.3025C79.2998 38.3654 79.2998 40.0158 78.8692 41.6662ZM89.6334 18.9736C89.2029 18.5611 88.3417 18.9736 88.3417 19.7988C89.2028 23.0995 89.2028 26.4003 88.3417 29.701C88.3417 28.8758 88.3417 28.0507 88.3417 27.2255C88.3417 26.8129 88.3417 26.8128 88.3417 26.4002C88.7723 24.7499 88.7723 23.5121 88.3417 21.8618C87.9111 17.3233 87.05 12.3721 84.8971 9.07141C87.9111 11.9595 89.2029 15.6729 89.6334 18.9736C89.6334 19.3862 89.6334 19.3862 89.6334 18.9736Z" fill="url(#paint1_linear_2172_12221)"/>
</g>
<defs>
<linearGradient id="paint0_linear_2172_12221" x1="21.5111" y1="0" x2="21.5111" y2="85.5992" gradientUnits="userSpaceOnUse">
<stop stop-color="#EE8425"/>
<stop offset="1" stop-color="#FF661A"/>
</linearGradient>
<linearGradient id="paint1_linear_2172_12221" x1="72.4036" y1="0.414062" x2="72.4036" y2="86.0131" gradientUnits="userSpaceOnUse">
<stop stop-color="#EE8425"/>
<stop offset="1" stop-color="#FF661A"/>
</linearGradient>
</defs>
</svg>
