<svg width="100" height="96" viewBox="0 0 100 96" fill="none" xmlns="http://www.w3.org/2000/svg">
<path opacity="0.3" d="M93.7344 55.4084C93.7344 68.2149 84.3571 79.2091 71.7472 81.4447C55.5452 84.3171 40.4118 71.9039 40.4118 55.4493C40.4118 40.8417 52.4862 29 67.0937 29C81.6786 29 93.7344 40.8234 93.7344 55.4084Z" fill="url(#paint0_linear_4051_19237)"/>
<path d="M63.2706 10H11.2874C8.92574 10 7 11.9257 7 14.2874V65.7126C7 68.0743 8.92574 70 11.2874 70H63.2706C65.6323 70 67.558 68.0743 67.558 65.7126V14.2874C67.558 11.9257 65.6323 10 63.2706 10ZM9.42262 14.2874C9.42262 13.2578 10.2585 12.422 11.288 12.422H63.2713C64.3008 12.422 65.1367 13.2578 65.1367 14.2874V20.9004H9.42262V14.2874ZM65.1367 65.7139C65.1367 66.7435 64.3008 67.5793 63.2713 67.5793L11.288 67.5788C10.2585 67.5788 9.42262 66.7429 9.42262 65.7139V23.323H65.1354L65.1367 65.7139Z" fill="#54585F"/>
<path d="M27.7229 58.5407C27.9409 58.6983 28.1832 58.7708 28.4377 58.7708C28.8133 58.7708 29.1762 58.601 29.4185 58.274L47.1018 34.0505C47.5013 33.5055 47.3806 32.7543 46.8352 32.3549C46.2903 31.9555 45.539 32.0761 45.1397 32.6216L27.4563 56.8451C27.0569 57.39 27.1781 58.1408 27.723 58.5407H27.7229Z" fill="#54585F"/>
<path d="M28.8026 44.0457C31.8303 44.0457 34.3014 41.0419 34.3014 37.348C34.3014 33.6542 31.8308 30.6504 28.8026 30.6504C25.7749 30.6504 23.3037 33.6542 23.3037 37.348C23.3037 41.0424 25.7743 44.0457 28.8026 44.0457ZM28.8026 33.0727C30.4738 33.0727 31.879 35.0349 31.879 37.3479C31.879 39.6614 30.4738 41.6231 28.8026 41.6231C27.1313 41.6231 25.7262 39.6609 25.7262 37.3479C25.7262 35.0349 27.143 33.0727 28.8026 33.0727Z" fill="#54585F"/>
<path d="M40.248 53.5531C40.248 57.2469 42.7187 60.2508 45.7469 60.2508C48.7746 60.2508 51.2458 57.2469 51.2458 53.5531C51.2458 49.8593 48.7752 46.8555 45.7469 46.8555C42.7187 46.8555 40.248 49.8589 40.248 53.5531ZM48.835 53.5531C48.835 55.8666 47.4299 57.8283 45.7586 57.8283C44.0873 57.8283 42.6822 55.8661 42.6822 53.5531C42.6822 51.2396 44.0873 49.278 45.7586 49.278C47.4304 49.2774 48.835 51.2396 48.835 53.5531Z" fill="#54585F"/>
<path d="M15.6238 15.4492H14.0372C13.3711 15.4492 12.8262 15.9941 12.8262 16.6602C12.8262 17.3263 13.3711 17.8712 14.0372 17.8712H15.6238C16.2899 17.8712 16.8348 17.3263 16.8348 16.6602C16.8348 15.9941 16.2899 15.4492 15.6238 15.4492Z" fill="#54585F"/>
<path d="M21.1219 15.4492H19.5352C18.8691 15.4492 18.3242 15.9941 18.3242 16.6602C18.3242 17.3263 18.8691 17.8712 19.5352 17.8712H21.1219C21.7879 17.8712 22.3328 17.3263 22.3328 16.6602C22.3334 15.9941 21.7879 15.4492 21.1219 15.4492Z" fill="#54585F"/>
<path d="M26.6219 15.4492H25.0352C24.3691 15.4492 23.8242 15.9941 23.8242 16.6602C23.8242 17.3263 24.3691 17.8712 25.0352 17.8712H26.6219C27.2879 17.8712 27.8328 17.3263 27.8328 16.6602C27.8328 15.9941 27.2879 15.4492 26.6219 15.4492Z" fill="#54585F"/>
<path d="M60.5217 15.4492H38.1758C37.5098 15.4492 36.9648 15.9941 36.9648 16.6602C36.9648 17.3263 37.5098 17.8712 38.1758 17.8712H60.5217C61.1877 17.8712 61.7327 17.3263 61.7327 16.6602C61.7332 15.9941 61.1877 15.4492 60.5217 15.4492Z" fill="#54585F"/>
<defs>
<linearGradient id="paint0_linear_4051_19237" x1="67.0731" y1="87" x2="67.0731" y2="29" gradientUnits="userSpaceOnUse">
<stop stop-color="#EE8425"/>
<stop offset="1" stop-color="#FF661A"/>
</linearGradient>
</defs>
</svg>
