<svg width="100" height="96" viewBox="0 0 100 96" fill="none" xmlns="http://www.w3.org/2000/svg">
<path opacity="0.3" d="M53.8262 30.1441C53.8262 40.9766 46.0792 50.259 35.4214 52.1965C21.663 54.6977 8.99859 44.128 8.99859 30.1442L8.99859 29.4138C8.99859 17.035 19.0336 7 31.4124 7C43.7912 7 53.8262 17.035 53.8262 29.4138L53.8262 30.1441Z" fill="url(#paint0_linear_4051_19231)"/>
<path d="M60.9011 38.0621H59.4724C58.9619 32.7563 54.7787 28.4706 49.4722 27.9601V25.7155C49.4722 25.1032 49.0642 24.6953 48.452 24.6953C47.8398 24.6953 47.4318 25.1032 47.4318 25.7155V27.9601C42.126 28.4706 37.8403 32.6537 37.3299 38.0621H36.0036C35.3913 38.0621 34.9834 38.47 34.9834 39.0823C34.9834 39.6945 35.3913 40.1025 36.0036 40.1025H60.9025C61.5148 40.1025 61.9227 39.6945 61.9227 39.0823C61.922 38.47 61.4123 38.0621 60.9019 38.0621H60.9011ZM39.3712 38.0621C39.8817 33.5721 43.7587 30.0012 48.4531 30.0012C53.1467 30.0012 56.9226 33.5728 57.4324 38.0621H39.3712Z" fill="#54585F"/>
<path d="M32.9424 76.0202H56.0029L57.2274 78.6735L57.3292 78.7753C59.1659 82.5506 62.7376 85.1021 66.8189 85.8161C67.533 85.9179 68.1452 86.4284 68.4513 87.0406L69.574 89.3878C69.7783 89.7957 70.0845 90 70.4924 90C70.5942 90 70.7985 90 70.9003 89.8982C71.4107 89.6939 71.6144 89.0816 71.4107 88.5719L70.2881 86.2247C69.6758 84.8984 68.5532 84.0819 67.1251 83.7758C63.5534 83.1635 60.4922 80.8164 58.9616 77.5515L57.1249 73.572L54.4716 67.7557L53.7576 66.2251C53.5532 65.8172 53.5532 65.3067 53.6557 64.8988C53.8601 64.4909 54.1662 64.0822 54.5741 63.8786C55.1863 63.5725 55.7986 63.5725 56.4108 63.7768C56.8188 63.8786 57.5335 64.2872 57.8396 65.0013L59.6763 68.8791C59.7782 68.9809 59.7782 69.0834 59.8807 69.1852C59.9825 69.287 60.085 69.287 60.1868 69.3895C60.2886 69.3895 60.3911 69.4913 60.4929 69.4913C60.5947 69.4913 60.799 69.4913 60.9008 69.3895C61.4113 69.1852 61.6149 68.5729 61.4113 68.0632L59.5745 64.1854L52.9417 49.7978C52.7374 49.2873 52.6356 48.6751 52.8399 48.1654C53.0442 47.6549 53.4521 47.247 53.9626 46.9409C54.1669 46.8391 54.473 46.7366 54.7791 46.7366H54.8809C55.0852 46.7366 55.3914 46.7366 55.595 46.8384C56.1054 47.0427 56.5133 47.4506 56.8195 47.9611L65.3908 66.428C65.4926 66.5298 65.4926 66.6323 65.5951 66.7341L65.697 66.8359C65.7988 66.9377 65.7988 66.9377 65.9013 66.9377H66.0031C66.1049 66.9377 66.2074 67.0396 66.3092 67.0396C66.411 67.0396 66.6153 67.0396 66.7171 66.9377C67.2276 66.7334 67.4312 66.1212 67.2276 65.6115L62.2278 54.8972C61.7174 53.8771 62.2278 52.6526 63.248 52.1421C63.7584 51.9378 64.3707 51.836 64.8804 52.0403C65.3908 52.2446 65.7988 52.6526 66.1049 53.163L71.1046 63.8772C71.2064 63.979 71.2064 64.0815 71.3089 64.1834L71.4108 64.2852C71.5126 64.387 71.5126 64.387 71.6151 64.387H71.7169C71.8187 64.387 71.9212 64.4888 72.023 64.4888C72.1248 64.4888 72.3291 64.4888 72.4309 64.387C72.9414 64.1827 73.145 63.5704 72.9414 63.0607L68.9618 54.4893C68.7575 53.9789 68.6557 53.3666 68.86 52.8569C69.0643 52.3465 69.4722 51.9385 69.9827 51.6324C71.0028 51.122 72.2273 51.6324 72.7377 52.6526L73.35 54.0814L76.7173 61.224C76.9216 61.7344 77.5339 61.938 78.0436 61.7344C78.554 61.5301 78.7576 60.9178 78.554 60.4081L75.1867 53.2655C74.6763 52.2454 75.1867 51.0209 76.2069 50.5104C76.7173 50.3061 77.3296 50.2043 77.8393 50.4086C78.3497 50.6129 78.7576 51.0209 79.0638 51.5313L84.2678 62.8578L85.6966 65.919C86.615 67.96 86.7168 68.8784 86.7168 70.8169V72.0414C86.8186 74.8983 87.4308 77.5516 88.5535 79.8987L88.8596 80.6128C89.0639 81.0207 89.3701 81.225 89.778 81.225C89.8798 81.225 90.0841 81.225 90.1859 81.1232C90.6964 80.9189 90.9 80.3066 90.6964 79.7969L90.3902 79.0829C89.3701 76.94 88.8596 74.5929 88.7578 71.9403V70.7158C88.656 68.6748 88.656 67.4503 87.5333 65.1038L84.166 57.8587L80.9005 50.6122C80.3901 49.5921 79.5742 48.8773 78.5533 48.4694C77.5332 48.0615 76.4105 48.1633 75.3903 48.5712C74.5738 48.9791 73.8597 49.5914 73.4518 50.4079C72.7377 49.7957 71.8194 49.4896 70.7985 49.3878V16.939C70.7985 13.0612 67.6355 10 63.8595 10H32.9414C29.0636 10 26.0024 13.163 26.0024 16.939V69.0827C25.9006 72.9597 29.0636 76.021 32.9414 76.021L32.9424 76.0202ZM32.9424 73.9792C30.2891 73.9792 28.1463 71.9382 28.0445 69.2856H52.9417L55.0845 73.9792H32.9424ZM51.3096 50.8155L51.8201 51.8357H41.6163C40.29 51.8357 39.1673 50.713 39.1673 49.3867C39.1673 48.7745 39.3716 48.1622 39.8814 47.6518C40.2893 47.2439 40.9015 46.9377 41.6163 46.9377H51.5139C51.4121 47.142 51.3096 47.3457 51.2078 47.6518C50.7992 48.6726 50.7992 49.7953 51.3096 50.8155H51.3096ZM67.3297 51.3259C66.9218 50.8155 66.3095 50.3058 65.5948 50.1014C64.5746 49.6935 63.452 49.7953 62.4318 50.2033C61.7177 50.5094 61.2073 51.0198 60.7994 51.6321L58.7583 47.2446C58.2479 46.2244 57.432 45.5096 56.4112 45.1017C56.0033 44.8974 55.4928 44.8974 55.0849 44.8974H54.9831H54.8813H54.7795H41.5145C40.29 44.8974 39.1673 45.4078 38.3514 46.2237C37.5342 47.0402 37.0238 48.1629 37.0238 49.3874C37.0238 51.8364 39.0648 53.8774 41.5138 53.8774H52.6359L56.3094 61.8365C55.391 61.6322 54.4727 61.7347 53.6561 62.1427C52.7377 62.5506 52.0237 63.3671 51.7176 64.2855C51.4115 65.2039 51.4115 66.224 51.8194 67.1424V67.2442H27.942V18.7757H68.7575V49.8985C68.2477 50.3065 67.7373 50.7144 67.3294 51.3267L67.3297 51.3259ZM32.9427 12.041H63.9624C66.6157 12.041 68.7585 14.0821 68.8603 16.7346H28.0448C28.1466 14.1839 30.2895 12.041 32.9427 12.041Z" fill="#54585F"/>
<defs>
<linearGradient id="paint0_linear_4051_19231" x1="31.4124" y1="57" x2="31.4124" y2="7" gradientUnits="userSpaceOnUse">
<stop stop-color="#EE8425"/>
<stop offset="1" stop-color="#FF661A"/>
</linearGradient>
</defs>
</svg>
