<svg width="100" height="96" viewBox="0 0 100 96" fill="none" xmlns="http://www.w3.org/2000/svg">
<circle opacity="0.3" cx="32.5" cy="49.5" r="23.5" fill="url(#paint0_linear_4051_19289)"/>
<path fill-rule="evenodd" clip-rule="evenodd" d="M28.5395 61.6067L43.2292 76.2964C43.7068 76.7735 44.4828 76.7735 44.9605 76.2964C45.4375 75.8188 45.4375 75.0427 44.9605 74.5651L30.2707 59.8754C29.7931 59.3983 29.0171 59.3983 28.5395 59.8754C28.0624 60.353 28.0624 61.129 28.5395 61.6067Z" fill="#54585F"/>
<path fill-rule="evenodd" clip-rule="evenodd" d="M69.5022 20.3449L67.5359 22.3122C64.0925 25.7556 59.421 27.6897 54.5517 27.6897H44.0923C42.0654 27.6897 40.4199 29.3352 40.4199 31.3621C40.4199 33.389 42.0654 35.0346 44.0923 35.0346H54.5517C61.3697 35.0346 67.908 32.3268 72.7292 27.505L74.6965 25.5387V26.4656C74.6965 28.4925 76.342 30.138 78.3689 30.138C80.3958 30.138 82.0413 28.4925 82.0413 26.4656V16.6724C82.0413 14.6438 80.3975 13 78.3689 13H68.5757C66.5488 13 64.9033 14.6455 64.9033 16.6724C64.9033 18.6993 66.5488 20.3449 68.5757 20.3449H69.5022ZM73.3237 19.9864C73.674 19.6361 73.7779 19.1098 73.5882 18.6518C73.3997 18.1955 72.9527 17.8966 72.4581 17.8966H68.5753C67.8998 17.8966 67.3511 17.3479 67.3511 16.6724C67.3511 15.997 67.8998 15.4483 68.5753 15.4483H78.3684C79.0439 15.4483 79.5925 15.997 79.5925 16.6724V26.4656C79.5925 27.141 79.0439 27.6897 78.3684 27.6897C77.6929 27.6897 77.1443 27.141 77.1443 26.4656V22.5827C77.1443 22.0881 76.8453 21.6411 76.389 21.4526C75.9311 21.2629 75.4048 21.3668 75.0545 21.7171L70.9979 25.7737C66.6363 30.1358 60.72 32.5862 54.5524 32.5862H44.093C43.4176 32.5862 42.8689 32.0375 42.8689 31.3621C42.8689 30.6866 43.4176 30.1379 44.093 30.1379H54.5524C60.0719 30.1379 65.3647 27.9454 69.2673 24.043L73.3239 19.9864H73.3237Z" fill="#54585F"/>
<path fill-rule="evenodd" clip-rule="evenodd" d="M69.8015 48.4979V36.2565C69.8015 35.2821 70.1884 34.3481 70.8775 33.66C71.5656 32.9709 72.4995 32.584 73.474 32.584H78.3705C79.3449 32.584 80.2789 32.9709 80.967 33.66C81.6561 34.3481 82.043 35.282 82.043 36.2565V43.6002C84.44 41.7995 87.8626 41.9891 90.0441 44.1691C92.4323 46.5589 92.4323 50.4368 90.0441 52.8266L75.3544 67.5163C74.2063 68.6634 72.6487 69.3084 71.0257 69.3084H53.468C52.4937 69.3084 51.5596 69.6953 50.8716 70.3844L50.0049 71.25L51.5874 72.8326C53.022 74.266 53.022 76.5919 51.5874 78.0253L46.6909 82.9219C45.2574 84.3565 42.9316 84.3565 41.4981 82.9219L21.9119 63.3356C20.4773 61.9022 20.4773 59.5763 21.9119 58.1429L26.8084 53.2463C28.2419 51.8118 30.5677 51.8118 32.0012 53.2463L32.8395 54.0847L40.422 47.5858V41.1531C40.422 39.1245 42.0659 37.4807 44.0945 37.4807H48.991C51.0196 37.4807 52.6635 39.1245 52.6635 41.1531V45.4092C53.1383 45.5699 53.6023 45.7633 54.0543 45.9885L55.1117 46.5175V41.1531C55.1117 39.1245 56.7556 37.4807 58.7842 37.4807H63.6807C65.7093 37.4807 67.3532 39.1245 67.3532 41.1531V47.3973C68.2396 47.5788 69.0756 47.9531 69.8014 48.498L69.8015 48.4979ZM23.6422 59.8736L28.5388 54.977C29.0164 54.4983 29.7924 54.4983 30.2701 54.977L49.8564 74.5633C50.3351 75.0409 50.3351 75.8169 49.8564 76.2946L44.9598 81.1912C44.4822 81.6699 43.7061 81.6699 43.2285 81.1912L23.6422 61.6049C23.1635 61.1272 23.1635 60.3512 23.6422 59.8736ZM48.2734 69.5186L34.5767 55.8208L42.1406 49.3377C43.6942 48.0059 45.6709 47.2747 47.7164 47.2747H49.128C50.4576 47.2747 51.7698 47.5846 52.9595 48.1781C53.5792 48.4879 54.2329 48.8147 54.7553 49.0754C55.6051 49.5006 56.5413 49.7219 57.4916 49.7219H66.1289C67.1033 49.7219 68.0373 50.1088 68.7254 50.798C69.4145 51.486 69.8014 52.42 69.8014 53.3944C69.8014 55.423 68.1575 57.0668 66.1301 57.0668H51.439C50.7635 57.0668 50.2148 57.6155 50.2148 58.291C50.2148 58.9664 50.7635 59.5151 51.439 59.5151H68.9967C69.3213 59.5151 69.6333 59.3867 69.8623 59.1566L83.1186 45.9015C84.5509 44.468 86.879 44.468 88.3113 45.9015C89.7448 47.3338 89.7448 49.6619 88.3113 51.0942L73.6216 65.7839C72.9336 66.473 71.9996 66.8599 71.0252 66.8599H53.4675C51.8439 66.8599 50.287 67.5048 49.1388 68.6519L48.2734 69.5186ZM79.5946 45.9619L72.2498 53.3067V36.2555C72.2498 35.9309 72.3782 35.6188 72.6083 35.3898C72.8372 35.1598 73.1493 35.0313 73.4739 35.0313H78.3705C78.6951 35.0313 79.0071 35.1598 79.2361 35.3898C79.4662 35.6188 79.5946 35.9309 79.5946 36.2555V45.9619ZM64.9049 47.2729H57.5601V41.1522C57.5601 40.4767 58.1087 39.9281 58.7842 39.9281H63.6808C64.3562 39.9281 64.9049 40.4767 64.9049 41.1522V47.2729ZM50.2152 44.8799V41.1522C50.2152 40.4767 49.6665 39.9281 48.9911 39.9281H44.0945C43.419 39.9281 42.8704 40.4767 42.8704 41.1522V45.9499C44.3688 45.2154 46.0247 44.8257 47.7167 44.8257H49.1283C49.4917 44.8257 49.8551 44.8443 50.2153 44.8798L50.2152 44.8799Z" fill="#54585F"/>
<defs>
<linearGradient id="paint0_linear_4051_19289" x1="32.5" y1="26" x2="32.5" y2="73" gradientUnits="userSpaceOnUse">
<stop stop-color="#EE8425"/>
<stop offset="1" stop-color="#FF661A"/>
</linearGradient>
</defs>
</svg>
