<svg width="100" height="96" viewBox="0 0 100 96" fill="none" xmlns="http://www.w3.org/2000/svg">
<circle opacity="0.3" cx="58.499" cy="37.5" r="23.5" fill="url(#paint0_linear_4051_19254)"/>
<path d="M40.9984 49.8301C37.3586 49.8301 34.3984 47.2451 34.3984 44.0693C34.3984 40.8935 37.3586 38.3086 40.9984 38.3086C44.6382 38.3086 47.5984 40.8927 47.5984 44.0693C47.5984 44.6763 47.1054 45.1693 46.4984 45.1693C45.8915 45.1693 45.3984 44.6763 45.3984 44.0693C45.3984 42.106 43.4248 40.5086 40.9984 40.5086C38.572 40.5086 36.5984 42.1055 36.5984 44.0693C36.5984 46.0326 38.572 47.6301 40.9984 47.6301C41.6054 47.6301 42.0984 48.1231 42.0984 48.7301C42.0984 49.3375 41.6054 49.8301 40.9984 49.8301Z" fill="#54585F"/>
<path d="M40.9984 59.1523C37.3586 59.1523 34.3984 56.5682 34.3984 53.3925C34.3984 52.7856 34.8915 52.2925 35.4984 52.2925C36.1054 52.2925 36.5984 52.7856 36.5984 53.3925C36.5984 55.3558 38.572 56.9523 40.9984 56.9523C43.4248 56.9523 45.3984 55.3553 45.3984 53.3925C45.3984 51.4303 43.4248 49.8328 40.9984 49.8328C40.3915 49.8328 39.8984 49.3398 39.8984 48.7328C39.8984 48.1259 40.3915 47.6328 40.9984 47.6328C44.6382 47.6328 47.5984 50.2169 47.5984 53.3925C47.5984 56.5682 44.6382 59.1523 40.9984 59.1523Z" fill="#54585F"/>
<path d="M41.0004 40.5112C40.3934 40.5112 39.9004 40.0181 39.9004 39.4112V36.9008C39.9004 36.2938 40.3934 35.8008 41.0004 35.8008C41.6074 35.8008 42.1004 36.2938 42.1004 36.9008V39.4112C42.1004 40.0181 41.6074 40.5112 41.0004 40.5112Z" fill="#54585F"/>
<path d="M41.0004 62.2012C40.3934 62.2012 39.9004 61.7082 39.9004 61.1012V58.0531C39.9004 57.4462 40.3934 56.9531 41.0004 56.9531C41.6074 56.9531 42.1004 57.4462 42.1004 58.0531V61.1012C42.1004 61.7082 41.6074 62.2012 41.0004 62.2012Z" fill="#54585F"/>
<path d="M56.4 82H25.6C21.9602 82 19 79.0398 19 75.4V22.6C19 18.9602 21.9602 16 25.6 16H47.8967C48.5036 16 48.9967 16.493 48.9967 17.1C48.9967 17.707 48.5036 18.2 47.8967 18.2H25.6C23.1736 18.2 21.2 20.1736 21.2 22.6V75.4C21.2 77.8264 23.1736 79.8 25.6 79.8H56.4C58.8264 79.8 60.8 77.8264 60.8 75.4V32.1342C60.8 31.5272 61.293 31.0342 61.9 31.0342C62.507 31.0342 63 31.5272 63 32.1342V75.4C63 79.0398 60.0398 82 56.4 82Z" fill="#54585F"/>
<path d="M61.9 71.0008H20.1C19.493 71.0008 19 70.5077 19 69.9008C19 69.2938 19.493 68.8008 20.1 68.8008H61.9C62.507 68.8008 63 69.2938 63 69.9008C63 70.5077 62.507 71.0008 61.9 71.0008Z" fill="#54585F"/>
<path d="M20.1016 69.3516H61.9016V70.4516H20.1016V69.3516Z" fill="#54585F"/>
<path d="M43.1402 78.8753H38.8625C36.9453 78.8753 35.3867 77.3167 35.3867 75.3996C35.3867 73.4824 36.9453 71.9238 38.8625 71.9238H43.1402C45.0573 71.9238 46.6159 73.4824 46.6159 75.3996C46.6159 77.3167 45.0573 78.8753 43.1402 78.8753ZM38.863 74.1237C38.1588 74.1237 37.5872 74.6968 37.5872 75.3995C37.5872 76.1021 38.1603 76.6752 38.863 76.6752H43.1407C43.8449 76.6752 44.4164 76.1021 44.4164 75.3995C44.4164 74.6968 43.8433 74.1237 43.1407 74.1237H38.863Z" fill="#54585F"/>
<path d="M58.918 32.5001H58.8959H47.8959C47.2889 32.5001 46.7959 32.007 46.7959 31.4001V20.4001C46.7959 19.9557 47.0645 19.554 47.4746 19.3836C47.887 19.2141 48.36 19.3075 48.6738 19.6222L50.1288 21.0777L54.8951 16.3212C55.3253 15.892 56.0206 15.8935 56.4503 16.3222L62.6761 22.548C62.8833 22.7552 62.9987 23.0356 62.9987 23.3273C62.9987 23.62 62.8823 23.8994 62.6766 24.1061L57.9102 28.8601L59.5538 30.5037C59.8342 30.7026 60.0179 31.0306 60.0179 31.4014C60.0179 32.0069 59.5248 32.4999 58.9179 32.4999L58.918 32.5001ZM48.9959 30.3001H56.2391L55.5757 29.6367C55.369 29.4299 55.2536 29.1505 55.2536 28.8578C55.2536 28.5651 55.37 28.2857 55.5757 28.079L60.3421 23.3235L55.6715 18.6529L50.9052 23.4094C50.475 23.8386 49.7796 23.8372 49.35 23.4085L48.9959 23.0569L48.9959 30.3001Z" fill="#54585F"/>
<defs>
<linearGradient id="paint0_linear_4051_19254" x1="58.499" y1="14" x2="58.499" y2="61" gradientUnits="userSpaceOnUse">
<stop stop-color="#EE8425"/>
<stop offset="1" stop-color="#FF661A"/>
</linearGradient>
</defs>
</svg>
