<svg width="109" height="137" viewBox="0 0 109 137" fill="none" xmlns="http://www.w3.org/2000/svg">
<path opacity="0.12" d="M104.336 25.9915C102.626 21.879 100.275 18.0662 97.3704 14.6962C94.1525 11.1474 90.3406 8.19188 86.1076 5.96334C77.0247 1.42545 66.896 -0.583345 56.7771 0.146311C51.6353 0.439145 46.5457 1.33876 41.6133 2.82656C36.6264 4.33431 31.8622 6.50355 27.4467 9.27682C18.737 14.706 11.5098 22.2266 6.41683 31.1605C1.50398 39.9081 -1.10643 50.0842 0.448087 60.0541C1.21961 65.068 3.06052 69.8553 5.84488 74.0886C8.63635 78.5675 12.6048 82.1856 17.3131 84.5445C22.1647 86.8497 27.5418 87.8107 32.8875 87.3278C37.9299 86.8887 42.8756 85.6769 47.5527 83.7345C52.0145 81.9107 56.2555 79.5837 60.1941 76.7983C62.1218 75.4379 63.9188 73.8996 65.5616 72.2036C67.1455 70.51 68.4947 68.8312 69.9612 67.0788C72.6616 63.6856 74.8733 59.9278 76.5312 55.916C78.1579 52.0567 78.7836 47.8462 78.3497 43.6782C77.8949 39.6504 76.3193 35.8327 73.8035 32.6627C71.2901 29.5423 67.9035 27.2495 64.0804 26.0799C60.4884 25.0012 56.7074 24.7099 52.9935 25.2257C49.6368 25.6569 46.3697 26.6213 43.3145 28.0827C40.6317 29.4119 38.1605 31.1341 35.9819 33.1928C34.1023 34.9894 32.4698 37.0299 31.1277 39.2602C29.9958 41.1558 29.0995 43.1836 28.4586 45.2981C27.936 47.0577 27.6113 48.8706 27.4907 50.7028C27.3089 53.2172 27.5669 55.7441 28.2533 58.1691C28.4538 59.0345 28.7957 59.8606 29.2652 60.6138C29.1998 59.7501 29.0425 58.8961 28.7959 58.0661C28.3624 55.6656 28.2882 53.2136 28.576 50.7911C28.7858 49.0412 29.179 47.3185 29.7492 45.6515C30.46 43.6685 31.3897 41.7717 32.5209 39.9965C33.8681 37.9411 35.4696 36.0657 37.2871 34.4152C41.7626 30.4204 47.3855 27.9555 53.3455 27.3758C56.69 26.9918 60.0776 27.3179 63.2885 28.3331C66.5798 29.4267 69.4738 31.4768 71.6037 34.2237C73.7538 37.0577 75.0697 40.4403 75.4019 43.9874C75.7086 47.723 75.0731 51.476 73.5541 54.8998C71.9342 58.6174 69.8015 62.0876 67.2188 65.2084C65.9136 66.8431 64.4764 68.522 63.0392 70.0388C61.5189 71.5468 59.8647 72.9122 58.097 74.1181C54.372 76.6881 50.3669 78.8226 46.1595 80.48C41.8544 82.215 37.3085 83.273 32.6822 83.6167C28.1032 84.0012 23.5051 83.1469 19.3662 81.1426C15.3511 79.0611 11.9864 75.9066 9.64317 72.0269C7.19808 68.2351 5.60653 63.9531 4.97963 59.4798C3.67443 50.5702 6.09419 41.263 10.7137 33.2076C15.4698 25.0106 22.1637 18.1166 30.2038 13.1352C38.3483 8.17282 47.611 5.36111 57.1291 4.96194C66.2418 4.33066 75.3566 6.16121 83.5265 10.2635C87.1878 12.2022 90.4833 14.769 93.2642 17.8477C95.8121 20.8328 97.8759 24.2023 99.3796 27.8324C100.828 31.3202 101.9 34.9539 102.577 38.6711C103.243 42.1955 103.577 45.7752 103.574 49.3626C103.567 55.868 102.528 62.3307 100.494 68.5072C98.6585 73.9239 96.119 79.0735 92.9415 83.8229C87.8321 91.3432 81.3658 97.8366 73.8768 102.967C68.629 106.548 63.0204 109.564 57.1438 111.965C53.4729 113.454 49.7226 114.737 45.9102 115.809C43.2558 116.531 41.3933 117.002 40.0441 117.355C41.2016 115.201 42.1447 112.936 42.8599 110.596C44.1651 106.178 44.0624 103.233 43.5051 103.159C42.9478 103.085 41.892 105.662 39.9268 109.624C38.7837 111.929 37.5005 114.162 36.0845 116.31C35.2926 117.532 34.398 118.769 33.4301 120.021C32.7833 120.756 32.2269 121.567 31.773 122.436C31.6066 122.783 31.4835 123.149 31.4063 123.526C31.3406 123.931 31.3406 124.343 31.4063 124.748C31.5075 125.599 31.9205 126.381 32.5649 126.942C32.8984 127.234 33.2681 127.482 33.6648 127.679L34.3687 128.003L35.5713 128.562L37.947 129.652L42.4639 131.655C45.3969 132.907 47.9927 133.982 50.2365 134.851C54.724 136.544 57.5691 137.354 57.9064 136.853C58.2437 136.353 55.7799 134.644 51.659 132.273C49.5912 131.095 47.1128 129.755 44.3264 128.312L39.9268 126.103L35.7472 124.115C35.7472 124.115 35.7472 124.115 35.7472 124.012C36.0764 123.401 36.4645 122.824 36.9058 122.289C37.4191 121.582 37.8884 120.89 38.3723 120.183C41.2062 120.202 44.0322 119.881 46.7901 119.226C50.8706 118.373 54.8846 117.226 58.8009 115.794C65.1297 113.454 71.1718 110.395 76.8098 106.679C84.9618 101.304 92.003 94.398 97.5464 86.3411C100.958 81.2736 103.681 75.7712 105.642 69.9799C107.862 63.3347 108.997 56.3721 109 49.3626C109.004 45.4924 108.636 41.6307 107.9 37.8317C107.165 33.7875 105.99 29.8366 104.395 26.0504" fill="url(#paint0_linear_2169_11731)"/>
<defs>
<linearGradient id="paint0_linear_2169_11731" x1="54.5" y1="0" x2="54.5" y2="137" gradientUnits="userSpaceOnUse">
<stop stop-color="#EE8425"/>
<stop offset="1" stop-color="#FF661A"/>
</linearGradient>
</defs>
</svg>
