<svg width="56" height="573" viewBox="0 0 56 573" fill="none" xmlns="http://www.w3.org/2000/svg">
<path d="M46.7897 573H56.0002L56.0002 502.437H46.7897L46.7897 573Z" fill="#E76113" fill-opacity="0.91"/>
<path d="M23.3945 573H32.605L32.605 502.437H23.3945L23.3945 573Z" fill="#E76113" fill-opacity="0.91"/>
<path d="M0.000138283 573H9.21057L9.21057 502.437H0.000138283L0.000138283 573Z" fill="#E76113" fill-opacity="0.91"/>
<path d="M46.7897 472.52H56.0002L56.0002 401.956H46.7897L46.7897 472.52Z" fill="#E76113" fill-opacity="0.91"/>
<path d="M23.3945 472.52H32.605L32.605 401.956H23.3945L23.3945 472.52Z" fill="#E76113" fill-opacity="0.91"/>
<path d="M23.3945 372.039H32.605L32.605 301.475H23.3945L23.3945 372.039Z" fill="#E76113" fill-opacity="0.91"/>
<path d="M0.000138283 372.039H9.21057L9.21057 301.475H0.000138283L0.000138283 372.039Z" fill="#E76113" fill-opacity="0.91"/>
<path d="M46.7897 271.525H56.0002L56.0002 200.962H46.7897L46.7897 271.525Z" fill="#E76113" fill-opacity="0.91"/>
<path d="M0.000138283 271.525H9.21057L9.21057 200.962H0.000138283L0.000138283 271.525Z" fill="#E76113" fill-opacity="0.91"/>
<path d="M46.7897 171.044H56.0002L56.0002 100.481H46.7897L46.7897 171.044Z" fill="#E76113" fill-opacity="0.91"/>
<path d="M23.3945 171.044H32.605L32.605 100.481H23.3945L23.3945 171.044Z" fill="#E76113" fill-opacity="0.91"/>
<path d="M46.7897 70.5635H56.0002L56.0002 0.000152588H46.7897L46.7897 70.5635Z" fill="#E76113" fill-opacity="0.91"/>
<path d="M23.3945 70.5635H32.605L32.605 0.000152588H23.3945L23.3945 70.5635Z" fill="#E76113" fill-opacity="0.91"/>
<path d="M0.000138283 70.5635H9.21057L9.21057 0.000152588H0.000138283L0.000138283 70.5635Z" fill="#E76113" fill-opacity="0.91"/>
</svg>
